<svg stroke="currentColor" width="28" height="28" viewBox="0 0 28 28" fill="none" xmlns="http://www.w3.org/2000/svg">
<path d="M21.9245 10.5305C22.6415 11.2441 22.6415 12.4038 21.9245 13.0282L19.4151 15.5258L12.4245 8.56807L14.934 6.07042C15.6509 5.35681 16.816 5.35681 17.4434 6.07042L19.0566 7.67605L21.9245 4.5L23.1792 5.74883L20.3113 8.92488L21.9245 10.5305ZM16.7264 15.7042L15.4717 14.4554L12.9623 16.953L11.0802 15.0798L13.5896 12.5822L12.3349 11.3333L9.82547 13.831L8.48113 12.5822L5.9717 15.0798C5.25472 15.7934 5.25472 16.953 5.9717 17.5775L7.58491 19.1831L4 22.7512L5.25472 24L8.83962 20.4319L10.4528 22.0376C11.1698 22.7512 12.3349 22.7512 12.9623 22.0376L15.4717 19.5399L14.217 18.2911L16.7264 15.7042Z" fill="currentColor"/>
<rect x="1" y="1" width="26" height="26" rx="13" stroke="currentColor" stroke-width="2"/>
</svg>
