<svg fill="none" viewBox="0 0 73 56" xmlns="http://www.w3.org/2000/svg" xmlns:xlink="http://www.w3.org/1999/xlink"><clipPath id="a"><path d="m0 0h73v56h-73z"/></clipPath><g clip-path="url(#a)"><path d="m59.0503.854c-2.1723.38733-3.1697 1.85033-3.1697 6.678 0 29.218-6.51 37.0113-10.0255 37.0113-2.3662 0-3.1978-2.114-3.4594-3.143-.035-.182-.07-.364-.1051-.5506-2.6956-15.0454-1.4739-40.8497-15.0989-40.8497-19.51138 0-26.983772 41.6337-27.19166238 51.6437-.04204532 1.9856 1.22632238 3.808 3.22814238 4.249 1.94577.427 3.87284-.5927 4.65068-2.3427.11212-.2543 7.80174-23.541 15.41424-23.541 10.0232 0 9.3131 25.991 23.0642 25.991 3.3753 0 6.8674-1.743 11.3172-6.097 1.6141-1.5797 3.2328-3.5093 4.8049-5.831 8.3063-12.257 10.4389-22.9927 10.516-29.7827.0911-7.8703-8.7641-14.3546333-13.9474-13.4353z" fill="#fff"/></g></svg>