<svg fill="none" viewBox="0 0 146 32" xmlns="http://www.w3.org/2000/svg" xmlns:xlink="http://www.w3.org/1999/xlink"><linearGradient id="a" gradientUnits="userSpaceOnUse" x1="91.1005" x2="98.9642" y1="12.6067" y2="34.341"><stop offset="0" stop-color="#757575"/><stop offset=".15" stop-color="#757575" stop-opacity=".58"/><stop offset=".28" stop-color="#757575" stop-opacity=".26"/><stop offset=".38" stop-color="#757575" stop-opacity=".07"/><stop offset=".45" stop-color="#757575" stop-opacity="0"/></linearGradient><g fill="#fff"><path d="m69.4141 31.2414 7.0097-30.804983h10.743l-7.0127 30.804983z"/><path d="m37.9482.433502-7.0098 30.804898h-8.9515l-7.9202-14.6013-.003-.003-3.3237 14.6043h-10.74l7.01269-30.804898h9.54381l7.3457 14.449098 3.2853-14.449098z"/><path d="m56.8884 0c-8.8719 0-17.7292 7.17913-19.7387 15.9985-2.0036 8.8194 3.58 16.0015 12.452 16.0015 11.6564 0 18.3273-7.1791 20.3369-16.0015 2.0095-8.81937-4.1812-15.9985-13.0531-15.9985zm2.3808 15.9985c-.7455 3.304-4.0632 5.987-7.384 5.987-3.3207 0-5.4127-2.683-4.6614-5.987.7514-3.3039 4.0692-5.987 7.384-5.987 3.3149 0 5.4128 2.6831 4.6614 5.987z"/><path d="m116.019 6.76613c-.233 1.04568-.813 1.92733-1.606 2.54829-.798.62096-1.806.97828-2.899.97828h-8.082c-.162 0-.319 0-.481.0059-2.9668.1552-5.8691 2.5805-6.538 5.5359-.6983 3.0579 1.2346 5.5418 4.311 5.5418h10.763l-2.239 9.8651h-10.7695c-6.223 0-10.7695-3.6672-12.0277-8.9512-.4685-1.9654-.4832-4.1505.0413-6.4557 1.9329-8.49134 10.4601-15.400998 19.0019-15.400998h5.33c3.309 0 5.917 3.172178 5.195 6.329698z"/></g><path d="m109.251 31.2413h-10.7695c-6.223 0-10.7695-3.6671-12.0277-8.9512-.5687-8.5323 7.0952-11.8832 16.5002-11.9915-2.9668.1552-5.8691 2.5805-6.538 5.5359-.6983 3.0579 1.2346 5.5418 4.311 5.5418h10.763z" fill="url(#a)"/><path d="m146 .433502v.002928l-1.93 8.46792h-15.042l-.722 3.16635h11.789l-1.721 7.5687h-11.789l-.724 3.1663h15.047l-1.924 8.4503-25.788-.0029 7.013-30.819598z" fill="#fff"/></svg>