<svg fill="none" viewBox="0 0 73 56" xmlns="http://www.w3.org/2000/svg" xmlns:xlink="http://www.w3.org/1999/xlink"><linearGradient id="a" gradientUnits="userSpaceOnUse" x1="40.6742" x2="74.1925" y1="42.5717" y2="9.01719"><stop offset="0" stop-color="#757575"/><stop offset=".05" stop-color="#888"/><stop offset=".18" stop-color="#bbb"/><stop offset=".3" stop-color="#e0e0e0"/><stop offset=".39" stop-color="#f6f6f6"/><stop offset=".45" stop-color="#fff"/></linearGradient><clipPath id="b"><path d="m0 0h73v56h-73z"/></clipPath><g clip-path="url(#b)"><path d="m59.0503.854001c-2.1723.387329-3.1697 1.850329-3.1697 6.677999 0 29.218-6.5101 37.0113-10.0255 37.0113-2.3662 0-3.1978-2.114-3.4594-3.143 2.3966 12.0074 10.7075 11.7904 15.2811 8.5027 1.6141-1.5797 3.2328-3.5093 4.8049-5.831 8.3063-12.257 10.4389-22.9927 10.516-29.7827.0911-7.8703-8.7641-14.3569658-13.9474-13.435299z" fill="url(#a)"/><path d="m42.3956 41.4003c-.035-.182-.0701-.364-.1051-.5506-2.6956-15.0454-1.4739-40.8497-15.0989-40.8497-19.51141 0-26.983794 41.6337-27.19168445 51.6437-.04204535 1.9856 1.22632445 3.808 3.22814445 4.249 1.94576.427 3.87284-.5927 4.65068-2.3427.11212-.2543 7.80176-23.541 15.41426-23.541 10.0232 0 9.3131 25.991 23.0642 25.991 3.3753 0 6.8674-1.743 11.3172-6.097-4.5736 3.2877-12.8845 3.5047-15.2811-8.5027z" fill="#fff"/></g></svg>