<svg fill="none" viewBox="0 0 198 56" xmlns="http://www.w3.org/2000/svg" xmlns:xlink="http://www.w3.org/1999/xlink"><linearGradient id="a" gradientUnits="userSpaceOnUse" x1="154.031" x2="160.269" y1="28.3313" y2="45.6667"><stop offset="0" stop-color="#757575"/><stop offset=".15" stop-color="#757575" stop-opacity=".58"/><stop offset=".28" stop-color="#757575" stop-opacity=".26"/><stop offset=".38" stop-color="#757575" stop-opacity=".07"/><stop offset=".45" stop-color="#757575" stop-opacity="0"/></linearGradient><linearGradient id="b" gradientUnits="userSpaceOnUse" x1="54.2005" x2="63.1257" y1="52.2713" y2="1.07378"><stop offset=".06" stop-color="#5231f9"/><stop offset=".32" stop-color="#6c2cfc"/><stop offset=".68" stop-color="#bb12fc"/><stop offset=".77" stop-color="#cf0bf9"/><stop offset=".94" stop-color="#ef00f5"/></linearGradient><linearGradient id="c" gradientUnits="userSpaceOnUse" x1="5.0205" x2="48.147" y1="16.2937" y2="59.9133"><stop offset=".36" stop-color="#3ceb18"/><stop offset=".95" stop-color="#00eae8"/></linearGradient><radialGradient id="d" cx="0" cy="0" gradientTransform="matrix(28.7292 0 0 28.406 5.17153 51.0883)" gradientUnits="userSpaceOnUse" r="1"><stop offset=".24" stop-color="#2fcc0e"/><stop offset=".44" stop-color="#2fcc0e" stop-opacity=".65"/><stop offset=".65" stop-color="#2fcc0e" stop-opacity=".3"/><stop offset=".8" stop-color="#2fcc0e" stop-opacity=".08"/><stop offset=".88" stop-color="#2fcc0e" stop-opacity="0"/></radialGradient><g fill="#fff"><path d="m136.662 43.176 5.614-24.5396h8.604l-5.616 24.5396z"/><path d="m111.461 18.634-5.614 24.5397h-7.1698l-6.3434-11.6317-.0023-.0023-2.662 11.634h-8.6017l5.6165-24.5397h7.6436l5.8831 11.5104 2.631-11.5104z"/><path d="m126.63 18.2887c-7.106 0-14.199 5.719-15.809 12.7447-1.605 7.0256 2.867 12.747 9.973 12.747 9.336 0 14.679-5.719 16.288-12.747 1.609-7.0257-3.349-12.7447-10.454-12.7447zm1.907 12.7447c-.597 2.632-3.254 4.7693-5.914 4.7693s-4.335-2.1373-3.733-4.7693c.601-2.632 3.259-4.7694 5.913-4.7694 2.655 0 4.336 2.1374 3.734 4.7694z"/><path d="m173.988 23.6787c-.186.833-.651 1.5353-1.286 2.03-.64.4947-1.447.7793-2.322.7793h-6.473c-.13 0-.255 0-.385.0047-2.376.1237-4.701 2.0557-5.236 4.41-.56 2.436.988 4.4147 3.452 4.4147h8.621l-1.794 7.8586h-8.625c-4.984 0-8.626-2.9213-9.633-7.1306-.375-1.5657-.387-3.3064.033-5.1427 1.548-6.7643 8.377-12.2687 15.219-12.2687h4.269c2.65 0 4.738 2.527 4.16 5.0424z"/></g><path d="m168.567 43.176h-8.625c-4.984 0-8.625-2.9213-9.633-7.1307-.455-6.797 5.683-9.4663 13.215-9.5526-2.376.1236-4.7 2.0556-5.236 4.41-.559 2.436.989 4.4146 3.452 4.4146h8.621z" fill="url(#a)"/><path d="m198 18.634v.0024l-1.546 6.7456h-12.047l-.578 2.5224h9.442l-1.378 6.0293h-9.442l-.581 2.5223h12.052l-1.541 6.7317-20.654-.0023 5.617-24.5514z" fill="#fff"/><path d="m59.6612.853986c-2.1947.387334-3.2023 1.850334-3.2023 6.677994 0 29.21802-6.577 37.01132-10.1286 37.01132-2.3906 0-3.2307-2.114-3.495-3.143 2.4212 12.0073 10.8177 11.7904 15.4383 8.5027 1.6307-1.5797 3.2661-3.5093 4.8543-5.831 8.3917-12.257 10.5463-22.9927 10.6242-29.7827.0921-7.87032-8.8543-14.356981-14.0909-13.435314z" fill="url(#b)"/><path d="m42.8329 41.4003c-.0354-.182-.0708-.364-.1062-.5506-2.7233-15.0454-1.4891-40.8497-15.2543-40.8497-19.71443 0-27.261346 41.6337-27.47137539 51.6437-.04247791 1.9856 1.23894539 3.808 3.26136539 4.249 1.96578.427 3.91269-.5927 4.69853-2.3427.11328-.2543 7.88198-23.541 15.57288-23.541 10.1263 0 9.4088 25.991 23.3015 25.991 3.41 0 6.938-1.743 11.4336-6.097-4.6206 3.2877-13.0171 3.5047-15.4383-8.5027z" fill="url(#c)"/><path d="m42.8329 41.4003c-.0354-.182-.0708-.364-.1062-.5506-2.7233-15.0454-1.4891-40.8497-15.2543-40.8497-19.71443 0-27.261346 41.6337-27.47137539 51.6437-.04247791 1.9856 1.23894539 3.808 3.26136539 4.249 1.96578.427 3.91269-.5927 4.69853-2.3427.11328-.2543 7.88198-23.541 15.57288-23.541 10.1263 0 9.4088 25.991 23.3015 25.991 3.41 0 6.938-1.743 11.4336-6.097-4.6206 3.2877-13.0171 3.5047-15.4383-8.5027z" fill="url(#d)"/></svg>