<svg fill="none" viewBox="0 0 121 96" xmlns="http://www.w3.org/2000/svg" xmlns:xlink="http://www.w3.org/1999/xlink"><linearGradient id="a" gradientUnits="userSpaceOnUse" x1="73.0542" x2="79.6608" y1="79.8055" y2="97.9251"><stop offset="0" stop-color="#655eb5"/><stop offset=".12" stop-color="#655eb5" stop-opacity=".66"/><stop offset=".23" stop-color="#655eb5" stop-opacity=".37"/><stop offset=".32" stop-color="#655eb5" stop-opacity=".17"/><stop offset=".4" stop-color="#655eb5" stop-opacity=".05"/><stop offset=".45" stop-color="#655eb5" stop-opacity="0"/></linearGradient><linearGradient id="b" gradientUnits="userSpaceOnUse" x1="84.0309" x2="93.5064" y1="54.8019" y2="1.16771"><stop offset=".06" stop-color="#5231f9"/><stop offset=".32" stop-color="#6c2cfc"/><stop offset=".68" stop-color="#bb12fc"/><stop offset=".77" stop-color="#cf0bf9"/><stop offset=".94" stop-color="#ef00f5"/></linearGradient><linearGradient id="c" gradientUnits="userSpaceOnUse" x1="33.1425" x2="78.3598" y1="17.0825" y2="62.2224"><stop offset=".36" stop-color="#3ceb18"/><stop offset=".95" stop-color="#00eae8"/></linearGradient><radialGradient id="d" cx="0" cy="0" gradientTransform="matrix(29.7286 0 0 29.7812 33.2988 53.5617)" gradientUnits="userSpaceOnUse" r="1"><stop offset=".24" stop-color="#2fcc0e"/><stop offset=".44" stop-color="#2fcc0e" stop-opacity=".65"/><stop offset=".65" stop-color="#2fcc0e" stop-opacity=".3"/><stop offset=".8" stop-color="#2fcc0e" stop-opacity=".08"/><stop offset=".88" stop-color="#2fcc0e" stop-opacity="0"/></radialGradient><g fill="#0e0468"><path d="m57.5257 95.3664 5.8119-25.7277h8.9034l-5.8119 25.7277z"/><path d="m31.4502 69.6387-5.8094 25.7277h-7.4188l-6.564-12.1972-.0024-.0024-2.75703 12.1996h-8.89857l5.81191-25.7277h7.90959l6.0878 12.0676 2.7228-12.0676z"/><path d="m47.1448 69.2742c-7.3528 0-14.6934 5.9959-16.3588 13.3617-1.6605 7.3658 2.967 13.3641 10.3198 13.3641 9.6605 0 15.1891-5.9959 16.8545-13.3641 1.6655-7.3658-3.4651-13.3617-10.8179-13.3617zm1.9731 13.3617c-.6178 2.7594-3.3674 5.0002-6.1196 5.0002-2.7521 0-4.4859-2.2408-3.8632-5.0002.6227-2.7595 3.3724-5.0003 6.1196-5.0003 2.7473 0 4.4859 2.2408 3.8632 5.0003z"/><path d="m96.1529 74.9252c-.1929.8733-.674 1.6097-1.3309 2.1283-.6618.5186-1.4969.817-2.4029.817h-6.6983c-.1343 0-.2638 0-.3981.0049-2.4591.1297-4.8644 2.1552-5.4187 4.6235-.5788 2.5539 1.0232 4.6284 3.5726 4.6284h8.9205l-1.8559 8.2391h-8.9254c-5.1575 0-8.9254-3.0627-9.9682-7.4758-.3882-1.6415-.4004-3.4664.0342-5.3917 1.602-7.0918 8.6691-12.8626 15.7483-12.8626h4.4176c2.7423 0 4.9035 2.6493 4.3052 5.2864z"/></g><path d="m90.5436 95.3689h-8.9254c-5.1574 0-8.9254-3.0628-9.9681-7.4759-.4713-7.1261 5.8803-9.9246 13.675-10.0152-2.459.1297-4.8644 2.1552-5.4187 4.6235-.5788 2.554 1.0232 4.6284 3.5726 4.6284h8.9206z" fill="url(#a)"/><path d="m121 69.6387v.0025l-1.599 7.0698h-12.467l-.598 2.6469h9.768l-1.426 6.3212h-9.768l-.601 2.642h12.469l-1.592 7.06-21.3725-.0024 5.8119-25.74z" fill="#0e0468"/><path d="m89.6816.895331c-2.271.406089-3.3137 1.939909-3.3137 7.001299 0 30.63257-6.8058 38.80317-10.481 38.80317-2.4737 0-3.3431-2.2164-3.6166-3.2952 2.5055 12.5887 11.194 12.3612 15.9754 8.9143 1.6874-1.6561 3.3797-3.6792 5.0232-6.1133 8.6841-12.8504 10.9131-24.1058 10.9941-31.2245.095-8.25135-9.1626-15.0520558-14.5814-14.085769z" fill="url(#b)"/><path d="m72.2704 43.4046c-.0367-.1908-.0733-.3816-.1099-.5773-2.8181-15.7737-1.5409-42.8273-15.785-42.8273-20.4003 0-28.2097 43.6493-28.4271 54.1439-.0439 2.0818 1.2821 3.9923 3.3749 4.4547 2.0341.4477 4.0488-.6214 4.8619-2.4561.1173-.2666 8.1562-24.6807 16.1147-24.6807 10.4785 0 9.7361 27.2493 24.112 27.2493 3.5287 0 7.1795-1.8274 11.8314-6.3922-4.7814 3.4469-13.4699 3.6744-15.9754-8.9143z" fill="url(#c)"/><path d="m72.2704 43.4046c-.0367-.1908-.0733-.3816-.1099-.5773-2.8181-15.7737-1.5409-42.8273-15.785-42.8273-20.4003 0-28.2097 43.6493-28.4271 54.1439-.0439 2.0818 1.2821 3.9923 3.3749 4.4547 2.0341.4477 4.0488-.6214 4.8619-2.4561.1173-.2666 8.1562-24.6807 16.1147-24.6807 10.4785 0 9.7361 27.2493 24.112 27.2493 3.5287 0 7.1795-1.8274 11.8314-6.3922-4.7814 3.4469-13.4699 3.6744-15.9754-8.9143z" fill="url(#d)"/></svg>