<svg width="318" height="346" viewBox="0 0 318 346" fill="none" xmlns="http://www.w3.org/2000/svg">
<path fill-rule="evenodd" clip-rule="evenodd" d="M159 51.52C166.281 51.52 172.441 45.3598 172.441 38.079V13.442C172.441 6.16078 166.281 0.000976562 159 0.000976562C151.719 0.000976562 145.559 6.16118 145.559 13.442V38.083C145.559 45.3603 151.719 51.521 159 51.521V51.52ZM103.56 54.879C105.798 59.3595 110.279 62.1602 115.322 62.1602C117.56 62.1602 119.803 61.6016 121.482 60.4805C124.842 58.8008 127.084 56 128.201 52.6407C129.322 49.2813 128.76 45.3595 127.08 42.5627L115.881 21.2817C114.201 17.9223 111.4 15.6801 108.041 14.5629C104.682 13.4418 100.76 14.0043 97.9631 15.684C94.6037 17.3637 92.3615 20.1645 91.2443 23.5238C90.1232 26.8832 90.6857 30.805 92.3654 33.6018L103.56 54.879ZM202.12 62.1597C199.882 62.1597 197.64 61.6011 195.96 60.48L195.96 60.4801C192.601 58.8005 190.359 55.9997 189.238 52.0778C188.12 48.7186 188.679 45.3592 190.359 41.9998L201.558 20.7188C203.237 17.3594 206.038 15.1211 209.397 14C213.319 13.4414 216.679 13.4414 219.483 15.6797C222.843 17.3593 225.081 20.1601 226.202 23.5195C227.32 26.8787 226.761 30.2381 225.081 33.5975L213.882 54.8785C211.64 59.3589 207.159 62.1597 202.12 62.1597ZM215.56 135.52C215.56 166.758 190.24 192.079 159.001 192.079C127.762 192.079 102.442 166.759 102.442 135.52C102.442 104.281 127.762 78.9609 159.001 78.9609C190.24 78.9609 215.56 104.281 215.56 135.52ZM201.16 346C212.206 346 221.16 337.046 221.16 326V255.364L311.32 152.884C320.84 143.364 319.719 128.806 309.641 120.404L309.64 120.4C300.121 112.002 285.562 113.119 277.16 122.638L206.601 202.72C200.999 209.439 192.042 213.361 183.081 213.361H134.921C125.96 213.361 117.562 209.439 111.401 202.72L40.839 122.642C32.4406 113.123 17.878 112.001 8.35899 120.404C-1.16051 128.802 -2.28201 143.365 6.1207 152.884L96.2807 255.364V326C96.2807 337.046 105.235 346 116.281 346H201.16Z" fill="black"/>
</svg>
