<svg fill="currentColor" xmlns="http://www.w3.org/2000/svg" viewBox="0 0 16 20">
  <path d="M2.667 5.334A5.213 5.213 0 0 0 8 10.667a5.214 5.214 0 0 0 5.333-5.333A5.211 5.211 0 0 0 8 .001a5.214 5.214 0 0 0-5.333 5.333Zm8 0A2.546 2.546 0 0 1 8 8.001a2.547 2.547 0 0 1-2.667-2.667A2.546 2.546 0 0 1 8 2.668a2.547 2.547 0 0 1 2.667 2.666Zm-8 13.333a4 4 0 0 1 4-4h2.666a4 4 0 0 1 4 4V19a1 1 0 0 0 1 1H15a1 1 0 0 0 1-1v-.333A6.665 6.665 0 0 0 9.333 12H6.667A6.667 6.667 0 0 0 0 18.667V19a1 1 0 0 0 1 1h.667a1 1 0 0 0 1-1v-.333Z" />
</svg>
