<svg width="64" height="64" viewBox="0 0 64 64" fill="none" xmlns="http://www.w3.org/2000/svg">
<path d="M13.3331 16C13.3331 11.5817 16.9149 8 21.3331 8C25.7514 8 29.3331 11.5817 29.3331 16C29.3331 20.4183 25.7514 24 21.3331 24C16.9149 24 13.3331 20.4183 13.3331 16Z" fill="white" fill-opacity="0.3"/>
<path d="M16.5842 27.3087C17.0675 26.8944 17.683 26.6667 18.3196 26.6667H24.3467C24.9832 26.6667 25.5988 26.8944 26.0821 27.3087L33.0136 33.2499C33.9756 34.0745 34.2246 35.4621 33.6093 36.5697L23.6642 54.4707C22.6482 56.2995 20.0181 56.2995 19.0021 54.4707L9.05702 36.5697C8.44171 35.4621 8.69068 34.0745 9.65267 33.2499L16.5842 27.3087Z" fill="white" fill-opacity="0.3"/>
<path d="M41.3333 32C40.5969 32 40 32.597 40 33.3333V36C40 36.7364 40.5969 37.3333 41.3333 37.3333H48V44C48 44.7364 48.5969 45.3333 49.3333 45.3333H52C52.7363 45.3333 53.3333 44.7364 53.3333 44V37.3333H60C60.7363 37.3333 61.3333 36.7364 61.3333 36V33.3333C61.3333 32.597 60.7363 32 60 32H53.3333V25.3333C53.3333 24.597 52.7363 24 52 24H49.3333C48.5969 24 48 24.597 48 25.3333V32H41.3333Z" fill="white" fill-opacity="0.3"/>
</svg>
