<svg width="25" height="24" viewBox="0 0 25 24" fill="none" xmlns="http://www.w3.org/2000/svg">
<g id="Arrow_Down">
<path id="shape" d="M12.8388 18.659C12.6522 18.8456 12.3497 18.8456 12.1631 18.659L7.18193 13.6779C6.99535 13.4913 6.99534 13.1888 7.18193 13.0022L7.92044 12.2637C8.10703 12.0772 8.40955 12.0772 8.59614 12.2637L11.5009 15.1685L11.5009 6.5C11.5009 6.22386 11.7248 6 12.0009 6L13.0009 6C13.2771 6 13.5009 6.22386 13.5009 6.5L13.5009 15.1685L16.4058 12.2637C16.5923 12.0772 16.8949 12.0772 17.0815 12.2637L17.82 13.0022C18.0065 13.1888 18.0065 13.4913 17.82 13.6779L12.8388 18.659Z" fill="currentColor"/>
</g>
</svg>
