<svg width="26" height="21" viewBox="0 0 26 21" fill="none" xmlns="http://www.w3.org/2000/svg">
<path fill-rule="evenodd" clip-rule="evenodd" d="M14.5 0C14.2239 0 14 0.223858 14 0.5V1.5C14 1.77614 14.2239 2 14.5 2H16V3.05494C14.055 3.26998 12.2968 4.10481 10.9273 5.35756L3 8L9.2796 7.37204C8.88706 8.02549 8.57512 8.73287 8.35756 9.48044L0 11H8.05505C8.01875 11.3283 8.00012 11.662 8.00012 12C8.00012 12.338 8.01875 12.6717 8.05505 13H0L8.35756 14.5196C8.57512 15.2671 8.88706 15.9745 9.2796 16.628L3 16L10.9273 18.6424C12.528 20.1067 14.6597 21 17.0001 21C21.9707 21 26.0001 16.9706 26.0001 12C26.0001 9.31014 24.8201 6.89589 22.9495 5.24668L23.5549 4.38205C23.7133 4.15584 23.6583 3.84407 23.4321 3.68568L22.6129 3.11211C22.3867 2.95372 22.075 3.00869 21.9166 3.23489L21.3121 4.09824C20.3086 3.54952 19.1892 3.18636 18 3.05492V2H19.5C19.7761 2 20 1.77614 20 1.5V0.5C20 0.223858 19.7761 0 19.5 0H14.5ZM10.0001 12C10.0001 8.13401 13.1341 5 17.0001 5C20.8661 5 24.0001 8.13401 24.0001 12C24.0001 15.866 20.8661 19 17.0001 19C13.1341 19 10.0001 15.866 10.0001 12ZM18.5 12C18.5 11.8989 18.49 11.8001 18.4709 11.7046C19.5251 10.2472 21.2426 7.75734 21.2426 7.75734C21.2426 7.75734 18.7527 9.47491 17.2954 10.5291C17.1999 10.51 17.1011 10.5 17 10.5C16.1716 10.5 15.5 11.1716 15.5 12C15.5 12.8284 16.1716 13.5 17 13.5C17.8284 13.5 18.5 12.8284 18.5 12Z" fill="currentColor"/>
</svg>
