<svg width="1.5em" height="1.5em" viewBox="0 0 24 24" fill="none" xmlns="http://www.w3.org/2000/svg">
<path d="M5.29289 4.70711C5.68342 4.31658 6.31658 4.31658 6.70711 4.70711L12 10L17.2929 4.70711C17.6834 4.31658 18.3166 4.31658 18.7071 4.70711L19.2929 5.29289C19.6834 5.68342 19.6834 6.31658 19.2929 6.70711L14 12L19.2929 17.2929C19.6834 17.6834 19.6834 18.3166 19.2929 18.7071L18.7071 19.2929C18.3166 19.6834 17.6834 19.6834 17.2929 19.2929L12 14L6.70711 19.2929C6.31658 19.6834 5.68342 19.6834 5.29289 19.2929L4.70711 18.7071C4.31658 18.3166 4.31658 17.6834 4.70711 17.2929L10 12L4.70711 6.70711C4.31658 6.31658 4.31658 5.68342 4.70711 5.29289L5.29289 4.70711Z" fill="currentColor"/>
</svg>
