<svg viewBox="0 0 24 24" fill="none" xmlns="http://www.w3.org/2000/svg">
<path d="M4.99994 6C4.99994 4.34315 6.34309 3 7.99994 3C9.6568 3 10.9999 4.34315 10.9999 6C10.9999 7.65685 9.6568 9 7.99994 9C6.34309 9 4.99994 7.65685 4.99994 6Z" fill="currentColor"/>
<path d="M6.21907 10.2407C6.40032 10.0854 6.63116 10 6.86987 10H9.13002C9.36873 10 9.59957 10.0854 9.78081 10.2407L12.3801 12.4687C12.7409 12.7779 12.8342 13.2983 12.6035 13.7136L8.8741 20.4265C8.49309 21.1123 7.50679 21.1123 7.12579 20.4265L3.3964 13.7136C3.16566 13.2983 3.25902 12.7779 3.61977 12.4687L6.21907 10.2407Z" fill="currentColor"/>
<path d="M16.3536 11.8536C16.1583 11.6583 15.8417 11.6583 15.6464 11.8536L14.8536 12.6464C14.6583 12.8417 14.6583 13.1583 14.8536 13.3536L18 16.5L23.1464 11.3536C23.3417 11.1583 23.3417 10.8417 23.1464 10.6464L22.3536 9.85355C22.1583 9.65829 21.8417 9.65829 21.6464 9.85355L18 13.5L16.3536 11.8536Z" fill="currentColor"/>
</svg>
