<svg width="24" height="24" viewBox="0 0 24 24" fill="none" xmlns="http://www.w3.org/2000/svg">
<rect x="9" y="3" width="6" height="6" rx="3" fill="currentColor"/>
<path fill-rule="evenodd" clip-rule="evenodd" d="M7.64283 11.0952L6.25187 10.1679C6.0876 10.0584 5.8946 10 5.69718 10H4.30272C4.1053 10 3.91229 10.0584 3.74802 10.1679L1.73447 11.5103C1.31485 11.7901 1.16921 12.3385 1.39475 12.7896L4.10563 18.2112C4.47416 18.9482 5.52596 18.9482 5.89448 18.2112L7.12501 15.7501L6.12839 14.0635C5.76335 13.4458 5.88694 12.656 6.42323 12.1793L7.64283 11.0952ZM16.875 15.7499L18.1056 18.2111C18.4742 18.9482 19.526 18.9482 19.8945 18.2111L22.6053 12.7896C22.8308 12.3385 22.6852 11.7901 22.2656 11.5103L20.252 10.1679C20.0877 10.0584 19.8947 10 19.6973 10H18.3029C18.1054 10 17.9124 10.0584 17.7481 10.1679L16.3571 11.0953L17.5767 12.1793C18.113 12.656 18.2365 13.4458 17.8715 14.0635L16.875 15.7499Z" fill="currentColor"/>
<path d="M10.2191 10.2407C10.4004 10.0854 10.6312 10 10.8699 10H13.1301C13.3688 10 13.5996 10.0854 13.7809 10.2407L16.3802 12.4687C16.7409 12.7779 16.8343 13.2983 16.6035 13.7136L12.8742 20.4265C12.4932 21.1123 11.5068 21.1123 11.1258 20.4265L7.39646 13.7136C7.16571 13.2983 7.25908 12.7779 7.61982 12.4687L10.2191 10.2407Z" fill="currentColor"/>
<rect x="17" y="5" width="4" height="4" rx="2" fill="currentColor"/>
<rect x="3" y="5" width="4" height="4" rx="2" fill="currentColor"/>
</svg>
