<svg width="24" height="24" viewBox="0 0 24 24" fill="none" xmlns="http://www.w3.org/2000/svg">
<g clip-path="url(#clip0_1354_9304)"><path d="M18.0028 6H6.00013C5.01085 5.99986 4.03688 6.24433 3.16494 6.71166C2.293 7.17898 1.55013 7.85466 1.00249 8.67853C0.454844 9.5024 0.119409 10.4489 0.0260477 11.4338C-0.0673138 12.4186 0.0842949 13.4113 0.467377 14.3234C0.850458 15.2355 1.45313 16.0387 2.22172 16.6616C2.99032 17.2844 3.901 17.7075 4.87269 17.8933C5.84437 18.079 6.84691 18.0216 7.79105 17.7262C8.73519 17.4308 9.59163 16.9065 10.2841 16.2H13.7161C14.4085 16.9064 15.2649 17.4307 16.2089 17.7261C17.1529 18.0216 18.1553 18.079 19.1269 17.8934C20.0985 17.7078 21.0092 17.2848 21.7778 16.6622C22.5464 16.0395 23.1491 15.2365 23.5324 14.3246C23.9156 13.4127 24.0674 12.4202 23.9744 11.4354C23.8813 10.4506 23.5462 9.50412 22.9989 8.68017C22.4515 7.85621 21.709 7.18035 20.8373 6.71274C19.9657 6.24514 18.9919 6.00029 18.0028 6ZM9.30013 12.45C9.30013 12.5693 9.25272 12.6838 9.16833 12.7682C9.08393 12.8526 8.96948 12.9 8.85013 12.9H6.90013V14.85C6.90013 14.9693 6.85272 15.0838 6.76833 15.1682C6.68393 15.2526 6.56947 15.3 6.45013 15.3H5.55013C5.43078 15.3 5.31632 15.2526 5.23193 15.1682C5.14754 15.0838 5.10013 14.9693 5.10013 14.85V12.9H3.15013C3.03078 12.9 2.91632 12.8526 2.83193 12.7682C2.74754 12.6838 2.70013 12.5693 2.70013 12.45V11.55C2.70013 11.4307 2.74754 11.3162 2.83193 11.2318C2.91632 11.1474 3.03078 11.1 3.15013 11.1H5.10013V9.15C5.10013 9.03065 5.14754 8.91619 5.23193 8.8318C5.31632 8.74741 5.43078 8.7 5.55013 8.7H6.45013C6.56947 8.7 6.68393 8.74741 6.76833 8.8318C6.85272 8.91619 6.90013 9.03065 6.90013 9.15V11.1H8.85013C8.96948 11.1 9.08393 11.1474 9.16833 11.2318C9.25272 11.3162 9.30013 11.4307 9.30013 11.55V12.45ZM17.4001 15.3C17.1035 15.3 16.8134 15.212 16.5668 15.0472C16.3201 14.8824 16.1278 14.6481 16.0143 14.374C15.9008 14.0999 15.8711 13.7983 15.929 13.5074C15.9868 13.2164 16.1297 12.9491 16.3395 12.7393C16.5492 12.5296 16.8165 12.3867 17.1075 12.3288C17.3985 12.2709 17.7001 12.3006 17.9742 12.4142C18.2482 12.5277 18.4825 12.72 18.6473 12.9666C18.8122 13.2133 18.9001 13.5033 18.9001 13.8C18.9001 14.1978 18.7421 14.5794 18.4608 14.8607C18.1795 15.142 17.798 15.3 17.4001 15.3ZM19.8001 11.7C19.5035 11.7 19.2134 11.612 18.9668 11.4472C18.7201 11.2824 18.5278 11.0481 18.4143 10.774C18.3008 10.4999 18.2711 10.1983 18.329 9.90736C18.3868 9.61639 18.5297 9.34912 18.7395 9.13934C18.9492 8.92956 19.2165 8.7867 19.5075 8.72882C19.7985 8.67094 20.1001 8.70065 20.3742 8.81418C20.6482 8.92771 20.8825 9.11997 21.0473 9.36664C21.2122 9.61332 21.3001 9.90333 21.3001 10.2C21.3001 10.5978 21.1421 10.9794 20.8608 11.2607C20.5795 11.542 20.198 11.7 19.8001 11.7Z" fill="currentColor" /></g>
<defs><clipPath id="clip0_1354_9304"><rect width="24" height="24" fill="currentColor"/></clipPath></defs>
</svg>
