<svg width="24" height="24" viewBox="0 0 24 24" fill="none" xmlns="http://www.w3.org/2000/svg">
<g id="Frame" clip-path="url(#clip0_1723_3436)">
<path id="Vector" d="M22 20H2C0.895417 20 0 19.1046 0 18V6C0 4.89542 0.895417 4 2 4H22C23.1046 4 24 4.89542 24 6V18C24 19.1046 23.1046 20 22 20ZM5.33333 8.83333V7.16667C5.33333 6.89054 5.10946 6.66667 4.83333 6.66667H3.16667C2.89054 6.66667 2.66667 6.89054 2.66667 7.16667V8.83333C2.66667 9.10946 2.89054 9.33333 3.16667 9.33333H4.83333C5.10946 9.33333 5.33333 9.10946 5.33333 8.83333ZM9.33333 8.83333V7.16667C9.33333 6.89054 9.10946 6.66667 8.83333 6.66667H7.16667C6.89054 6.66667 6.66667 6.89054 6.66667 7.16667V8.83333C6.66667 9.10946 6.89054 9.33333 7.16667 9.33333H8.83333C9.10946 9.33333 9.33333 9.10946 9.33333 8.83333ZM13.3333 8.83333V7.16667C13.3333 6.89054 13.1095 6.66667 12.8333 6.66667H11.1667C10.8905 6.66667 10.6667 6.89054 10.6667 7.16667V8.83333C10.6667 9.10946 10.8905 9.33333 11.1667 9.33333H12.8333C13.1095 9.33333 13.3333 9.10946 13.3333 8.83333ZM17.3333 8.83333V7.16667C17.3333 6.89054 17.1095 6.66667 16.8333 6.66667H15.1667C14.8905 6.66667 14.6667 6.89054 14.6667 7.16667V8.83333C14.6667 9.10946 14.8905 9.33333 15.1667 9.33333H16.8333C17.1095 9.33333 17.3333 9.10946 17.3333 8.83333ZM21.3333 8.83333V7.16667C21.3333 6.89054 21.1095 6.66667 20.8333 6.66667H19.1667C18.8905 6.66667 18.6667 6.89054 18.6667 7.16667V8.83333C18.6667 9.10946 18.8905 9.33333 19.1667 9.33333H20.8333C21.1095 9.33333 21.3333 9.10946 21.3333 8.83333ZM7.33333 12.8333V11.1667C7.33333 10.8905 7.10946 10.6667 6.83333 10.6667H5.16667C4.89054 10.6667 4.66667 10.8905 4.66667 11.1667V12.8333C4.66667 13.1095 4.89054 13.3333 5.16667 13.3333H6.83333C7.10946 13.3333 7.33333 13.1095 7.33333 12.8333ZM11.3333 12.8333V11.1667C11.3333 10.8905 11.1095 10.6667 10.8333 10.6667H9.16667C8.89054 10.6667 8.66667 10.8905 8.66667 11.1667V12.8333C8.66667 13.1095 8.89054 13.3333 9.16667 13.3333H10.8333C11.1095 13.3333 11.3333 13.1095 11.3333 12.8333ZM15.3333 12.8333V11.1667C15.3333 10.8905 15.1095 10.6667 14.8333 10.6667H13.1667C12.8905 10.6667 12.6667 10.8905 12.6667 11.1667V12.8333C12.6667 13.1095 12.8905 13.3333 13.1667 13.3333H14.8333C15.1095 13.3333 15.3333 13.1095 15.3333 12.8333ZM19.3333 12.8333V11.1667C19.3333 10.8905 19.1095 10.6667 18.8333 10.6667H17.1667C16.8905 10.6667 16.6667 10.8905 16.6667 11.1667V12.8333C16.6667 13.1095 16.8905 13.3333 17.1667 13.3333H18.8333C19.1095 13.3333 19.3333 13.1095 19.3333 12.8333ZM5.33333 16.8333V15.1667C5.33333 14.8905 5.10946 14.6667 4.83333 14.6667H3.16667C2.89054 14.6667 2.66667 14.8905 2.66667 15.1667V16.8333C2.66667 17.1095 2.89054 17.3333 3.16667 17.3333H4.83333C5.10946 17.3333 5.33333 17.1095 5.33333 16.8333ZM17.3333 16.8333V15.1667C17.3333 14.8905 17.1095 14.6667 16.8333 14.6667H7.16667C6.89054 14.6667 6.66667 14.8905 6.66667 15.1667V16.8333C6.66667 17.1095 6.89054 17.3333 7.16667 17.3333H16.8333C17.1095 17.3333 17.3333 17.1095 17.3333 16.8333ZM21.3333 16.8333V15.1667C21.3333 14.8905 21.1095 14.6667 20.8333 14.6667H19.1667C18.8905 14.6667 18.6667 14.8905 18.6667 15.1667V16.8333C18.6667 17.1095 18.8905 17.3333 19.1667 17.3333H20.8333C21.1095 17.3333 21.3333 17.1095 21.3333 16.8333Z" fill="currentColor"/>
</g>
<defs>
<clipPath id="clip0_1723_3436">
<rect width="24" height="24" fill="currentColor"/>
</clipPath>
</defs>
</svg>
