<svg width="33" height="32" viewBox="0 0 33 32" fill="none" xmlns="http://www.w3.org/2000/svg">
<g id="Icons/System/List">
<path id="Union" fill-rule="evenodd" clip-rule="evenodd" d="M8.74996 5.33341H24.75C26.2227 5.33341 27.4166 6.52732 27.4166 8.00008V24.0001C27.4166 25.4728 26.2227 26.6667 24.75 26.6667H8.74996C7.2772 26.6667 6.08329 25.4728 6.08329 24.0001V8.00008C6.08329 6.52732 7.2772 5.33341 8.74996 5.33341ZM3.41663 8.00008C3.41663 5.05456 5.80444 2.66675 8.74996 2.66675H24.75C27.6955 2.66675 30.0833 5.05456 30.0833 8.00008V24.0001C30.0833 26.9456 27.6955 29.3334 24.75 29.3334H8.74996C5.80444 29.3334 3.41663 26.9456 3.41663 24.0001V8.00008ZM9.41663 9.33341C9.04844 9.33341 8.74996 9.63189 8.74996 10.0001V11.3334C8.74996 11.7016 9.04844 12.0001 9.41663 12.0001H10.75C11.1181 12.0001 11.4166 11.7016 11.4166 11.3334V10.0001C11.4166 9.63189 11.1181 9.33341 10.75 9.33341H9.41663ZM13.4166 9.33341C13.0484 9.33341 12.75 9.63189 12.75 10.0001V11.3334C12.75 11.7016 13.0484 12.0001 13.4166 12.0001H24.0833C24.4515 12.0001 24.75 11.7016 24.75 11.3334V10.0001C24.75 9.63189 24.4515 9.33341 24.0833 9.33341H13.4166ZM12.75 15.3334C12.75 14.9652 13.0484 14.6667 13.4166 14.6667H24.0833C24.4515 14.6667 24.75 14.9652 24.75 15.3334V16.6667C24.75 17.0349 24.4515 17.3334 24.0833 17.3334H13.4166C13.0484 17.3334 12.75 17.0349 12.75 16.6667V15.3334ZM9.41663 14.6667C9.04844 14.6667 8.74996 14.9652 8.74996 15.3334V16.6667C8.74996 17.0349 9.04844 17.3334 9.41663 17.3334H10.75C11.1181 17.3334 11.4166 17.0349 11.4166 16.6667V15.3334C11.4166 14.9652 11.1181 14.6667 10.75 14.6667H9.41663ZM12.75 20.6667C12.75 20.2986 13.0484 20.0001 13.4166 20.0001H24.0833C24.4515 20.0001 24.75 20.2986 24.75 20.6667V22.0001C24.75 22.3683 24.4515 22.6667 24.0833 22.6667H13.4166C13.0484 22.6667 12.75 22.3683 12.75 22.0001V20.6667ZM9.41663 20.0001C9.04844 20.0001 8.74996 20.2986 8.74996 20.6667V22.0001C8.74996 22.3683 9.04844 22.6667 9.41663 22.6667H10.75C11.1181 22.6667 11.4166 22.3683 11.4166 22.0001V20.6667C11.4166 20.2986 11.1181 20.0001 10.75 20.0001H9.41663Z" fill="currentColor"/>
</g>
</svg>
