<svg width="24" height="24" viewBox="0 0 24 24" fill="currentColor" xmlns="http://www.w3.org/2000/svg">
<path fill-rule="evenodd" clip-rule="evenodd" d="M12 2C8.6863 2 6.00001 4.68629 6.00001 8V9.1707C4.83481 9.58254 4 10.6938 4 12V19C4 20.6569 5.34315 22 7 22H17C18.6569 22 20 20.6569 20 19V12C20 10.6938 19.1652 9.58255 18 9.17071V8C18 4.68629 15.3137 2 12 2ZM15 9V8C15 6.34314 13.6569 5 12 5C10.3432 5 9.00001 6.34315 9.00001 8V9H15ZM14 14C14 14.7403 13.5978 15.3866 13 15.7324V18C13 18.5523 12.5523 19 12 19C11.4477 19 11 18.5523 11 18V15.7324C10.4022 15.3866 10 14.7403 10 14C10 12.8954 10.8954 12 12 12C13.1046 12 14 12.8954 14 14Z"/>
</svg>
