<svg viewBox="0 0 107 48" fill="none" xmlns="http://www.w3.org/2000/svg">
<path d="M81.1614 38.5623C70.6847 38.9887 41.0164 43.4014 36.3209 48C53.3018 44.9681 78.4925 44.3933 87.2844 46.2098C88.1916 45.1146 87.6412 44.5717 88.1878 43.856C90.2876 41.0946 88.462 38.2655 81.1614 38.5623Z" fill="currentColor"/>
<path d="M37.1417 35.0682C37.4253 36.6969 38.648 37.9593 40.8606 37.9931C47.0774 38.0889 54.0381 26.7314 55.0336 17.7032C55.289 15.387 54.7331 13.2849 53.0032 12.5805C52.6745 12.4471 52.4097 12.1766 52.2688 11.8478C51.773 10.6794 50.3305 9.79461 49.1134 9.77583C43.0074 9.6819 35.0907 21.7364 35.0907 30.2949C35.0907 31.9255 35.5339 32.876 36.1725 33.4471C36.6627 33.881 37.0328 34.4389 37.1417 35.0682ZM47.7968 17.025C50.2667 14.2091 51.2584 14.3632 50.385 18.3832C49.0176 24.6781 42.8308 33.3325 40.9958 33.3043C38.3456 33.2649 43.0337 22.454 47.7968 17.025Z" fill="currentColor"/>
<path d="M74.3961 11.6863C70.9458 15.6105 68.8065 20.8554 68.3952 25.7395C68.1867 28.2173 68.906 30.3626 70.1344 31.1553C70.8481 31.6174 71.5074 32.1584 72.1384 32.7314C75.215 35.5172 81.43 33.4283 83.9825 29.7502C85.4531 27.6312 85.1057 25.0219 83.0039 23.9775C78.3704 30.8566 73.3142 32.166 74.8656 24.8097C75.5211 21.7045 78.1375 15.0188 81.6216 11.5097C82.1587 10.9687 82.6922 11.0946 82.7466 11.9493C82.8443 13.4484 82.14 15.3626 81.2891 16.9593C81.9596 17.9174 82.9945 18.3457 84.0651 18.4264C87.1247 18.6556 89.9721 10.0276 85.6278 8.65813C85.2409 8.53602 84.9216 8.25988 84.7281 7.89732C84.3919 7.26802 83.7721 6.93928 82.3672 6.91674C79.8147 6.87729 76.9279 8.80653 74.3961 11.6863Z" fill="currentColor"/>
<path d="M40.16 1.36279C36.6327 -1.79312 33.637 0.658348 30.3163 8.99899C28.2315 14.2363 25.2676 21.2883 22.6813 30.2056C21.7948 24.0873 21.1262 17.8224 20.8369 13.9245C20.6153 10.9395 20.2415 8.54063 17.2777 8.54626C16.5546 8.54814 15.8709 8.30769 14.7402 8.09542C7.67815 20.2476 -5.82058 46.4511 2.76849 46.7084C4.56219 46.7629 5.3116 47.7811 6.4235 47.9201C6.7165 40.4548 11.3857 28.1749 15.4108 19.1693C15.7451 24.1098 16.194 29.4411 16.8889 34.1674C17.6195 39.1455 18.384 46.6145 22.4296 44.1518C23.3725 43.5788 24.1989 43.3403 25.0535 42.9833C24.9408 42.5438 25.0535 42.9833 25.0535 42.9833C28.1657 30.4893 36.9821 10.2144 43.3755 3.33336C42.7557 2.75854 41.3545 2.43167 40.16 1.36279Z" fill="currentColor"/>
<path d="M58.7806 33.9299C59.8211 34.1703 60.8579 34.5836 61.9078 35.3087C62.9803 24.6387 65.452 19.5799 69.0882 12.3757C66.0793 9.65938 64.7176 9.02444 61.4345 14.2411C58.7261 18.541 56.1718 25.33 56.0422 29.551C55.9802 31.546 56.9174 33.4997 58.7806 33.9299Z" fill="currentColor"/>
<path d="M70.7354 9.84722C72.7864 6.01316 74.937 4.45399 76.6875 2.82343C76.1522 2.3275 74.8788 2.10771 73.9059 1.12149C71.6764 -1.13837 69.3099 0.377595 68.1322 2.49281C66.8795 4.74704 66.9978 7.74892 70.7354 9.84722Z" fill="currentColor"/>
<path d="M102.487 23.6168C98.3921 29.6976 92.6617 32.4515 94.3483 24.449C94.5268 23.6055 94.8498 22.4991 95.295 21.2649C96.1026 22.469 97.1375 22.5855 98.2738 22.4784C104.108 21.9336 110.167 10.4108 105.111 8.29555C104.735 8.13776 104.404 7.89918 104.211 7.53663C103.877 6.90732 103.255 6.57858 101.85 6.55604C99.2975 6.51659 96.4106 8.44583 93.8788 11.3256C90.4285 15.2498 88.2892 20.4947 87.8779 25.3788C87.6694 27.8566 88.3888 30.0019 89.6171 30.7946C90.3308 31.2567 90.9901 31.7977 91.6212 32.3707C94.6977 35.1565 100.913 33.0676 103.465 29.3895C104.936 27.2705 104.588 24.6631 102.487 23.6168ZM102.443 11.5905C102.068 13.8165 99.0214 20.273 96.1777 19.0482C97.4004 16.2229 99.1134 13.1684 101.104 11.1509C102.023 10.221 102.584 10.7564 102.443 11.5905Z" fill="currentColor"/>
</svg>
