<svg width="24" height="24" viewBox="0 0 24 24" fill="currentColor" xmlns="http://www.w3.org/2000/svg">
  <path d="M14.1233 23.6667H9.87666C9.61058 23.6667 9.35248 23.5758 9.14517 23.409C8.93785 23.2422 8.79377 23.0096 8.73683 22.7497L8.262 20.5517C7.62857 20.2741 7.02794 19.927 6.47116 19.5168L4.328 20.1993C4.07432 20.2802 3.80061 20.2719 3.5523 20.1758C3.304 20.0796 3.09606 19.9015 2.963 19.6708L0.834997 15.9947C0.703334 15.7638 0.65391 15.4951 0.694813 15.2325C0.735717 14.97 0.864524 14.729 1.06016 14.5492L2.72266 13.0325C2.64706 12.3455 2.64706 11.6522 2.72266 10.9652L1.06016 9.452C0.864247 9.27206 0.735264 9.03092 0.694354 8.76808C0.653445 8.50523 0.703035 8.23629 0.834997 8.00533L2.95833 4.32683C3.09139 4.0962 3.29934 3.91802 3.54764 3.82188C3.79594 3.72574 4.06965 3.71743 4.32333 3.79833L6.4665 4.48083C6.75116 4.27083 7.0475 4.07483 7.35316 3.8975C7.64833 3.73183 7.95166 3.58133 8.262 3.44716L8.738 1.25149C8.79466 0.991559 8.93847 0.758797 9.14557 0.591802C9.35267 0.424806 9.61062 0.333608 9.87666 0.333328H14.1233C14.3894 0.333608 14.6473 0.424806 14.8544 0.591802C15.0615 0.758797 15.2053 0.991559 15.262 1.25149L15.7427 3.44833C16.3753 3.72747 16.9757 4.07445 17.5335 4.48316L19.6778 3.80066C19.9313 3.72006 20.2048 3.72853 20.4529 3.82465C20.7009 3.92077 20.9087 4.09878 21.0417 4.32916L23.165 8.00766C23.4357 8.4825 23.3423 9.08333 22.9398 9.45316L21.2773 10.9698C21.3529 11.6569 21.3529 12.3501 21.2773 13.0372L22.9398 14.5538C23.3423 14.9248 23.4357 15.5245 23.165 15.9993L21.0417 19.6778C20.9086 19.9085 20.7007 20.0866 20.4524 20.1828C20.2041 20.2789 19.9303 20.2872 19.6767 20.2063L17.5335 19.5238C16.9772 19.9337 16.3769 20.2804 15.7438 20.5575L15.262 22.7497C15.2051 23.0094 15.0612 23.2419 14.8541 23.4086C14.647 23.5754 14.3892 23.6664 14.1233 23.6667ZM11.9953 7.33333C10.7577 7.33333 9.57067 7.82499 8.6955 8.70016C7.82033 9.57533 7.32866 10.7623 7.32866 12C7.32866 13.2377 7.82033 14.4247 8.6955 15.2998C9.57067 16.175 10.7577 16.6667 11.9953 16.6667C13.233 16.6667 14.42 16.175 15.2952 15.2998C16.1703 14.4247 16.662 13.2377 16.662 12C16.662 10.7623 16.1703 9.57533 15.2952 8.70016C14.42 7.82499 13.233 7.33333 11.9953 7.33333Z"></path>
</svg>