<svg width="16" height="16" viewBox="0 0 16 16" fill="none" xmlns="http://www.w3.org/2000/svg">
<g id="Icon">
<path id="Union" fill-rule="evenodd" clip-rule="evenodd" d="M7.8196 2C6.71503 2 5.8196 2.89543 5.8196 4C5.8196 5.10457 6.71503 6 7.8196 6C8.92417 6 9.8196 5.10457 9.8196 4C9.8196 2.89543 8.92417 2 7.8196 2ZM7.18953 6.66667C6.95082 6.66667 6.71998 6.75206 6.53874 6.90741L5.10609 8.13539C4.74535 8.4446 4.65198 8.96495 4.88273 9.38029L6.94545 13.0932C7.32645 13.779 8.31276 13.779 8.69376 13.0932L10.7565 9.38029C10.9872 8.96495 10.8939 8.4446 10.5331 8.13539L9.10047 6.90741C8.91923 6.75206 8.68839 6.66667 8.44968 6.66667H7.18953Z" fill="currentColor"/>
</g>
</svg>
