<svg viewBox="0 0 24 24" fill="none" xmlns="http://www.w3.org/2000/svg">
<path d="M12.3389 18.659C12.1523 18.8456 11.8498 18.8456 11.6632 18.659L6.68204 13.6779C6.49545 13.4913 6.49545 13.1888 6.68204 13.0022L7.42055 12.2637C7.60714 12.0772 7.90965 12.0772 8.09624 12.2637L11.0011 15.1685L11.0011 6.5C11.0011 6.22386 11.2249 6 11.5011 6L12.5011 6C12.7772 6 13.0011 6.22386 13.0011 6.5L13.0011 15.1685L15.9059 12.2637C16.0925 12.0772 16.395 12.0772 16.5816 12.2637L17.3201 13.0022C17.5067 13.1888 17.5067 13.4913 17.3201 13.6779L12.3389 18.659Z" fill="currentColor"/>
</svg>
