<svg viewBox="0 0 24 24" fill="none" xmlns="http://www.w3.org/2000/svg">
<path d="M11.6632 6.13994C11.8498 5.95335 12.1523 5.95335 12.3389 6.13994L17.32 11.121C17.5066 11.3076 17.5066 11.6102 17.32 11.7967L16.5815 12.5352C16.395 12.7218 16.0924 12.7218 15.9058 12.5352L13.001 9.63047L13.001 18.299C13.001 18.5751 12.7772 18.799 12.501 18.799H11.501C11.2249 18.799 11.001 18.5751 11.001 18.299L11.001 9.63047L8.09623 12.5352C7.90964 12.7218 7.60712 12.7218 7.42053 12.5352L6.68203 11.7967C6.49544 11.6102 6.49544 11.3076 6.68203 11.121L11.6632 6.13994Z" fill="currentColor"/>
</svg>
