<svg viewBox="0 0 18 19" fill="none" xmlns="http://www.w3.org/2000/svg">
<path fill-rule="evenodd" clip-rule="evenodd" d="M9 9.78261C11.6359 9.78261 13.7727 7.5927 13.7727 4.89131C13.7727 2.18991 11.6359 0 9 0C6.3641 0 4.22727 2.18991 4.22727 4.89131C4.22727 7.5927 6.3641 9.78261 9 9.78261ZM0.25 16.1968C0.25 13.4043 2.15764 11.0574 4.74083 10.3882C5.93106 11.2924 7.40457 11.8273 8.99997 11.8273C10.5954 11.8273 12.0689 11.2924 13.2591 10.3882C15.8423 11.0574 17.75 13.4043 17.75 16.1968V16.349C17.75 17.4535 16.8546 18.349 15.75 18.349H2.25C1.14543 18.349 0.25 17.4535 0.25 16.349V16.1968Z" fill="currentColor"/>
</svg>
