<svg width="24" height="24" viewBox="0 0 24 24" fill="none" xmlns="http://www.w3.org/2000/svg">
<path d="M12 22C13.311 22 14.407 21.166 14.818 20H9.182C9.593 21.166 10.689 22 12 22ZM21 18V16C21 15.734 20.895 15.48 20.707 15.293L19 13.586V10C19 6.783 16.815 4.073 13.855 3.258C13.562 2.52 12.846 2 12 2C11.154 2 10.438 2.52 10.145 3.258C8.822 3.622 7.682 4.386 6.799 5.385L3.707 2.293L2.293 3.707L20.293 21.707L21.707 20.293L20.345 18.931C20.726 18.789 21 18.431 21 18ZM12 5C14.757 5 17 7.243 17 10V14C17 14.266 17.105 14.52 17.293 14.707L19 16.414V17H18.414L8.207 6.793C9.12 5.705 10.471 5 12 5ZM6.707 14.707C6.895 14.52 7 14.266 7 14V11.121L5.068 9.189C5.037 9.457 5 9.724 5 10V13.586L3.293 15.293C3.105 15.48 3 15.734 3 16V18C3 18.553 3.447 19 4 19H14.879L12.879 17H5V16.414L6.707 14.707Z" fill="currentColor"/>
</svg>
