<svg viewBox="0 0 24 24" fill="none" xmlns="http://www.w3.org/2000/svg">
<path d="M19.707 4.29297L18.293 5.70697C21.026 8.43997 21.026 13.06 18.293 15.793L19.707 17.207C23.207 13.707 23.207 7.79297 19.707 4.29297ZM15.293 8.70697C15.859 9.27297 16.172 9.99897 16.172 10.75C16.172 11.501 15.859 12.227 15.293 12.793L16.707 14.207C17.651 13.264 18.172 12.035 18.172 10.75C18.172 9.46497 17.651 8.23597 16.707 7.29297L15.293 8.70697ZM6.207 5.70697L4.793 4.29297C1.293 7.79297 1.293 13.707 4.793 17.207L6.207 15.793C3.474 13.06 3.474 8.43997 6.207 5.70697Z" fill="currentColor"/>
<path d="M7.293 7.29297C6.349 8.23597 5.828 9.46497 5.828 10.75C5.828 12.035 6.349 13.264 7.293 14.207L8.707 12.793C8.141 12.227 7.828 11.501 7.828 10.75C7.828 9.99897 8.141 9.27297 8.707 8.70697L7.293 7.29297ZM14 10.5C14 9.39597 13.104 8.49997 12 8.49997C10.896 8.49997 10 9.39597 10 10.5C9.999 11.195 10.355 11.808 10.895 12.166L10.002 22H13.998L13.105 12.165C13.645 11.807 14 11.195 14 10.5Z" fill="currentColor"/>
</svg>
