<svg viewBox="0 0 24 24" fill="none" xmlns="http://www.w3.org/2000/svg">
<g clip-path="url(#clip0_1715_4824)">
<path d="M21.9995 13.2852C21.9808 13.966 21.4051 14.5 20.724 14.5H18.5625V15.125C18.5625 15.9791 18.3718 16.7884 18.0312 17.5135L20.3839 19.8661C20.872 20.3543 20.872 21.1457 20.3839 21.6339C19.8957 22.1221 19.1042 22.122 18.6161 21.6339L16.4779 19.4958C15.5111 20.2799 14.2793 20.75 12.9375 20.75V11.2188C12.9375 10.9599 12.7276 10.75 12.4687 10.75H11.5312C11.2724 10.75 11.0625 10.9599 11.0625 11.2188V20.75C9.72064 20.75 8.4888 20.2799 7.52201 19.4958L5.38388 21.6339C4.89568 22.1221 4.10423 22.122 3.61607 21.6339C3.12795 21.1457 3.12795 20.3543 3.61607 19.8661L5.96873 17.5135C5.62818 16.7884 5.43748 15.9791 5.43748 15.125V14.5H3.27599C2.5949 14.5 2.01916 13.966 2.00048 13.2852C1.98107 12.5787 2.54795 12 3.24998 12H5.43748V9.70527L3.61607 7.88387C3.12795 7.3957 3.12795 6.60426 3.61607 6.11609C4.10427 5.62793 4.89568 5.62793 5.38388 6.11609L7.51775 8.25H16.4822L18.616 6.11613C19.1042 5.62797 19.8956 5.62797 20.3838 6.11613C20.872 6.6043 20.872 7.39574 20.3838 7.88391L18.5625 9.70527V12H20.75C21.452 12 22.0189 12.5787 21.9995 13.2852ZM12.039 2C9.62279 2 7.66404 3.95875 7.66404 6.375H16.414C16.414 3.95875 14.4553 2 12.039 2Z" fill="currentColor"/>
</g>
<defs>
<clipPath id="clip0_1715_4824">
<rect width="20" height="20" fill="white" transform="translate(2 2)"/>
</clipPath>
</defs>
</svg>
