<svg width="24" height="24" viewBox="0 0 24 24" fill="currentColor" xmlns="http://www.w3.org/2000/svg">
<path fill-rule="evenodd" clip-rule="evenodd" d="M9.83587 4.00594L10.1237 2.93186C10.2339 2.52036 10.4655 2.17317 10.7696 1.91846L2.99252 2.59886C1.89372 2.695 1.07831 3.66676 1.17445 4.76556L2.56894 20.7047C2.66507 21.8035 3.63684 22.6189 4.73564 22.5228L11.4869 21.9321L7.39678 20.8362C7.06438 20.7471 6.77395 20.5789 6.54032 20.3572L4.56133 20.5304L3.16675 4.59026L9.83587 4.00594Z" />
<path d="M10.1236 2.93194L5.98248 18.3868C5.697 19.4522 6.33128 20.5508 7.3967 20.8362L15.1241 22.9068C16.1895 23.1923 17.2881 22.558 17.5736 21.4926L21.7147 6.03777C22.0002 4.97235 21.3659 3.87376 20.3005 3.58828L12.5731 1.51773C11.5077 1.23225 10.4091 1.86652 10.1236 2.93194ZM15.6417 20.9749L7.91433 18.9044L12.0557 3.44861L19.7834 5.5182L15.6417 20.9749Z" />
</svg>
