<svg fill="none" height="16" viewBox="0 0 16 16" width="16" xmlns="http://www.w3.org/2000/svg" xmlns:xlink="http://www.w3.org/1999/xlink"><clipPath id="a"><path d="m0 0h16v16h-16z"/></clipPath><g clip-path="url(#a)" fill="currentColor"><path clip-rule="evenodd" d="m2.37924 12.6516-.92966-10.62609c-.06409-.73253.47951-1.380375 1.21205-1.444463l5.31304-.464831c.70488-.0616689 1.33134.439341 1.43474 1.129924l-1.03224-.276587c-.71028-.190318-1.44268.232527-1.63299.942807l-2.76074 10.30324c-.17299.6456.16061 1.3094.75617 1.5679l-.91591.0801c-.73253.0641-1.38038-.4795-1.44446-1.212z" fill-rule="evenodd"/><path d="m7.41084 2.57906-2.76074 10.30324c-.19031.7102.23254 1.4426.94281 1.633l5.15159 1.3803c.7103.1903 1.4427-.2325 1.633-.9428l2.7607-10.30319c.1904-.71028-.2325-1.44268-.9428-1.63299l-5.15157-1.38037c-.71027-.19032-1.44267.23253-1.63299.94281z"/></g></svg>