<svg width="16" height="16" viewBox="0 0 16 16" fill="currentColor" xmlns="http://www.w3.org/2000/svg">
<path id="Vector" d="M14.548 4.954C14.4867 4.86538 14.4048 4.79295 14.3093 4.74291C14.2139 4.69287 14.1078 4.66671 14 4.66667H4.88866L4.11933 2.82C4.01845 2.57682 3.84764 2.36906 3.62854 2.22308C3.40945 2.07709 3.15194 1.99945 2.88866 2H1.33333V3.33334H2.88866L6.05133 10.9233C6.10199 11.0448 6.18745 11.1485 6.29694 11.2215C6.40644 11.2944 6.53508 11.3333 6.66666 11.3333H12C12.278 11.3333 12.5267 11.1607 12.6247 10.9013L14.6247 5.568C14.6625 5.46708 14.6752 5.35851 14.6619 5.25157C14.6485 5.14463 14.6094 5.04253 14.548 4.954ZM11.538 10H7.11133L5.44466 6H13.038L11.538 10Z"/>
<path id="Vector_2" d="M7 14C7.55228 14 8 13.5523 8 13C8 12.4477 7.55228 12 7 12C6.44772 12 6 12.4477 6 13C6 13.5523 6.44772 14 7 14Z"/>
<path id="Vector_3" d="M11.6667 14C12.219 14 12.6667 13.5523 12.6667 13C12.6667 12.4477 12.219 12 11.6667 12C11.1144 12 10.6667 12.4477 10.6667 13C10.6667 13.5523 11.1144 14 11.6667 14Z"/>
</svg>
