<svg width="362" height="394" viewBox="0 0 362 394" fill="none" xmlns="http://www.w3.org/2000/svg"><ellipse cx="181" cy="197" rx="181" ry="197" fill="#36AACF"></ellipse><ellipse cx="196" cy="197" rx="166" ry="197" fill="#4AC7EE"></ellipse><ellipse cx="201" cy="197.5" rx="139" ry="164.5" fill="#2C9BBE"></ellipse><path d="M219.103 133.107C219.103 132.14 219.379 131.381 219.931 130.829C220.483 130.276 221.241 130 222.207 130H254.897C255.862 130 256.621 130.276 257.172 130.829C257.724 131.381 258 132.14 258 133.107V271.893C258 272.86 257.724 273.619 257.172 274.171C256.621 274.724 255.862 275 254.897 275H223.655C222 275 220.759 274.31 219.931 272.929L177.724 202.5C177.448 202.086 177.172 201.948 176.897 202.086C176.621 202.086 176.483 202.362 176.483 202.914L176.897 271.893C176.897 272.86 176.621 273.619 176.069 274.171C175.517 274.724 174.759 275 173.793 275H141.103C140.138 275 139.379 274.724 138.828 274.171C138.276 273.619 138 272.86 138 271.893V133.107C138 132.14 138.276 131.381 138.828 130.829C139.379 130.276 140.138 130 141.103 130H172.345C174 130 175.241 130.69 176.069 132.071L218.069 202.5C218.345 202.914 218.621 203.121 218.897 203.121C219.172 202.983 219.31 202.638 219.31 202.086L219.103 133.107Z" fill="#69DBFF"></path></svg>
