<svg xmlns="http://www.w3.org/2000/svg" width="20" height="20" viewBox="0 0 20 20" fill="currentColor">
<path d="M10.6538 18.3077C11.769 18.2199 12.8508 17.9089 13.8364 17.3978C14.4489 17.0802 14.5695 16.2893 14.1639 15.7311C13.7581 15.1726 12.9792 15.0638 12.3473 15.3419C11.6291 15.6579 10.835 15.8334 10 15.8334C6.77836 15.8334 4.16669 13.2217 4.16669 10C4.16669 6.77836 6.77836 4.16669 10 4.16669C10.835 4.16669 11.6291 4.34214 12.3473 4.65819C12.9792 4.93624 13.7581 4.82742 14.1639 4.26891C14.5695 3.71072 14.4489 2.91988 13.8364 2.60226C12.8508 2.09114 11.769 1.78015 10.6538 1.69238C9.12173 1.5718 7.58611 1.87725 6.21676 2.57497C4.84742 3.27269 3.69769 4.33549 2.89469 5.64587C2.09168 6.95625 1.66669 8.46317 1.66669 10C1.66669 11.5369 2.09168 13.0438 2.89469 14.3542C3.69769 15.6646 4.84742 16.7274 6.21677 17.4251C7.58611 18.1228 9.12173 18.4282 10.6538 18.3077Z" fill="white"/>
<path d="M15.7312 14.1639C15.1726 13.7581 15.0638 12.9792 15.3419 12.3473C15.6579 11.6291 15.8334 10.835 15.8334 10C15.8334 9.165 15.6579 8.37096 15.3419 7.65275C15.0638 7.02087 15.1726 6.2419 15.7312 5.83612C16.2894 5.43057 17.0802 5.55119 17.3978 6.16369C18.0097 7.34369 18.3334 8.65873 18.3334 10C18.3334 11.3413 18.0097 12.6564 17.3978 13.8364C17.0802 14.4489 16.2893 14.5695 15.7312 14.1639Z" fill="white"/>
<path d="M10.9355 8.71245L10 5.83335L9.06455 8.71245H6.03728L8.48639 10.4918L7.55092 13.3709L10 11.5915L12.4491 13.3709L11.5137 10.4918L13.9628 8.71245H10.9355Z" fill="white"/>
</svg>