<svg viewBox="0 0 24 24" fill="none" xmlns="http://www.w3.org/2000/svg">
<path fill-rule="evenodd" clip-rule="evenodd" d="M12 23C18.0751 23 23 18.0751 23 12C23 5.92487 18.0751 1 12 1C5.92487 1 1 5.92487 1 12C1 18.0751 5.92487 23 12 23ZM7.70711 11.7071C7.31658 11.3166 6.68342 11.3166 6.29289 11.7071L5.70711 12.2929C5.31658 12.6834 5.31658 13.3166 5.70711 13.7071L10 18L18.2929 9.70711C18.6834 9.31658 18.6834 8.68342 18.2929 8.29289L17.7071 7.70711C17.3166 7.31658 16.6834 7.31658 16.2929 7.70711L10 14L7.70711 11.7071Z" fill="currentColor"/>
</svg>
