<svg viewBox="0 0 24 24" fill="none" xmlns="http://www.w3.org/2000/svg">
<path d="M5.2929 4.70708C5.68342 4.31655 6.31658 4.31655 6.70711 4.70708L12 9.99997L17.2929 4.70708C17.6834 4.31655 18.3166 4.31655 18.7071 4.70708L19.2929 5.29287C19.6834 5.68339 19.6834 6.31655 19.2929 6.70708L14 12L19.2929 17.2929C19.6834 17.6834 19.6834 18.3166 19.2929 18.7071L18.7071 19.2929C18.3166 19.6834 17.6834 19.6834 17.2929 19.2929L12 14L6.70711 19.2929C6.31658 19.6834 5.68342 19.6834 5.29289 19.2929L4.70711 18.7071C4.31658 18.3166 4.31658 17.6834 4.70711 17.2929L10 12L4.70711 6.70708C4.31658 6.31655 4.31658 5.68339 4.70711 5.29286L5.2929 4.70708Z" fill="currentColor"/>
</svg>
