<svg width="24" height="24" viewBox="0 0 24 24" fill="none" xmlns="http://www.w3.org/2000/svg">
<path d="M20.5 4C20.7761 4 21 4.22386 21 4.5V19.5C21 19.7761 20.7761 20 20.5 20H19.5C19.2239 20 19 19.7761 19 19.5V4.5C19 4.22386 19.2239 4 19.5 4H20.5Z" fill="white"/>
<path d="M14.659 12.3368C14.8456 12.1502 14.8456 11.8477 14.659 11.6611L9.67793 6.67992C9.49135 6.49333 9.18883 6.49333 9.00224 6.67992L8.26375 7.41842C8.07716 7.60501 8.07716 7.90753 8.26375 8.09412L11.1685 10.9989H2.5C2.22386 10.9989 2 11.2228 2 11.4989V12.4989C2 12.7751 2.22386 12.9989 2.5 12.9989H11.1685L8.26374 15.9037C8.07716 16.0903 8.07716 16.3928 8.26374 16.5794L9.00224 17.3179C9.18883 17.5045 9.49135 17.5045 9.67793 17.3179L14.659 12.3368Z" fill="white"/>
</svg>
