<svg fill="none" viewBox="0 0 32 32"  xmlns="http://www.w3.org/2000/svg"><g fill="currentColor"><path clip-rule="evenodd" d="m13 7c-1.6569 0-3 1.34315-3 3v16c0 1.6569 1.3431 3 3 3h10c1.6569 0 3-1.3431 3-3v-16c0-1.65685-1.3431-3-3-3zm6.3472 9.1457-1.3472-4.1457-1.3472 4.1457-4.3591.0002 3.5265 2.5624-1.3469 4.1458 3.5267-2.5621 3.5267 2.5621-1.3469-4.1458 3.5265-2.5624z" fill-rule="evenodd"/><path d="m9 3c-1.65685 0-3 1.34315-3 3v16c0 1.3062.83481 2.4175 2 2.8293v-14.8293c0-2.76142 2.2386-5 5-5h8.8293c-.4118-1.16519-1.5231-2-2.8293-2z"/></g></svg>