<svg width="40" height="40" viewBox="0 0 40 40" fill="none" xmlns="http://www.w3.org/2000/svg">
<path fill-rule="evenodd" clip-rule="evenodd" d="M0.766856 6.09433C0.265815 6.89141 0 7.81376 0 8.75524V30C0 35.5228 4.47715 40 10 40H30C35.5228 40 40 35.5229 40 30V8.75525C40 7.81377 39.7342 6.89141 39.2331 6.09433L36.8726 2.33908C35.9576 0.883416 34.3588 0 32.6395 0H7.36052C5.64115 0 4.04239 0.883415 3.12738 2.33908L0.766856 6.09433ZM9.5 11C8.67157 11 8 11.6716 8 12.5C8 13.3284 8.67157 14 9.5 14H30.5C31.3284 14 32 13.3284 32 12.5C32 11.6716 31.3284 11 30.5 11H9.5Z" fill="white"/>
<path fill-rule="evenodd" clip-rule="evenodd" d="M0.766856 6.09433C0.265815 6.89141 0 7.81376 0 8.75524V14C0 19.5228 4.47715 24 10 24H30C35.5228 24 40 19.5229 40 14V8.75525C40 7.81377 39.7342 6.89141 39.2331 6.09433L36.8726 2.33908C35.9576 0.883416 34.3588 0 32.6395 0H7.36052C5.64115 0 4.04239 0.883415 3.12738 2.33908L0.766856 6.09433ZM9.5 11C8.67157 11 8 11.6716 8 12.5C8 13.3284 8.67157 14 9.5 14H30.5C31.3284 14 32 13.3284 32 12.5C32 11.6716 31.3284 11 30.5 11H9.5Z" fill="white" fill-opacity="0.2"/>
<path d="M14 23C14 20.7909 15.7909 19 18 19H22C24.2091 19 26 20.7909 26 23V40H14V23Z" fill="url(#paint0_linear_1634_20348)"/>
<path d="M16 24C16 23.4477 16.4477 23 17 23H23C23.5523 23 24 23.4477 24 24V24C24 24.5523 23.5523 25 23 25H17C16.4477 25 16 24.5523 16 24V24Z" fill="white"/>
<path d="M6 33C6 32.4477 6.44772 32 7 32H10C10.5523 32 11 32.4477 11 33V33C11 33.5523 10.5523 34 10 34H7C6.44772 34 6 33.5523 6 33V33Z" fill="#CECECE"/>
<path d="M5.0908 1.8876C5.46203 1.33293 6.08547 1 6.7529 1H33.2469C33.9144 1 34.5378 1.33293 34.909 1.8876L36.9169 4.8876C37.8062 6.21647 36.8538 8 35.2548 8H4.74507C3.14605 8 2.1936 6.21647 3.08298 4.8876L5.0908 1.8876Z" fill="#CECECE"/>
<defs>
<linearGradient id="paint0_linear_1634_20348" x1="20" y1="19" x2="20" y2="40" gradientUnits="userSpaceOnUse">
<stop stop-color="#D6D6D6"/>
<stop offset="1" stop-color="white"/>
</linearGradient>
</defs>
</svg>
