<svg width="80" height="80" viewBox="0 0 80 80" fill="none" xmlns="http://www.w3.org/2000/svg">
<g id="bx-confused">
<path id="Vector" d="M39.9993 6.66675C21.6193 6.66675 6.66602 21.6201 6.66602 40.0001C6.66602 58.3801 21.6193 73.3334 39.9993 73.3334C58.3793 73.3334 73.3327 58.3801 73.3327 40.0001C73.3327 21.6201 58.3793 6.66675 39.9993 6.66675ZM39.9993 66.6667C25.296 66.6667 13.3327 54.7034 13.3327 40.0001C13.3327 25.2967 25.296 13.3334 39.9993 13.3334C54.7027 13.3334 66.666 25.2967 66.666 40.0001C66.666 54.7034 54.7027 66.6667 39.9993 66.6667Z" fill="currentColor"/>
<path id="Vector_2" d="M28.334 40C31.0954 40 33.334 37.7614 33.334 35C33.334 32.2386 31.0954 30 28.334 30C25.5726 30 23.334 32.2386 23.334 35C23.334 37.7614 25.5726 40 28.334 40Z" fill="currentColor"/>
<path id="Vector_3" d="M51.6427 39.9533C54.3912 39.9533 56.6193 37.7252 56.6193 34.9767C56.6193 32.2281 54.3912 30 51.6427 30C48.8941 30 46.666 32.2281 46.666 34.9767C46.666 37.7252 48.8941 39.9533 51.6427 39.9533Z" fill="currentColor"/>
<path id="Vector_4" d="M27.0806 56.64L26.2539 50.0267L52.9206 46.6934L53.7472 53.3067L27.0806 56.64Z" fill="currentColor"/>
</g>
</svg>
