<svg viewBox="0 0 24 24" fill="none" xmlns="http://www.w3.org/2000/svg">
<path fill-rule="evenodd" clip-rule="evenodd" d="M10 5C8.34315 5 7 6.34315 7 8V20C7 21.6569 8.34315 23 10 23H18C19.6569 23 21 21.6569 21 20V8C21 6.34315 19.6569 5 18 5H10ZM10 7C9.44772 7 9 7.44772 9 8V20C9 20.5523 9.44772 21 10 21H18C18.5523 21 19 20.5523 19 20V8C19 7.44772 18.5523 7 18 7H10Z" fill="currentColor"/>
<path d="M3 3C3 1.89543 3.89543 1 5 1H14C15.1046 1 16 1.89543 16 3H6C5.44772 3 5 3.44772 5 4V18C3.89543 18 3 17.1046 3 16V3Z" fill="currentColor"/>
</svg>
