<svg width="24" height="24" viewBox="0 0 24 24" fill="none" xmlns="http://www.w3.org/2000/svg">
<g clip-path="url(#clip0_1376_48763)">
<path fill-rule="evenodd" clip-rule="evenodd" d="M10.5859 1.00009C11.3669 0.219045 12.6332 0.219044 13.4143 1.00009L15.4143 3.00012H19.0001C20.1047 3.00012 21.0001 3.89555 21.0001 5.00012V8.5859L23.0001 10.5859C23.7811 11.3669 23.7811 12.6332 23.0001 13.4143L21.0001 15.4143V19.0001C21.0001 20.1047 20.1047 21.0001 19.0001 21.0001H15.4143L13.4143 23.0001C12.6332 23.7811 11.3669 23.7811 10.5859 23.0001L8.58591 21.0001H5.00012C3.89555 21.0001 3.00012 20.1047 3.00012 19.0001V15.4143L1.00009 13.4143C0.219045 12.6332 0.219044 11.3669 1.00009 10.5859L3.00012 8.58585V5.00012C3.00012 3.89555 3.89555 3.00012 5.00012 3.00012H8.58585L10.5859 1.00009Z" fill="#0C0032"/>
<path fill-rule="evenodd" clip-rule="evenodd" d="M11.2928 1.70696C11.6833 1.31643 12.3165 1.31643 12.707 1.70696L22.2928 11.2928C22.6833 11.6833 22.6833 12.3165 22.2928 12.707L12.707 22.2928C12.3165 22.6833 11.6833 22.6833 11.2928 22.2928L1.70696 12.707C1.31643 12.3165 1.31643 11.6833 1.70696 11.2928L11.2928 1.70696ZM7.58561 3.99988H4.99988C4.4476 3.99988 3.99988 4.4476 3.99988 4.99988V7.58561L7.58561 3.99988ZM3.99988 16.4141V18.9999C3.99988 19.5522 4.4476 19.9999 4.99988 19.9999H7.58567L3.99988 16.4141ZM16.4141 19.9999H18.9999C19.5522 19.9999 19.9999 19.5522 19.9999 18.9999V16.4141L16.4141 19.9999ZM19.9999 7.58567V4.99988C19.9999 4.4476 19.5522 3.99988 18.9999 3.99988H16.4141L19.9999 7.58567ZM17.9999 11.9999L11.9999 5.99988L5.99988 11.9999H9.99988V17H13.9999V11.9999H17.9999Z" fill="#00EAE8"/>
</g>
<defs>
<clipPath id="clip0_1376_48763">
<rect width="24" height="24" fill="white"/>
</clipPath>
</defs>
</svg>
