<svg fill="none" viewBox="0 0 32 32" xmlns="http://www.w3.org/2000/svg"><g fill="currentColor"><path d="m16.8232 14.1768 6.1768-6.1768v-1.29844c0-.45414.1546-.89476.4383-1.24939l3.5617-4.45217.8462 2.53846-1.8462 2.46154 2.4615-1.84615 2.5385.84615-4.4522 3.56174c-.3546.2837-.7952.43826-1.2494.43826h-1.2984l-6.1768 6.1768c.1136.251.1768.5297.1768.8232 0 1.1046-.8954 2-2 2s-2-.8954-2-2 .8954-2 2-2c.2935 0 .5722.0632.8232.1768z"/><path d="m20 16c0-.1764-.0114-.3501-.0335-.5204l.9292-.5004c.0684.3296.1043.671.1043 1.0208 0 2.7614-2.2386 5-5 5s-5-2.2386-5-5 2.2386-5 5-5c.3498 0 .6912.0359 1.0208.1043l-.5004.9292c-.1703-.0221-.344-.0335-.5204-.0335-2.2091 0-4 1.7909-4 4s1.7909 4 4 4 4-1.7909 4-4z"/><path d="m23 16c0-.6943-.1011-1.3649-.2893-1.9981l.8971-.483c.2546.7811.3922 1.615.3922 2.4811 0 4.4183-3.5817 8-8 8s-8-3.5817-8-8 3.5817-8 8-8c.8661 0 1.7.13763 2.4811.3922l-.483.8971c-.6332-.18823-1.3038-.2893-1.9981-.2893-3.866 0-7 3.134-7 7s3.134 7 7 7 7-3.134 7-7z"/><path d="m26 16c0-1.2094-.2147-2.3687-.6081-3.4418l1.7764-.9565c.5368 1.3619.8317 2.8457.8317 4.3983 0 6.6274-5.3726 12-12 12-6.62742 0-12-5.3726-12-12 0-6.62742 5.37258-12 12-12 1.5526 0 3.0364.29487 4.3983.83166l-.9565 1.77641c-1.0731-.39337-2.2324-.60807-3.4418-.60807-5.5228 0-10 4.4772-10 10s4.4772 10 10 10 10-4.4772 10-10z"/></g></svg>