<svg width="96" height="96" viewBox="0 0 96 96" fill="none" xmlns="http://www.w3.org/2000/svg">
<path fill-rule="evenodd" clip-rule="evenodd" d="M56.9144 46.7537C56.9708 47.1611 57 47.5771 57 48C57 52.9706 52.9706 57 48 57C43.0294 57 39 52.9706 39 48C39 43.0294 43.0294 39 48 39C48.4228 39 48.8388 39.0292 49.2462 39.0856L50.2456 37.2294C49.5207 37.079 48.7696 37 48 37C41.9249 37 37 41.9249 37 48C37 54.0751 41.9249 59 48 59C54.0751 59 59 54.0751 59 48C59 47.2304 58.921 46.4792 58.7706 45.7542L56.9144 46.7537ZM43.5999 48C43.5999 45.5699 45.5699 43.6 47.9999 43.6C50.43 43.6 52.3999 45.5699 52.3999 48C52.3999 50.43 50.43 52.4 47.9999 52.4C45.5699 52.4 43.5999 50.43 43.5999 48Z" fill="white"/>
<path fill-rule="evenodd" clip-rule="evenodd" d="M62.3727 43.6935C62.7808 45.0575 63.0001 46.5032 63.0001 48C63.0001 56.2843 56.2843 63 48.0001 63C39.7158 63 33.0001 56.2843 33.0001 48C33.0001 39.7157 39.7158 33 48.0001 33C49.4968 33 50.9424 33.2192 52.3063 33.6273L53.2723 31.8334C51.6125 31.2924 49.8404 31 48.0001 31C38.6112 31 31.0001 38.6112 31.0001 48C31.0001 57.3888 38.6112 65 48.0001 65C57.3889 65 65.0001 57.3888 65.0001 48C65.0001 46.1595 64.7076 44.3874 64.1666 42.7275L62.3727 43.6935Z" fill="white"/>
<path fill-rule="evenodd" clip-rule="evenodd" d="M67.7014 40.7135C68.5412 42.9834 69 45.4381 69 48C69 59.598 59.598 69 48 69C36.402 69 27 59.598 27 48C27 36.402 36.402 27 48 27C50.5604 27 53.0138 27.4582 55.2826 28.2971L56.2396 26.5199C53.6816 25.5381 50.9036 25 48 25C35.2975 25 25 35.2975 25 48C25 60.7025 35.2975 71 48 71C60.7025 71 71 60.7025 71 48C71 45.0949 70.4614 42.3156 69.4786 39.7565L67.7014 40.7135Z" fill="white"/>
<path fill-rule="evenodd" clip-rule="evenodd" d="M62.4203 30.5761L48.8442 44.1521L50.7837 46.0916L64.3597 32.5155H67.5371C67.9912 32.5155 68.4318 32.3609 68.7864 32.0772L77.9358 24.7578L73.0126 23.1167L68.2386 26.6972L71.8191 21.9232L70.1781 17L62.8586 26.1494C62.5749 26.504 62.4203 26.9446 62.4203 27.3988V30.5761Z" fill="white"/>
</svg>
