<svg width="100" height="100" viewBox="0 0 100 100" fill="none" xmlns="http://www.w3.org/2000/svg">
<path d="M45.4167 33.5416H54.1667C55.3472 33.5416 56.3368 33.9409 57.1354 34.7395C57.9341 35.5381 58.3334 36.5277 58.3334 37.7083V46.4583L45.4167 33.5416ZM58.3334 46.4583L69.8959 37.2916C70.9375 36.5277 72.0486 36.4235 73.2292 36.9791C74.4098 37.5346 75 38.4721 75 39.7916V63.1249L58.3334 46.4583ZM90.625 78.7499C90.9723 78.1249 91.2327 77.4999 91.4063 76.8749C91.5799 76.2499 91.6667 75.6249 91.6667 74.9999V24.9999C91.6667 22.7083 90.8507 20.7464 89.2188 19.1145C87.5868 17.4826 85.625 16.6666 83.3334 16.6666H28.5417L36.875 24.9999H83.3334V71.4583L90.625 78.7499ZM16.6667 16.6666L25 24.9999H16.6667V74.9999H63.125L54.7917 66.6666H29.1667C27.9861 66.6666 26.9966 66.2673 26.1979 65.4687C25.3993 64.6701 25 63.6805 25 62.4999V36.8749L5.83336 17.4999C5.06947 16.736 4.67017 15.7812 4.63545 14.6353C4.60072 13.4895 5.00003 12.4999 5.83336 11.6666C6.59725 10.9027 7.56947 10.5208 8.75003 10.5208C9.93058 10.5208 10.9028 10.9027 11.6667 11.6666L88.3334 88.3333C89.0973 89.0971 89.4966 90.052 89.5313 91.1978C89.566 92.3437 89.1667 93.3333 88.3334 94.1666C87.5695 94.9305 86.5973 95.3124 85.4167 95.3124C84.2361 95.3124 83.2639 94.9305 82.5 94.1666L71.4584 83.3333H16.6667C14.375 83.3333 12.4132 82.5173 10.7813 80.8853C9.14933 79.2534 8.33336 77.2916 8.33336 74.9999V24.9999C8.33336 22.7083 9.14933 20.7464 10.7813 19.1145C12.4132 17.4826 14.375 16.6666 16.6667 16.6666Z" fill="currentColor"/>
</svg> 