<svg width="21" height="16" viewBox="0 0 21 16" fill="none" xmlns="http://www.w3.org/2000/svg">
<path d="M13.82 0.26001C13.6214 0.615697 13.4444 0.983029 13.29 1.36001C11.7728 1.12006 10.2272 1.12006 8.71001 1.36001C8.5556 0.983029 8.37861 0.615697 8.18001 0.26001C6.7508 0.504211 5.36141 0.941547 4.05001 1.56001C1.70495 4.9443 0.641446 9.05296 1.05001 13.15C2.57825 14.2989 4.29347 15.1751 6.12001 15.74C6.53592 15.1906 6.90711 14.6087 7.23001 14C6.63408 13.7803 6.06131 13.5023 5.52001 13.17C5.66847 13.0712 5.80891 12.9609 5.94001 12.84C7.51847 13.6003 9.24798 13.9952 11 13.9952C12.752 13.9952 14.4815 13.6003 16.06 12.84C16.2 12.96 16.34 13.07 16.48 13.17C15.9358 13.4997 15.3636 13.7807 14.77 14.01C15.0795 14.6325 15.4408 15.228 15.85 15.79C17.6743 15.227 19.3865 14.3506 20.91 13.2C21.3284 9.10221 20.264 4.99019 17.91 1.61001C16.6133 0.978747 15.2377 0.52468 13.82 0.26001ZM7.68001 10.81C7.17959 10.7741 6.71255 10.5457 6.37693 10.1728C6.04131 9.79987 5.8632 9.31143 5.88001 8.81001C5.86067 8.30793 6.0379 7.81809 6.37402 7.44462C6.71015 7.07115 7.17867 6.84348 7.68001 6.81001C8.18135 6.84348 8.64987 7.07115 8.986 7.44462C9.32212 7.81809 9.49935 8.30793 9.48001 8.81001C9.49935 9.31209 9.32212 9.80193 8.986 10.1754C8.64987 10.5489 8.18135 10.7765 7.68001 10.81ZM14.32 10.81C13.8196 10.7741 13.3526 10.5457 13.0169 10.1728C12.6813 9.79987 12.5032 9.31143 12.52 8.81001C12.5007 8.30793 12.6779 7.81809 13.014 7.44462C13.3501 7.07115 13.8187 6.84348 14.32 6.81001C14.8223 6.84098 15.2923 7.06791 15.629 7.44196C15.9656 7.816 16.1419 8.30726 16.12 8.81001C16.1419 9.31276 15.9656 9.80402 15.629 10.1781C15.2923 10.5521 14.8223 10.779 14.32 10.81Z" fill="currentColor" />
</svg>
