<svg fill="currentColor" stroke="currentColor" viewBox="0 0 32 32" xmlns="http://www.w3.org/2000/svg">
  <path d="m4.582 13.543.555 1.113-.557-1.113a1.867 1.867 0 0 0-1.03 1.672v3.564c0 .989.394 1.934 1.093 2.636l1.617 1.614 1.417 2.836c3.199 6.396 12.128 6.933 16.069.962.204-.309.389-.631.558-.962l1.415-2.836 1.617-1.614a3.735 3.735 0 0 0 1.092-2.636v-3.564c0-.709-.399-1.354-1.032-1.67l-1.455-.729V8.999A7.49 7.49 0 0 0 21.4 2.111a13.735 13.735 0 0 0-10.822 0 7.49 7.49 0 0 0-4.54 6.888v3.817l-1.456.727Z" fill="none" stroke-width="2"/>
  <path d="m10.391 12.963 3.731 3.731m-3.731 0 3.731-3.731" stroke-linecap="round" fill="none"/>
  <path d="m17.233 14.829 1.865 1.865 3.111-3.731" stroke-linecap="round" stroke-linejoin="round" fill="none"/>
  <path d="M12.257 22.916c0-.345.282-.622.622-.622h6.219a.62.62 0 1 1 0 1.242h-6.219a.624.624 0 0 1-.622-.62ZM24.697 13.588h1.244l-1.244 4.972v-4.972Zm-18.659 0h1.243v4.972l-1.243-4.972Z" stroke="none"/>
</svg>