<svg width="16" height="16" viewBox="0 0 16 16" fill="none" xmlns="http://www.w3.org/2000/svg">
<path d="M7.33333 6.66663H6V8.66663H4V9.99996H6V12H7.33333V9.99996H9.33333V8.66663H7.33333V6.66663Z" fill="currentColor" />
<path d="M2.66659 14.6667H10.6666C11.4019 14.6667 11.9999 14.0687 11.9999 13.3333V5.33333C11.9999 4.598 11.4019 4 10.6666 4H2.66659C1.93125 4 1.33325 4.598 1.33325 5.33333V13.3333C1.33325 14.0687 1.93125 14.6667 2.66659 14.6667ZM2.66659 5.33333H10.6666L10.6679 13.3333H2.66659V5.33333Z" fill="currentColor" />
<path d="M13.3333 1.33337H5.33325V2.66671H13.3333V10.6667H14.6666V2.66671C14.6666 1.93137 14.0686 1.33337 13.3333 1.33337Z" fill="currentColor" />
</svg>
