<svg width="24" height="24" viewBox="0 0 24 24" fill="currentColor" xmlns="http://www.w3.org/2000/svg">
<g id="Emoji / undefined / Glyph: ">
<path id="Vector" d="M11.9999 1.99902C17.5236 1.99902 22.0015 6.47687 22.0015 12.0006C22.0015 17.5243 17.5236 22.0021 11.9999 22.0021C6.47626 22.0021 1.99841 17.5243 1.99841 12.0006C1.99841 6.47687 6.47626 1.99902 11.9999 1.99902ZM11.9999 3.49902C7.30469 3.49902 3.49841 7.3053 3.49841 12.0006C3.49841 16.6959 7.30469 20.5021 11.9999 20.5021C16.6952 20.5021 20.5015 16.6959 20.5015 12.0006C20.5015 7.3053 16.6952 3.49902 11.9999 3.49902ZM8.4617 14.7839C9.31084 15.8616 10.6018 16.5021 11.9999 16.5021C13.3961 16.5021 14.6856 15.8633 15.5349 14.7881C15.7916 14.463 16.2632 14.4076 16.5883 14.6644C16.9133 14.9211 16.9687 15.3927 16.712 15.7178C15.5812 17.1495 13.8601 18.0021 11.9999 18.0021C10.1373 18.0021 8.41408 17.1472 7.28348 15.7122C7.02713 15.3869 7.08307 14.9153 7.40843 14.6589C7.73379 14.4026 8.20536 14.4585 8.4617 14.7839ZM9.00041 8.75121C9.69038 8.75121 10.2497 9.31054 10.2497 10.0005C10.2497 10.6905 9.69038 11.2498 9.00041 11.2498C8.31045 11.2498 7.75112 10.6905 7.75112 10.0005C7.75112 9.31054 8.31045 8.75121 9.00041 8.75121ZM15.0004 8.75121C15.6903 8.75121 16.2497 9.31054 16.2497 10.0005C16.2497 10.6905 15.6903 11.2498 15.0004 11.2498C14.3104 11.2498 13.7511 10.6905 13.7511 10.0005C13.7511 9.31054 14.3104 8.75121 15.0004 8.75121Z" fill="currentColor"/>
</g>
</svg>
