<svg viewBox="0 0 24 24" fill="none" xmlns="http://www.w3.org/2000/svg">
<path fill-rule="evenodd" clip-rule="evenodd" d="M23 12C23 18.0751 18.0751 23 12 23C5.92487 23 1 18.0751 1 12C1 5.92487 5.92487 1 12 1C18.0751 1 23 5.92487 23 12ZM10.5 16.5C10.5 16.2239 10.7239 16 11 16H13C13.2761 16 13.5 16.2239 13.5 16.5V18.5C13.5 18.7761 13.2761 19 13 19H11C10.7239 19 10.5 18.7761 10.5 18.5V16.5ZM11 5C10.7239 5 10.5 5.22386 10.5 5.5V14C10.5 14.2761 10.7239 14.5 11 14.5H13C13.2761 14.5 13.5 14.2761 13.5 14V5.5C13.5 5.22386 13.2761 5 13 5H11Z" fill="currentColor"/>
</svg>
