<svg viewBox="0 0 24 24" fill="currentColor" xmlns="http://www.w3.org/2000/svg">
  <path fill-rule="evenodd" clip-rule="evenodd" d="M 3 4 C 2.724 4 2.5 4.224 2.5 4.5 L 2.5 19.5 C 2.5 19.776 2.724 20 3 20 L 4 20 C 4.276 20 4.5 19.776 4.5 19.5 L 4.5 4.5 C 4.5 4.224 4.276 4 4 4 L 3 4 Z M 8.841 12.337 C 8.654 12.15 8.654 11.848 8.841 11.661 L 13.822 6.68 C 14.009 6.493 14.311 6.493 14.498 6.68 L 15.236 7.418 C 15.423 7.605 15.423 7.908 15.236 8.094 L 12.331 10.999 L 21 10.999 C 21.276 10.999 21.5 11.223 21.5 11.499 L 21.5 12.499 C 21.5 12.775 21.276 12.999 21 12.999 L 12.331 12.999 L 15.236 15.904 C 15.423 16.09 15.423 16.393 15.236 16.579 L 14.498 17.318 C 14.311 17.505 14.009 17.505 13.822 17.318 L 8.841 12.337 Z"/>
</svg>