<svg fill="currentColor" xmlns="http://www.w3.org/2000/svg" viewBox="0 0 18 22">
  <path d="M14.391 7.707c-.783-1.064-2.116-1.373-3.209-.82-.608-.675-1.454-.967-2.274-.844V2.879C8.908 1.29 7.713 0 6.245 0 4.776 0 3.582 1.291 3.582 2.879v6.923a2.49 2.49 0 0 0-2.495.382c-1.18.936-1.438 2.721-.584 4.002l4.407 6.617c.5.75 1.307 1.197 2.161 1.197h7.164c1.237 0 2.313-.924 2.593-2.226l1.103-5.113c.046-.214.069-.433.069-.653v-3.61c0-2.012-1.873-3.406-3.609-2.691ZM3.254 12.018l1.09 1.636c.361.543 1.166.27 1.166-.398V2.879a.738.738 0 0 1 1.47 0v7.52c0 .38.287.687.642.687h.276c.355 0 .643-.308.643-.688V8.895a.738.738 0 0 1 1.47 0v1.503c0 .38.287.688.642.688h.276c.355 0 .642-.308.642-.688v-.902a.738.738 0 0 1 1.47 0v.902c0 .38.288.688.643.688h.275c.355 0 .643-.308.643-.688a.738.738 0 0 1 1.47 0v3.61a.905.905 0 0 1-.02.19l-1.103 5.113c-.08.369-.373.627-.714.627H7.07a.716.716 0 0 1-.59-.331L2.073 12.99c-.579-.87.602-1.84 1.18-.972Z" />
</svg>
