<svg viewBox="0 0 24 24" fill="none" xmlns="http://www.w3.org/2000/svg">
<path d="M9 6C9 4.34315 10.3431 3 12 3C13.6569 3 15 4.34315 15 6C15 7.65685 13.6569 9 12 9C10.3431 9 9 7.65685 9 6Z" fill="currentColor"/>
<path d="M7.6428 11.0952L6.25184 10.1679C6.08757 10.0584 5.89457 10 5.69715 10H4.30269C4.10527 10 3.91226 10.0584 3.74799 10.1679L1.73444 11.5103C1.31482 11.7901 1.16917 12.3385 1.39472 12.7896L4.1056 18.2112C4.47413 18.9482 5.52593 18.9482 5.89445 18.2112L7.12498 15.7501L6.12835 14.0635C5.76332 13.4458 5.8869 12.656 6.4232 12.1793L7.6428 11.0952Z" fill="currentColor"/>
<path d="M16.875 15.7499L18.1056 18.2111C18.4741 18.9482 19.5259 18.9482 19.8945 18.2111L22.6053 12.7896C22.8308 12.3385 22.6851 11.7901 22.2655 11.5103L20.252 10.1679C20.0877 10.0584 19.8947 10 19.6973 10H18.3028C18.1054 10 17.9124 10.0584 17.7481 10.1679L16.3571 11.0953L17.5766 12.1793C18.1129 12.656 18.2365 13.4458 17.8715 14.0635L16.875 15.7499Z" fill="currentColor"/>
<path d="M10.8699 10C10.6312 10 10.4004 10.0854 10.2191 10.2407L7.61982 12.4687C7.25908 12.7779 7.16571 13.2983 7.39646 13.7136L11.1258 20.4265C11.5068 21.1123 12.4932 21.1123 12.8742 20.4265L16.6035 13.7136C16.8343 13.2983 16.7409 12.7779 16.3802 12.4687L13.7809 10.2407C13.5996 10.0854 13.3688 10 13.1301 10H10.8699Z" fill="currentColor"/>
<path d="M17 7C17 5.89543 17.8954 5 19 5C20.1046 5 21 5.89543 21 7C21 8.10457 20.1046 9 19 9C17.8954 9 17 8.10457 17 7Z" fill="currentColor"/>
<path d="M5 5C3.89543 5 3 5.89543 3 7C3 8.10457 3.89543 9 5 9C6.10457 9 7 8.10457 7 7C7 5.89543 6.10457 5 5 5Z" fill="currentColor"/>
</svg>
