<svg viewBox="0 0 24 24" fill="none" xmlns="http://www.w3.org/2000/svg">
<path d="M12 5.5C12 5.22386 12.2239 5 12.5 5H21.5C21.7761 5 22 5.22386 22 5.5V6.5C22 6.77614 21.7761 7 21.5 7H12.5C12.2239 7 12 6.77614 12 6.5V5.5Z" fill="currentColor"/>
<path d="M14 11.5C14 11.2239 14.2239 11 14.5 11H21.5C21.7761 11 22 11.2239 22 11.5V12.5C22 12.7761 21.7761 13 21.5 13H14.5C14.2239 13 14 12.7761 14 12.5V11.5Z" fill="currentColor"/>
<path d="M12 17.5C12 17.2239 12.2239 17 12.5 17H21.5C21.7761 17 22 17.2239 22 17.5V18.5C22 18.7761 21.7761 19 21.5 19H12.5C12.2239 19 12 18.7761 12 18.5V17.5Z" fill="currentColor"/>
<path d="M6.99994 3C5.34309 3 3.99994 4.34315 3.99994 6C3.99994 7.65685 5.34309 9 6.99994 9C8.6568 9 9.99994 7.65685 9.99994 6C9.99994 4.34315 8.6568 3 6.99994 3Z" fill="currentColor"/>
<path d="M5.86987 10C5.63116 10 5.40032 10.0854 5.21907 10.2407L2.61977 12.4687C2.25902 12.7779 2.16566 13.2983 2.3964 13.7136L6.12579 20.4265C6.50679 21.1123 7.49309 21.1123 7.8741 20.4265L11.6035 13.7136C11.8342 13.2983 11.7409 12.7779 11.3801 12.4687L8.78081 10.2407C8.59957 10.0854 8.36873 10 8.13002 10H5.86987Z" fill="currentColor"/>
</svg>
