<svg width="18" height="18" viewBox="0 0 18 18" fill="currentColor" xmlns="http://www.w3.org/2000/svg">
  <path d="M11.7 4.761V0.9C11.7 0.405 11.295 0 10.8 0H7.2C6.705 0 6.3 0.405 6.3 0.9V4.761C6.3 4.878 6.345 4.995 6.435 5.076L8.685 7.326C8.865 7.506 9.144 7.506 9.324 7.326L11.574 5.076C11.655 4.995 11.7 4.887 11.7 4.761ZM4.761 6.3H0.9C0.405 6.3 0 6.705 0 7.2V10.8C0 11.295 0.405 11.7 0.9 11.7H4.761C4.878 11.7 4.995 11.655 5.076 11.565L7.326 9.315C7.506 9.135 7.506 8.856 7.326 8.676L5.076 6.426C5.03462 6.38495 4.98541 6.35265 4.9313 6.331C4.87719 6.30936 4.81927 6.29881 4.761 6.3ZM6.3 13.239V17.1C6.3 17.595 6.705 18 7.2 18H10.8C11.295 18 11.7 17.595 11.7 17.1V13.239C11.7007 13.18 11.6891 13.1215 11.6658 13.0672C11.6426 13.013 11.6082 12.9642 11.565 12.924L9.315 10.674C9.135 10.494 8.856 10.494 8.676 10.674L6.426 12.924C6.345 13.005 6.3 13.113 6.3 13.239ZM12.915 6.435L10.665 8.685C10.485 8.865 10.485 9.144 10.665 9.324L12.915 11.574C12.996 11.655 13.113 11.709 13.23 11.709H17.1C17.595 11.709 18 11.304 18 10.809V7.209C18 6.714 17.595 6.309 17.1 6.309H13.239C13.179 6.30444 13.1188 6.31339 13.0627 6.3352C13.0066 6.357 12.9561 6.39111 12.915 6.435Z"/>
</svg>
