<svg viewBox="0 0 24 24" fill="none" xmlns="http://www.w3.org/2000/svg">
<path fill-rule="evenodd" clip-rule="evenodd" d="M2 12C2 6.47715 6.47715 2 12 2C17.5228 2 22 6.47715 22 12C22 17.5228 17.5228 22 12 22C6.47715 22 2 17.5228 2 12ZM11.5 19.9846V17.5H8.88121C9.02633 17.9029 9.18634 18.2787 9.35889 18.6239C9.58323 19.0725 9.81727 19.4497 10.0549 19.7619C10.5217 19.8785 11.0048 19.9541 11.5 19.9846ZM12.5 17.5V19.9846C12.9952 19.9541 13.4783 19.8785 13.9451 19.7619C14.1827 19.4497 14.4168 19.0725 14.6411 18.6239C14.8137 18.2787 14.9737 17.9029 15.1188 17.5H12.5ZM12.5 16.5V12.5H15.9935C15.9558 13.959 15.754 15.3157 15.4327 16.5H12.5ZM11.5 11.5V7.5H8.56731C8.24604 8.6843 8.04422 10.041 8.00645 11.5H11.5ZM12.5 7.5V11.5H15.9935C15.9558 10.041 15.754 8.6843 15.4327 7.5H12.5ZM12.5 6.5V4.01537C12.9952 4.04591 13.4783 4.12151 13.9451 4.23811C14.1827 4.55031 14.4168 4.92748 14.6411 5.37615C14.8137 5.72126 14.9737 6.09711 15.1188 6.5H12.5ZM11.5 6.5V4.01537C11.0048 4.04591 10.5217 4.12151 10.0549 4.23811C9.81727 4.55031 9.58323 4.92748 9.35889 5.37615C9.18634 5.72126 9.02633 6.09711 8.88121 6.5H11.5ZM11.5 16.5V12.5H8.00645C8.04422 13.959 8.24604 15.3157 8.56731 16.5H11.5ZM15.4627 19.2138C15.7311 18.6984 15.9708 18.1236 16.1765 17.5H17.8095C17.1419 18.2049 16.3475 18.7883 15.4627 19.2138ZM16.4664 16.5H18.6153C19.4012 15.3469 19.8935 13.9777 19.9846 12.5H16.9939C16.9586 13.9334 16.7724 15.2875 16.4664 16.5ZM5.38468 16.5H7.53365C7.22764 15.2875 7.04143 13.9334 7.00614 12.5H4.01537C4.1065 13.9777 4.59879 15.3469 5.38468 16.5ZM7.82351 17.5H6.1905C6.85805 18.2049 7.65252 18.7883 8.53731 19.2138C8.26892 18.6984 8.02923 18.1236 7.82351 17.5ZM16.4664 7.5C16.7724 8.71249 16.9586 10.0666 16.9939 11.5H19.9846C19.8935 10.0223 19.4012 8.65308 18.6153 7.5H16.4664ZM17.8095 6.5H16.1765C15.9708 5.87642 15.7311 5.30163 15.4627 4.78617C16.3475 5.21165 17.1419 5.79512 17.8095 6.5ZM7.82351 6.5H6.1905C6.85805 5.79512 7.65252 5.21165 8.53731 4.78617C8.26892 5.30163 8.02923 5.87642 7.82351 6.5ZM5.38468 7.5H7.53365C7.22764 8.71249 7.04143 10.0666 7.00614 11.5H4.01537C4.1065 10.0223 4.59879 8.65308 5.38468 7.5Z" fill="currentColor"/>
</svg>
