<svg fill="none" viewBox="0 0 32 32" stroke="currentColor" xmlns="http://www.w3.org/2000/svg">
  <path d="m5.799 5.051.266 1.194-.266-1.194a1.902 1.902 0 0 0-1.032.619L1.458 9.533l.864.74-.864-.74a1.898 1.898 0 0 0-.008 2.463l13.099 15.483c.76.897 2.142.897 2.902 0L30.55 11.995c.603-.711.6-1.756-.008-2.464l-3.308-3.862a1.899 1.899 0 0 0-1.033-.62l-5.426-1.204-.273 1.235.273-1.235a1.9 1.9 0 0 0-.41-.045h-8.729c-.138 0-.275.015-.411.045l.274 1.236-.274-1.236-5.426 1.206Z" stroke-width="2"/>
  <path d="m5.868 6.334 5.699 1.899h8.866l5.699-1.899M2.067 11.4l6.966 3.166h13.934l6.967-3.166" stroke-linecap="square"/>
  <path d="m11.567 7.599-2.534 6.967L16 26.598m4.433-18.999 2.534 6.967L16 26.598"/>
</svg>