<svg width="24" height="24" viewBox="0 0 24 24" fill="none" xmlns="http://www.w3.org/2000/svg">
<g clip-path="url(#clip0_729_5407)">
<path fill-rule="evenodd" clip-rule="evenodd" d="M1 12C1 5.92487 5.92487 1 12 1C18.0751 1 23 5.92487 23 12C23 18.0751 18.0751 23 12 23C5.92487 23 1 18.0751 1 12ZM10.2186 14.4314C10.1511 14.4314 10.0904 14.4118 10.0364 14.3725C9.99595 14.3203 9.97571 14.2614 9.97571 14.1961V13.7255C9.97571 13.2288 10.0769 12.8039 10.2794 12.451C10.4818 12.085 10.7247 11.7908 11.0081 11.5686C11.2915 11.3333 11.6626 11.0654 12.1215 10.7647C12.6343 10.451 13.0054 10.1765 13.2348 9.94118C13.4777 9.70588 13.5992 9.42484 13.5992 9.09804C13.5992 8.7451 13.4575 8.47059 13.1741 8.27451C12.8907 8.06536 12.5128 7.96078 12.0405 7.96078C11.5277 7.96078 11.1161 8.07843 10.8057 8.31373C10.5088 8.53595 10.3603 8.83007 10.3603 9.19608V9.41176C10.3603 9.55556 10.2794 9.62745 10.1174 9.62745L7.24292 9.5098C7.17544 9.5098 7.11471 9.48366 7.06073 9.43137C7.02024 9.37908 7 9.32026 7 9.2549V9.19608C7 8.37255 7.21592 7.64706 7.64777 7.01961C8.07962 6.37909 8.68016 5.88235 9.44939 5.52941C10.2321 5.17647 11.1228 5 12.1215 5C13.1066 5 13.9636 5.1634 14.6923 5.4902C15.4345 5.81699 16.0013 6.28105 16.3927 6.88235C16.7976 7.47059 17 8.15686 17 8.94118C17 9.52941 16.892 10.0327 16.6761 10.451C16.4602 10.8562 16.197 11.1895 15.8866 11.451C15.5897 11.7124 15.2051 11.9935 14.7328 12.2941C14.2605 12.5948 13.9096 12.8627 13.6802 13.098C13.4507 13.3203 13.336 13.5948 13.336 13.9216V14.1961C13.336 14.2614 13.309 14.3203 13.2551 14.3725C13.2146 14.4118 13.1606 14.4314 13.0931 14.4314H10.2186ZM10.3858 18.5294C10.7232 18.8432 11.1416 19 11.6409 19C12.1537 19 12.5721 18.8366 12.896 18.5098C13.2334 18.183 13.402 17.7778 13.402 17.2941C13.402 16.7843 13.2334 16.3726 12.896 16.0588C12.5721 15.7451 12.1537 15.5883 11.6409 15.5883C11.1281 15.5883 10.7097 15.7451 10.3858 16.0588C10.062 16.3726 9.90002 16.7843 9.90002 17.2941C9.90002 17.7909 10.062 18.2026 10.3858 18.5294Z" fill="currentColor"/>
</g>
<defs>
<clipPath id="clip0_729_5407">
<rect width="24" height="24" fill="none"/>
</clipPath>
</defs>
</svg>
