<svg width="24" height="24" viewBox="0 0 24 24" fill="none" xmlns="http://www.w3.org/2000/svg">
<path d="M11.9998 18.707C12.9458 18.707 13.8098 18.604 14.5978 18.426L12.8408 16.669C12.5678 16.69 12.2908 16.707 11.9998 16.707C6.64876 16.707 4.57576 12.861 4.07376 11.707C4.4507 10.8658 4.9598 10.0903 5.58176 9.41L4.18376 8.012C2.64576 9.679 2.06276 11.358 2.05176 11.391C1.98278 11.5964 1.98278 11.8186 2.05176 12.024C2.07276 12.09 4.36676 18.707 11.9998 18.707ZM11.9998 4.707C10.1628 4.707 8.65376 5.103 7.39576 5.688L3.70676 2L2.29276 3.414L20.2928 21.414L21.7068 20L18.3878 16.681C21.0018 14.73 21.9348 12.066 21.9488 12.024C22.0177 11.8186 22.0177 11.5964 21.9488 11.391C21.9268 11.324 19.6328 4.707 11.9998 4.707ZM16.9718 15.265L14.6918 12.985C14.8818 12.595 14.9998 12.166 14.9998 11.707C14.9998 10.066 13.6408 8.707 11.9998 8.707C11.5408 8.707 11.1118 8.825 10.7228 9.016L8.91476 7.208C9.90728 6.86741 10.9505 6.698 11.9998 6.707C17.3508 6.707 19.4238 10.553 19.9258 11.707C19.6238 12.399 18.7598 14.049 16.9718 15.265Z" fill="currentColor" />
</svg>
