<svg viewBox="0 0 24 24" fill="none" xmlns="http://www.w3.org/2000/svg">
<path fill-rule="evenodd" clip-rule="evenodd" d="M23 12C23 18.0751 18.0751 23 12 23C5.92487 23 1 18.0751 1 12C1 5.92487 5.92487 1 12 1C18.0751 1 23 5.92487 23 12ZM10.5 10C10.5 9.72386 10.7239 9.5 11 9.5H13C13.2761 9.5 13.5 9.72386 13.5 10V18.5C13.5 18.7761 13.2761 19 13 19H11C10.7239 19 10.5 18.7761 10.5 18.5V10ZM11 5C10.7239 5 10.5 5.22386 10.5 5.5V7.5C10.5 7.77614 10.7239 8 11 8H13C13.2761 8 13.5 7.77614 13.5 7.5V5.5C13.5 5.22386 13.2761 5 13 5H11Z" fill="currentColor"/>
</svg>
