<svg width="24" height="24" viewBox="0 0 24 24" fill="none" xmlns="http://www.w3.org/2000/svg">
<path fill-rule="evenodd" clip-rule="evenodd" d="M12.4755 1.46353C12.3259 1.00288 11.6741 1.00288 11.5245 1.46353L10.9897 3.10943C10.9227 3.31544 10.7308 3.45492 
10.5142 3.45492H8.78356C8.2992 3.45492 8.09781 4.07473 8.48967 4.35943L9.88975 5.37665C10.065 5.50397 10.1383 5.72966 10.0714 5.93567L9.5366 7.58157C9.38693 8.04222 
9.91417 8.42529 10.306 8.14059L11.7061 7.12336C11.8814 6.99604 12.1186 6.99604 12.2939 7.12336L13.694 8.14059C14.0858 8.42529 14.6131 8.04222 14.4634 7.58157L13.9286 
5.93567C13.8617 5.72966 13.935 5.50397 14.1102 5.37665L15.5103 4.35943C15.9022 4.07473 15.7008 3.45492 15.2164 3.45492H13.4858C13.2692 3.45492 13.0773 3.31544 13.0103 
3.10943L12.4755 1.46353ZM9.5 11C9.22386 11 9 11.2239 9 11.5V20.5C9 20.7761 9.22386 21 9.5 21H14.5C14.7761 21 15 20.7761 15 20.5V11.5C15 11.2239 14.7761 11 14.5 
11H9.5ZM16.5 17C16.2239 17 16 17.2239 16 17.5V20.5C16 20.7761 16.2239 21 16.5 21H21.5C21.7761 21 22 20.7761 22 20.5V17.5C22 17.2239 21.7761 17 21.5 17H16.5ZM2 15.5C2 
15.2239 2.22386 15 2.5 15H7.5C7.77614 15 8 15.2239 8 15.5V20.5C8 20.7761 7.77614 21 7.5 21H2.5C2.22386 21 2 20.7761 2 20.5V15.5Z" fill="currentColor" />
</svg>
