<svg fill="currentColor" viewBox="0 0 32 32" xmlns="http://www.w3.org/2000/svg">
  <path fill-rule="evenodd" clip-rule="evenodd" d="M28.584 6.018a3.07 3.07 0 0 0-1.282-1.095 3.062 3.062 0 0 0-.747-1.211l-1.246-1.246a3.068 3.068 0 0 0-1.618-.852A3.04 3.04 0 0 0 21.685.229l-.849-.17a3.08 3.08 0 0 0-2.778.842l-2.056 2.055a3.693 3.693 0 0 0-2.817 1.076L10.82 6.397a3.693 3.693 0 0 0-1.081 2.611v5.432l-6.961 6.959h4.501L.9 32l10.201-6.189-1.167 5.834 8.7-8.699 3.255-.652a3.697 3.697 0 0 0 1.887-1.009l5.655-5.657.808-.808a3.074 3.074 0 0 0 .842-2.779l-.172-.861a3.053 3.053 0 0 0-.816-1.55 3.065 3.065 0 0 0-.492-2.092l-1.015-1.522-.002.002Zm-5.937-1.757a.616.616 0 0 1 .922-.056l1.247 1.247a.617.617 0 0 1 0 .87l-2.29 2.29-2.06-1.544 2.181-2.806v-.001Zm-3.246 2.008 2.156-2.635a.615.615 0 0 0-.355-.993l-.849-.17a.615.615 0 0 0-.555.168l-2.245 2.246 1.848 1.386v-.002Zm6.19 1.018a.615.615 0 0 1 .947.095l1.014 1.521a.614.614 0 0 1-.123.818l-3.923 3.209a.614.614 0 0 1-.824-.042l-.869-.869c.165-.078.332-.16.503-.245a1.844 1.844 0 0 0 .936-2.148l2.338-2.338.001-.001Zm1.916 4.016a.616.616 0 0 1 .988.361l.172.861a.61.61 0 0 1-.169.555l-2.037 2.038a.616.616 0 0 1-.751.092l-1.005-.603a.615.615 0 0 1-.068-1.008l2.87-2.296Zm-6.281 1.871-.76.108-4.787 3.915 1.514-3.024a1.23 1.23 0 0 0 .066-.939L15.68 8.496l2.226 2.228a2.46 2.46 0 0 0 2.84.46l1.004-.502a.615.615 0 0 0 .094-1.042l-5.311-3.983a1.232 1.232 0 0 0-1.608.114L12.56 8.136a1.233 1.233 0 0 0-.361.871v5.941c0 .327-.129.64-.36.87l-3.119 3.12h3.479L6.98 25.899l7.831-6.091-.87 4.35 3.216-3.216c.171-.172.39-.288.628-.336l3.62-.725c.238-.047.456-.164.628-.336l3.197-3.197a1.628 1.628 0 0 1-.154-.082l-1.005-.603a1.83 1.83 0 0 1-.883-1.366 1.838 1.838 0 0 1-1.376-.538l-.586-.585Z"/>
</svg>