<svg width="24" height="24" viewBox="0 0 24 24" fill="none" xmlns="http://www.w3.org/2000/svg">
    <path d="M8.46502 11.2929C9.59802 10.1599 11.574 10.1599 12.707 11.2929L13.414 11.9999L14.828 10.5859L14.121 9.87894C13.178 8.93494 11.922 8.41394 10.586 8.41394C9.25002 8.41394 7.99402 8.93494 7.05102 9.87894L4.92902 11.9999C3.99332 12.9387 3.4679 14.21 3.4679 15.5354C3.4679 16.8609 3.99332 18.1322 4.92902 19.0709C5.3929 19.5355 5.94399 19.9038 6.55064 20.1547C7.15729 20.4056 7.80754 20.5341 8.46402 20.5329C9.12068 20.5343 9.77114 20.4058 10.378 20.1549C10.9848 19.904 11.5361 19.5356 12 19.0709L12.707 18.3639L11.293 16.9499L10.586 17.6569C10.0225 18.2179 9.25969 18.5329 8.46452 18.5329C7.66935 18.5329 6.90655 18.2179 6.34302 17.6569C5.78153 17.0937 5.46623 16.3308 5.46623 15.5354C5.46623 14.7401 5.78153 13.9772 6.34302 13.4139L8.46502 11.2929Z" fill="currentColor" />
    <path d="M12 4.92899L11.293 5.63599L12.707 7.04999L13.414 6.34299C13.9775 5.78198 14.7403 5.46702 15.5355 5.46702C16.3307 5.46702 17.0935 5.78198 17.657 6.34299C18.2185 6.90626 18.5338 7.66916 18.5338 8.46449C18.5338 9.25983 18.2185 10.0227 17.657 10.586L15.535 12.707C14.402 13.84 12.426 13.84 11.293 12.707L10.586 12L9.172 13.414L9.879 14.121C10.822 15.065 12.078 15.586 13.414 15.586C14.75 15.586 16.006 15.065 16.949 14.121L19.071 12C20.0067 11.0613 20.5321 9.78991 20.5321 8.46449C20.5321 7.13908 20.0067 5.86771 19.071 4.92899C18.1325 3.9928 16.8611 3.46704 15.5355 3.46704C14.2099 3.46704 12.9385 3.9928 12 4.92899Z" fill="currentColor" />
</svg>
