<svg width="24" height="24" viewBox="0 0 24 24" fill="none" xmlns="http://www.w3.org/2000/svg">
<path fill-rule="evenodd" clip-rule="evenodd" d="M10.5 2C10.2239 2 10 2.22386 10 2.5V13L1.85356 21.1464C1.53857 21.4614 1.76166 22 2.20711 22H8H21.7929C22.2383 22 22.4614 21.4614 22.1465 21.1464L16.3308 15.3308C16.1446 15.1446 15.8461 15.1347 15.648 15.308L8 22L12.9927 15.1918C13.2845 14.7938 13.2424 14.2424 12.8934 13.8934L11 12L12 11V2.5C12 2.22386 11.7761 2 11.5 2H10.5ZM14.5 2C14.2239 2 14 2.22386 14 2.5V6.5C14 6.77614 14.2239 7 14.5 7H21L18.5 4.5L21 2H14.5Z" fill="currentColor"/>
</svg>
