<svg fill="currentColor" viewBox="0 0 32 32" xmlns="http://www.w3.org/2000/svg">
  <path fill-rule="evenodd" clip-rule="evenodd" d="M6.15 17.067a3.69 3.69 0 0 1 1.231-2.752V3.077C7.381 1.377 8.758 0 10.458 0h1.255a3.078 3.078 0 0 1 3.075 2.949L14.972 8h.971c.509 0 .986.128 1.407.345a3.046 3.046 0 0 1 1.792-.099l1.248.32a3.05 3.05 0 0 1 1.502.874 3.07 3.07 0 0 1 1.152.16l.695.234a3.074 3.074 0 0 1 2.103 2.917v9.03c0 .729-.215 1.441-.62 2.048l-1.841 2.763v2.331c0 1.7-1.377 3.077-3.077 3.077h-7.385a3.077 3.077 0 0 1-3.077-3.077v-2.256l-2.954-3.938a3.702 3.702 0 0 1-.738-2.216v-3.446Zm4.308-14.605a.615.615 0 0 0-.616.615v11.504l2.277-.325.16-3.871c.016-.354.129-.682.315-.956l-.266-6.377a.614.614 0 0 0-.615-.589h-1.255v-.001ZM16.17 13.68l-.102.012-2.684.382.126-3.023a.615.615 0 0 1 .615-.589h1.538c.349 0 .629.29.615.64l-.108 2.578Zm1.322 4.037a3.77 3.77 0 0 0 .233-.549l.355-1.065a1.842 1.842 0 0 0-.693-2.097l.117-2.81a.614.614 0 0 1 .748-.574l1.524.338a.614.614 0 0 1 .48.656l-.517 5.67a.614.614 0 0 1-.613.56h-1.258a.61.61 0 0 1-.376-.129Zm3.966-5.259a.615.615 0 0 1 .806-.522l.696.231a.616.616 0 0 1 .421.584v4a.616.616 0 0 1-.467.597l-1.146.286a.615.615 0 0 1-.763-.658l.453-4.517v-.001Zm-.977 6.031a1.843 1.843 0 0 1-1.354.592h-1.231c-.04 0-.078 0-.115-.003l-.554 5.537-1.07-3.208a1.233 1.233 0 0 0-.617-.712l-4.467-2.233h3.15c1.059 0 2-.679 2.334-1.683l.355-1.065a.615.615 0 0 0-.671-.804l-6.572.939a1.23 1.23 0 0 0-1.057 1.218v3.446c0 .266.086.526.246.739l3.2 4.266c.16.212.246.472.246.738v2.667c0 .34.276.615.615.615h7.385c.34 0 .615-.275.615-.615v-2.704c0-.244.072-.481.207-.683l2.048-3.072c.135-.202.207-.439.207-.683V18.49a1.811 1.811 0 0 1-.168.049l-1.147.288a1.83 1.83 0 0 1-1.585-.337v-.001Z"/>
</svg>