<svg width="24" height="24" viewBox="0 0 24 24" fill="currentColor" xmlns="http://www.w3.org/2000/svg">
<path fill-rule="evenodd" clip-rule="evenodd" d="M11.9999 1C11.4476 1 10.9999 1.44772 10.9999 2V3.07089C7.60761 3.55611 4.9999 6.47353 4.9999 10V13L11.9999 13.5L18.9999 14H4.91008C4.86094 14.108 4.79252 14.2074 4.70701 14.2929L2.70701 16.2929C2.07704 16.9229 2.52321 18 3.41411 18H20.5857C21.4766 18 21.9228 16.9229 21.2928 16.2929L19.2928 14.2929C19.1053 14.1054 18.9999 13.851 18.9999 13.5858V10C18.9999 6.47353 16.3922 3.55612 12.9999 3.07089V2C12.9999 1.44772 12.5522 1 11.9999 1ZM14.9999 19V20C14.9999 21.6569 13.6568 23 11.9999 23C10.3431 23 8.99991 21.6569 8.99991 20L14.9999 19Z"/>
</svg>
