<svg width="17" height="18" viewBox="0 0 17 18" fill="currentColor" xmlns="http://www.w3.org/2000/svg">
  <path fill-rule="evenodd" clip-rule="evenodd" d="M4.72943 0C3.07258 0 1.72943 1.34315 1.72943 3C1.72943 4.65685 3.07258 6 4.72943 6C6.38629 6 7.72943 4.65685 7.72943 3C7.72943 1.34315 6.38629 0 4.72943 0ZM3.59936 7C3.36065 7 3.12981 7.08539 2.94857 7.24074L0.349257 9.46872C-0.0114869 9.77793 -0.104851 10.2983 0.125891 10.7136L3.85528 17.4265C4.23628 18.1123 5.22259 18.1123 5.60359 17.4265L9.33298 10.7136C9.56372 10.2983 9.47036 9.77793 9.10961 9.46872L6.5103 7.24074C6.32906 7.08539 6.09822 7 5.85951 7H3.59936ZM14.2066 4L16.3279 6.12132L15.6208 6.82843L13.4995 4.70711L11.3782 6.82843L10.6711 6.12132L12.7924 4L10.6711 1.87868L11.3782 1.17157L13.4995 3.29289L15.6208 1.17157L16.3279 1.87868L14.2066 4Z" />
</svg>
