<svg width="18" height="18" viewBox="0 0 18 18" fill="currentColor" xmlns="http://www.w3.org/2000/svg">
  <path fill-rule="evenodd" clip-rule="evenodd" d="M5.22943 0C3.57258 0 2.22943 1.34315 2.22943 3C2.22943 4.65685 3.57258 6 5.22943 6C6.88629 6 8.22943 4.65685 8.22943 3C8.22943 1.34315 6.88629 0 5.22943 0ZM4.09936 7C3.86065 7 3.62981 7.08539 3.44857 7.24074L0.849257 9.46872C0.488513 9.77793 0.395149 10.2983 0.625891 10.7136L4.35528 17.4265C4.73628 18.1123 5.72259 18.1123 6.10359 17.4265L9.83298 10.7136C10.0637 10.2983 9.97036 9.77793 9.60961 9.46872L7.0103 7.24074C6.82906 7.08539 6.59822 7 6.35951 7H4.09936ZM14.4996 3.5H17.4996V4.5H14.4996V7.5H13.4996V4.5H10.4996V3.5H13.4996V0.5L14.4996 0.5V3.5Z"/>
</svg>
