<svg viewBox="0 0 24 24" fill="currentColor" xmlns="http://www.w3.org/2000/svg">
  <path d="M 12.022 0 C 13.986 0 15.58 1.591 15.58 3.555 L 15.58 4.572 C 15.58 6.534 13.986 8.127 12.022 8.127 C 10.06 8.127 8.467 6.534 8.467 4.572 L 8.467 3.555 C 8.467 1.591 10.06 0 12.022 0 Z M 9.683 9.458 C 9.914 9.253 10.211 9.144 10.521 9.144 L 13.524 9.144 C 13.834 9.144 14.133 9.253 14.362 9.458 L 17.864 12.537 C 18.31 12.928 18.427 13.576 18.144 14.096 L 13.138 23.335 C 12.66 24.222 11.387 24.222 10.907 23.335 L 5.903 14.096 C 5.622 13.576 5.735 12.928 6.18 12.537 L 9.683 9.458 Z" />
</svg>