<svg width="19" height="18" viewBox="0 0 19 18" fill="currentColor" xmlns="http://www.w3.org/2000/svg">
  <path fill-rule="evenodd" clip-rule="evenodd" d="M4.72943 0C3.07258 0 1.72943 1.34315 1.72943 3C1.72943 4.65685 3.07258 6 4.72943 6C6.38629 6 7.72943 4.65685 7.72943 3C7.72943 1.34315 6.38629 0 4.72943 0ZM3.59936 7C3.36065 7 3.12981 7.08539 2.94857 7.24074L0.349257 9.46872C-0.0114869 9.77793 -0.104851 10.2983 0.125891 10.7136L3.85528 17.4265C4.23628 18.1123 5.22259 18.1123 5.60359 17.4265L9.33298 10.7136C9.56372 10.2983 9.47036 9.77793 9.10961 9.46872L6.5103 7.24074C6.32906 7.08539 6.09822 7 5.85951 7H3.59936ZM13.4995 5.29291L17.6224 1.16998L18.3296 1.87708L13.4957 6.71095L12.7886 6.00385L12.7924 6.00001L10.6711 3.87868L11.3782 3.17157L13.4995 5.29291Z" />
</svg>
