<svg width="16" height="16" viewBox="0 0 16 16" fill="none" xmlns="http://www.w3.org/2000/svg">
<path d="M13.2599 6.73671C13.1173 6.40004 12.9406 6.07337 12.7339 5.76604L11.6286 6.51204C11.7873 6.74671 11.9226 6.99671 12.0313 7.25537C12.1433 7.52071 12.2293 7.79737 12.2866 8.07537C12.3453 8.36404 12.3753 8.66071 12.3753 8.95804C12.3753 9.25537 12.3453 9.55337 12.2866 9.84071C12.2293 10.1194 12.1439 10.3947 12.0306 10.6614C11.9226 10.9187 11.7873 11.1687 11.6286 11.4027C11.4726 11.634 11.2919 11.852 11.0933 12.0514C10.8953 12.2494 10.6773 12.4287 10.4446 12.586C10.2099 12.7447 9.96059 12.88 9.70193 12.9887C9.43859 13.1 9.16259 13.186 8.88259 13.244C8.30659 13.3607 7.69193 13.3607 7.11859 13.244C6.83726 13.186 6.56059 13.1 6.29659 12.988C6.03859 12.8794 5.78926 12.744 5.55459 12.5854C5.32326 12.43 5.10593 12.25 4.90726 12.052C4.70793 11.852 4.52793 11.6334 4.37193 11.4034C4.21393 11.1694 4.07859 10.9194 3.96859 10.66C3.85726 10.396 3.77193 10.1207 3.71393 9.84004C3.65526 9.55271 3.62526 9.25604 3.62526 8.95804C3.62526 8.66004 3.65526 8.36337 3.71459 8.07537C3.77193 7.79537 3.85726 7.51937 3.96859 7.25537C4.07859 6.99537 4.21459 6.74537 4.37193 6.51271C4.52793 6.28137 4.70793 6.06337 4.90659 5.86471C5.10393 5.66671 5.32193 5.48671 5.55459 5.33004C5.78793 5.17271 6.03793 5.03671 6.29726 4.92671C6.56059 4.81537 6.83726 4.72937 7.11726 4.67204C7.18859 4.65737 7.26126 4.65071 7.33326 4.63937V6.66671L10.6666 4.00004L7.33326 1.33337V3.29204C7.17126 3.31137 7.00926 3.33337 6.84993 3.36604C6.48326 3.44137 6.12193 3.55337 5.77793 3.69937C5.43859 3.84271 5.11193 4.02004 4.80793 4.22604C4.50526 4.43004 4.22126 4.66404 3.96326 4.92204C3.70459 5.18071 3.47059 5.46471 3.26659 5.76604C3.06059 6.07071 2.88393 6.39671 2.73993 6.73604C2.59393 7.08137 2.48193 7.44204 2.40726 7.80804C2.32993 8.18337 2.29126 8.57071 2.29126 8.95871C2.29126 9.34671 2.33059 9.73337 2.40726 10.1087C2.48259 10.476 2.59459 10.8367 2.73993 11.18C2.88326 11.5194 3.06059 11.846 3.26659 12.1507C3.46993 12.4507 3.70393 12.7347 3.96326 12.996C4.22259 13.2547 4.50593 13.4887 4.80659 13.6914C5.11259 13.8987 5.43926 14.076 5.77726 14.218C6.12126 14.3634 6.48193 14.476 6.84993 14.5514C7.22593 14.6274 7.61259 14.6667 7.99993 14.6667C8.38726 14.6667 8.77393 14.6274 9.15126 14.5507C9.51859 14.4747 9.87926 14.3627 10.2206 14.218C10.5586 14.076 10.8859 13.8987 11.1919 13.6914C11.4939 13.4874 11.7779 13.2534 12.0373 12.994C12.2959 12.7347 12.5299 12.4514 12.7339 12.15C12.9419 11.842 13.1179 11.5154 13.2593 11.18C13.4059 10.8334 13.5186 10.4727 13.5926 10.108C13.6693 9.73271 13.7086 9.34537 13.7086 8.95804C13.7086 8.57137 13.6693 8.18404 13.5926 7.80804C13.5179 7.44404 13.4053 7.08337 13.2599 6.73671Z" fill="currentColor" />
</svg>
