<svg width="24" height="24" viewBox="0 0 24 24" fill="none" xmlns="http://www.w3.org/2000/svg">
<path d="M21.4968 18.1859L10.093 22.2323L10.093 11.1965L21.4967 8.25366L21.4968 18.1859Z" fill="#FFD677"/>
<path d="M2 15.9788L7.88581 22.2325L7.88581 10.8288L2 5.67871L2 15.9788Z" fill="#DE9F1C"/>
<path d="M21.4967 8.25361L20.3931 6.41431L9.3573 8.98933L10.093 11.1965L21.4967 8.25361Z" fill="#E9CB87"/>
<path d="M2.00008 5.67854L3.47152 3.83923L9.3573 8.62143L7.88586 10.8286L2.00008 5.67854Z" fill="#E9CB87"/>
<path d="M7.88568 10.8286L9.35713 8.62146L10.0928 11.1965L7.88568 10.8286Z" fill="#FFEABA"/>
<path d="M7.88568 10.8287L10.0928 11.1966V22.2324H7.88568V10.8287Z" fill="#FFC233"/>
<path d="M10.093 22.2323L21.4966 18.1858L20.3931 19.2894L10.093 22.968V22.2323Z" fill="#E9CB87"/>
<path d="M7.88568 22.2323H10.0928V22.968H8.6214L7.88568 22.2323Z" fill="#E9CB87"/>
<path d="M13.7716 2L9.35727 8.98936L3.4715 3.83931L13.7716 2Z" fill="#FFF7D3"/>
<path d="M9.35727 8.98936L13.7716 2L20.3931 6.41433L9.35727 8.98936Z" fill="#FFF7D3"/>
<rect x="14.928" y="9.75806" width="0.735722" height="1.47144" transform="rotate(163.187 14.928 9.75806)" fill="#941110"/>
<rect x="15.924" y="9.45703" width="0.735722" height="1.47144" transform="rotate(163.187 15.924 9.45703)" fill="#211212"/>
<rect x="16.9201" y="9.15613" width="0.735722" height="1.47144" transform="rotate(163.187 16.9201 9.15613)" fill="#941110"/>
<g filter="url(#filter0_di_4879_4128)">
<path d="M13.97 19.024L12.08 19.64V12.248L14.915 11.324L18.065 14.096V10.708L19.64 10.4V17.176L17.75 17.792L13.97 14.404V19.024Z" fill="#583704"/>
</g>
<path d="M8.71803 22.5L2.5 15.8037V6.16667L3.7838 4.45493L13.8877 2.53038L20.1101 6.83818L21 8.61803V17.7929L19.7241 19.0688L10.4108 22.5H8.71803Z" stroke="white" stroke-opacity="0.6"/>
<defs>
<filter id="filter0_di_4879_4128" x="11.24" y="9.56002" width="9.24" height="10.92" filterUnits="userSpaceOnUse" color-interpolation-filters="sRGB">
<feFlood flood-opacity="0" result="BackgroundImageFix"/>
<feColorMatrix in="SourceAlpha" type="matrix" values="0 0 0 0 0 0 0 0 0 0 0 0 0 0 0 0 0 0 127 0" result="hardAlpha"/>
<feOffset/>
<feGaussianBlur stdDeviation="0.42"/>
<feComposite in2="hardAlpha" operator="out"/>
<feColorMatrix type="matrix" values="0 0 0 0 0 0 0 0 0 0 0 0 0 0 0 0 0 0 0.25 0"/>
<feBlend mode="overlay" in2="BackgroundImageFix" result="effect1_dropShadow_4879_4128"/>
<feBlend mode="normal" in="SourceGraphic" in2="effect1_dropShadow_4879_4128" result="shape"/>
<feColorMatrix in="SourceAlpha" type="matrix" values="0 0 0 0 0 0 0 0 0 0 0 0 0 0 0 0 0 0 127 0" result="hardAlpha"/>
<feOffset/>
<feGaussianBlur stdDeviation="1.68"/>
<feComposite in2="hardAlpha" operator="arithmetic" k2="-1" k3="1"/>
<feColorMatrix type="matrix" values="0 0 0 0 0 0 0 0 0 0 0 0 0 0 0 0 0 0 0.25 0"/>
<feBlend mode="overlay" in2="shape" result="effect2_innerShadow_4879_4128"/>
</filter>
</defs>
</svg>
