<svg width="14" height="14" viewBox="0 0 14 14" fill="none" xmlns="http://www.w3.org/2000/svg">
    <path d="M11.956 3.56184L7.30509 1.22851C7.22418 1.18764 7.13483 1.16625 7.04419 1.16605C6.95354 1.16585 6.8641 1.18683 6.78301 1.22734L2.10059 3.56067C1.92734 3.64817 1.80776 3.81559 1.78326 4.00809C1.77567 4.06467 1.11534 9.69034 6.76551 12.7628C6.85236 12.8101 6.94988 12.8345 7.04881 12.8336C7.14774 12.8327 7.2448 12.8065 7.33076 12.7575C12.7598 9.68976 12.2973 4.25659 12.2751 4.02676C12.2655 3.92861 12.2313 3.83449 12.1755 3.75318C12.1197 3.67188 12.0442 3.60605 11.956 3.56184Z" fill="currentColor" />
</svg>
