<svg width="13" height="14" viewBox="0 0 13 14" fill="none" xmlns="http://www.w3.org/2000/svg">
    <path d="M9.94294 0.745046C8.35138 3.24353 7.1972 7.03392 6.60093 9.10572C6.38178 7.32598 6.25395 5.37146 6.13524 3.94903C5.97682 2.04289 5.27417 2.56586 4.30124 2.24915C2.06867 5.77121 0 10.7974 0 12.3941C0 13.2406 0.475735 13.5866 1.8477 14C1.99882 11.7799 3.31371 7.85397 4.43684 5.22543C4.96143 11.7772 5.29471 12.9445 6.09004 12.9445C6.49638 12.9445 6.7105 12.6652 7.28577 12.437C8.19386 8.80133 10.8501 2.74611 12.7097 0.745503C12.2618 0.327036 10.8625 -0.698825 9.94294 0.745046Z" fill="currentColor" />
</svg>
