<svg width="14" height="14" viewBox="0 0 14 14" fill="none" xmlns="http://www.w3.org/2000/svg">
    <path d="M11.4957 2.50426L10.6709 3.32909C12.2651 4.92334 12.2651 7.61834 10.6709 9.21259L11.4957 10.0374C13.5374 7.99576 13.5374 4.54592 11.4957 2.50426ZM8.9209 5.07909C9.25107 5.40926 9.43365 5.83276 9.43365 6.27084C9.43365 6.70892 9.25107 7.13242 8.9209 7.46259L9.74573 8.28742C10.2964 7.73734 10.6003 7.02042 10.6003 6.27084C10.6003 5.52126 10.2964 4.80434 9.74573 4.25426L8.9209 5.07909ZM3.62073 3.32909L2.7959 2.50426C0.754232 4.54592 0.754232 7.99576 2.7959 10.0374L3.62073 9.21259C2.02648 7.61834 2.02648 4.92334 3.62073 3.32909Z" fill="currentColor" />
    <path d="M4.25424 4.25426C3.70357 4.80434 3.39966 5.52126 3.39966 6.27084C3.39966 7.02042 3.70357 7.73734 4.25424 8.28742L5.07907 7.46259C4.74891 7.13242 4.56632 6.70892 4.56632 6.27084C4.56632 5.83276 4.74891 5.40926 5.07907 5.07909L4.25424 4.25426ZM8.16666 6.12501C8.16666 5.48101 7.64399 4.95834 6.99999 4.95834C6.35599 4.95834 5.83332 5.48101 5.83332 6.12501C5.83274 6.53042 6.04041 6.88801 6.35541 7.09684L5.83449 12.8333H8.16549L7.64457 7.09626C7.95957 6.88742 8.16666 6.53042 8.16666 6.12501Z" fill="currentColor" />
</svg>
