<svg fill="none" viewBox="0 0 32 32" xmlns="http://www.w3.org/2000/svg"><path clip-rule="evenodd" d="m23 6v7.6744c0 .5455-.0495 1.0851-.1456 1.613l1.3536-.8122c.5025-.3015.8475-.8082.9438-1.3862l.7512-4.5068c.0508-.30477-.1843-.5822-.4932-.5822h-1.4098v-1h2.8672c.6015 0 1.0669.52718.9923 1.12403l-.7355 5.88367c-.0781.6247-.4457 1.1761-.9922 1.4884l-4.1762 2.3864c-.5695 1.0767-1.3584 2.0397-2.3334 2.8197l-1.6222 1.2978v3l2.6581.886c.2042.0681.3419.2592.3419.4744v1.6396h-10v-1.6396c0-.2152.1377-.4063.3419-.4744l2.6581-.886v-3l-1.6223-1.2978c-.9749-.78-1.7638-1.743-2.3333-2.8197l-4.17616-2.3864c-.54657-.3123-.9142-.8637-.99228-1.4884l-.73546-5.88367c-.07461-.59685.39078-1.12403.99228-1.12403h2.86721v1h-1.40977c-.30896 0-.54399.27743-.49319.5822l.75113 4.5068c.09633.578.44132 1.0847.9438 1.3862l1.35367.8122c-.09616-.5279-.14564-1.0675-.14564-1.613v-7.6744c0-.55228.44772-1 1-1h12.00001c.5523 0 1 .44772 1 1zm-5.8773 5.4548-1.1227-3.4548-1.1227 3.4548-3.6326.0001 2.9388 2.1353-1.1224 3.4549 2.9389-2.1351 2.9389 2.1351-1.1224-3.4549 2.9388-2.1353z" fill="currentColor" fill-rule="evenodd"/></svg>