<svg fill="currentColor" viewBox="0 0 32 32" xmlns="http://www.w3.org/2000/svg">
  <path fill-rule="evenodd" clip-rule="evenodd" d="M20.912 6.79c-8.522 0-13.848 9.227-9.587 16.607a11.07 11.07 0 0 0 9.587 5.536c8.523 0 13.849-9.226 9.588-16.607a11.07 11.07 0 0 0-9.588-5.536Zm0 2.461c-6.629 0-10.771 7.175-7.457 12.916a8.61 8.61 0 0 0 7.457 4.306c6.63 0 10.772-7.176 7.458-12.917a8.611 8.611 0 0 0-7.458-4.305Z"/>
  <path d="M17.222 3.715c0-.339.276-.615.615-.615h6.151c.339 0 .615.276.615.615v1.23c0 .34-.276.615-.615.615h-1.845v2.461h-2.461V5.56h-1.845a.615.615 0 0 1-.615-.615v-1.23Zm4.56 15.016a1.23 1.23 0 0 1-1.739-1.739c.48-.48 6.089-4.35 6.089-4.35s-3.869 5.61-4.35 6.089Z"/>
  <rect x="29.773" y="9.626" width="2.46" height="3.324" rx=".5" transform="rotate(35 33.381 4.199)"/>
  <rect x="19.067" y="16.017" width="3.69" height="3.69" rx="1.5"/>
  <path fill-rule="evenodd" clip-rule="evenodd" d="M14.763 11.834a8.62 8.62 0 0 1 .893-.793l-.894-1.79-11.072 3.69 11.073-1.107Zm-1.671 2.417L0 16.632h12.388a8.589 8.589 0 0 1 .704-2.381Zm-.703 4.841H0l13.092 2.38a8.57 8.57 0 0 1-.703-2.38Zm2.373 4.797L3.69 22.782l11.072 3.691.894-1.79a8.629 8.629 0 0 1-.893-.794h-.001Z"/>
</svg>
