<svg width="24" height="24" viewBox="0 0 24 24" fill="none" xmlns="http://www.w3.org/2000/svg">
<path fill-rule="evenodd" clip-rule="evenodd" d="M11.5825 6.21037C11.909 5.92988 12.3908 5.92988 12.7173 6.21037L17.8454 10.6162C18.211 10.9303 18.2534 11.482 17.94 11.8484C17.6267 12.2148 17.0763 12.2572 16.7107 11.9432L12.1499 8.02473L7.58907 11.9432C7.2235 12.2572 6.67314 12.2148 6.3598 11.8484C6.04645 11.482 6.08879 10.9303 6.45436 10.6162L11.5825 6.21037ZM12.1499 12.8712L7.58907 16.7896C7.2235 17.1037 6.67314 17.0613 6.3598 16.6948C6.04645 16.3284 6.08879 15.7768 6.45436 15.4627L11.5825 11.0568C11.909 10.7763 12.3908 10.7763 12.7173 11.0568L17.8454 15.4627C18.211 15.7768 18.2534 16.3284 17.94 16.6948C17.6267 17.0613 17.0763 17.1037 16.7107 16.7896L12.1499 12.8712Z" fill="currentColor" />
</svg>
