<svg width="16" height="16" viewBox="0 0 16 16" fill="currentColor" xmlns="http://www.w3.org/2000/svg">
  <path d="M8.00004 1.33325C4.32404 1.33325 1.33337 4.32392 1.33337 7.99992C1.33337 11.6759 4.32404 14.6666 8.00004 14.6666C11.676 14.6666 14.6667 11.6759 14.6667 7.99992C14.6667 4.32392 11.676 1.33325 8.00004 1.33325ZM2.66671 7.99992C2.66671 6.76925 3.08937 5.63859 3.79204 4.73525L11.2647 12.2079C10.3327 12.9371 9.18341 13.3333 8.00004 13.3333C5.05937 13.3333 2.66671 10.9406 2.66671 7.99992ZM12.208 11.2646L4.73537 3.79192C5.66741 3.06278 6.81669 2.66662 8.00004 2.66659C10.9407 2.66659 13.3334 5.05925 13.3334 7.99992C13.333 9.18322 12.9369 10.3324 12.208 11.2646Z"/>
</svg>