<svg fill="none" viewBox="0 0 32 32"  xmlns="http://www.w3.org/2000/svg"><g fill="currentColor"><path d="m6.11155 7.4462c-.0708-.28321-.26182-.52134-.52293-.65189l-3.58862-1.79431h5.27924c.43043 0 .81257.27543.94868.68377l.55656 1.66966c.13002.39006.48553.66078.89612.68239l17.261.90848c.5743.03022 1.0049.53746.9414 1.109l-.7906 7.115c-.0535.4813-.4441.8551-.9274.8874l-13.8792.9252c-.177.0118-.3346.1166-.4139.2753l-.5652 1.1303c-.1516.3032.0362.6662.3712.7178l12.3221 1.8957h-16.19098c-.37169 0-.61344-.3912-.44722-.7236l1.47277-2.9455c.10675-.2135.13361-.4582.07571-.6898z"/><path d="m7 26c0-1.1046.89543-2 2-2 1.1046 0 2 .8954 2 2s-.8954 2-2 2c-1.10457 0-2-.8954-2-2z"/><path d="m24 24c-1.1046 0-2 .8954-2 2s.8954 2 2 2 2-.8954 2-2-.8954-2-2-2z"/></g></svg>