<svg width="24" height="24" viewBox="0 0 24 24" fill="none" xmlns="http://www.w3.org/2000/svg">
<path d="M5.64767 14.6849C4.95545 13.4389 5.23554 11.8778 6.31777 10.9502L8.24307 9.29995C7.46897 8.41945 6.99953 7.26455 6.99953 6C6.99953 4.3644 7.78487 2.91223 8.99904 2H5C3.34315 2 2 3.34315 2 5V22L5.12132 18.8787C5.68393 18.3161 6.44699 18 7.24264 18H7.48939L5.64767 14.6849Z" fill="currentColor"/>
<path d="M16.9995 6C16.9995 4.3644 16.2142 2.91223 15 2H19C20.6569 2 22 3.34315 22 5V15C22 16.6569 20.6569 18 19 18H16.5097L18.3514 14.6849C19.0436 13.4389 18.7635 11.8778 17.6813 10.9502L15.756 9.29995C16.5301 8.41945 16.9995 7.26455 16.9995 6Z" fill="currentColor"/>
<path d="M8.99943 6C8.99943 4.34315 10.3426 3 11.9994 3C13.6563 3 14.9994 4.34315 14.9994 6C14.9994 7.65685 13.6563 9 11.9994 9C10.3426 9 8.99943 7.65685 8.99943 6Z" fill="currentColor"/>
<path d="M10.2186 10.2407C10.3998 10.0854 10.6306 10 10.8694 10H13.1295C13.3682 10 13.5991 10.0854 13.7803 10.2407L16.3796 12.4687C16.7404 12.7779 16.8337 13.2983 16.603 13.7136L12.8736 20.4265C12.4926 21.1123 11.5063 21.1123 11.1253 20.4265L7.39589 13.7136C7.16515 13.2983 7.25851 12.7779 7.61926 12.4687L10.2186 10.2407Z" fill="currentColor"/>
</svg>
