<svg width="24" height="24" viewBox="0 0 24 24" fill="none" xmlns="http://www.w3.org/2000/svg">
<path d="M18.7584 6.49115C18.6183 6.4179 18.4818 6.33759 18.3496 6.25054C17.9651 5.9935 17.6125 5.69063 17.2995 5.34846C16.5165 4.44244 16.224 3.5233 16.1163 2.87977H16.1206C16.0306 2.34561 16.0678 2 16.0734 2H12.5067V15.9459C12.5067 16.1332 12.5067 16.3182 12.4989 16.5011C12.4989 16.5238 12.4967 16.5448 12.4954 16.5693C12.4954 16.5794 12.4954 16.5899 12.4932 16.6004C12.4932 16.603 12.4932 16.6056 12.4932 16.6083C12.4556 17.1086 12.297 17.592 12.0313 18.0159C11.7656 18.4397 11.401 18.791 10.9695 19.0389C10.5197 19.2976 10.0111 19.4333 9.49369 19.4326C7.83188 19.4326 6.48504 18.0624 6.48504 16.3703C6.48504 14.6781 7.83188 13.3079 9.49369 13.3079C9.80826 13.3076 10.1209 13.3577 10.42 13.4562L10.4243 9.78405C9.51634 9.66545 8.59391 9.73842 7.71522 9.99834C6.83653 10.2583 6.02065 10.6995 5.31905 11.2942C4.70428 11.8343 4.18745 12.4788 3.7918 13.1986C3.64124 13.4611 3.07317 14.5158 3.00437 16.2277C2.96111 17.1993 3.24969 18.2059 3.38727 18.622V18.6307C3.4738 18.8757 3.8091 19.7117 4.35554 20.4165C4.79617 20.9819 5.31675 21.4785 5.90053 21.8904V21.8816L5.90918 21.8904C7.63589 23.0768 9.55036 22.999 9.55036 22.999C9.88177 22.9854 10.992 22.999 12.2527 22.3948C13.651 21.725 14.4471 20.7271 14.4471 20.7271C14.9557 20.1309 15.3601 19.4514 15.6429 18.7178C15.9657 17.8599 16.0734 16.8309 16.0734 16.4197V9.02109C16.1167 9.04734 16.693 9.43275 16.693 9.43275C16.693 9.43275 17.5232 9.97085 18.8186 10.3213C19.7479 10.5706 21 10.6231 21 10.6231V7.04281C20.5613 7.09093 19.6705 6.95094 18.7584 6.49115Z" fill="currentColor"/>
</svg> 