<svg width="24" height="24" viewBox="0 0 24 24" fill="none" xmlns="http://www.w3.org/2000/svg">
<path fill-rule="evenodd" clip-rule="evenodd" d="M21 17.1135C20.9998 17.4593 20.9025 17.802 20.7142 18.0976C20.5258 18.3936 20.2518 18.6328 19.9199 18.7741L12.6699 21.8628C12.2408 22.0456 11.7583 22.0456 11.3291 21.8628L4.07906 18.7741C3.74739 18.6325 3.473 18.3927 3.28482 18.0966C3.09701 17.801 3.00008 17.4586 3 17.113V7.88718C3.00008 7.54163 3.09701 7.19898 3.28482 6.90339C3.473 6.60723 3.74676 6.36774 4.07843 6.22617L11.1167 3.22746L11.1201 3.22656L11.3279 3.13773C11.7577 2.95425 12.2417 2.95401 12.6716 3.13748L12.8799 3.22656L12.8833 3.22746L19.9192 6.22559C20.251 6.36682 20.5258 6.60638 20.7142 6.90236C20.9025 7.19801 20.9998 7.54065 21 7.88646V17.1135ZM17.7647 7.92947L12.2752 9.93999C12.0975 10.005 11.9026 10.005 11.7249 9.93999L6.23469 7.92922C5.98169 7.83656 5.70301 7.843 5.45456 7.94723L5.11571 8.0894C4.92447 8.16963 4.80005 8.35677 4.80005 8.56415C4.80005 8.77165 4.92461 8.95887 5.116 9.03902L10.8091 11.4234C11.1065 11.5479 11.3 11.8388 11.3 12.1613V19.4578C11.3 19.7399 11.4694 19.9945 11.7296 20.1035C11.9028 20.176 12.098 20.1757 12.2708 20.1033C12.53 19.9948 12.7004 19.7417 12.7023 19.4601L12.7525 12.1555C12.7547 11.836 12.9469 11.5484 13.2412 11.424L18.8851 9.04033C19.076 8.95971 19.2 8.77263 19.2 8.56542C19.2 8.35796 19.0757 8.17071 18.8845 8.09024L18.5463 7.94793C18.2974 7.84323 18.0182 7.83663 17.7647 7.92947Z" fill="currentColor"/>
</svg>
