<svg width="16" height="16" viewBox="0 0 16 16" fill="none" xmlns="http://www.w3.org/2000/svg">
<path d="M8.98052 8.46966C8.99324 8.53334 8.99992 8.5992 8.99992 8.66663C8.99992 9.21891 8.5522 9.66663 7.99992 9.66663C7.44763 9.66663 6.99992 9.21891 6.99992 8.66663C6.99992 8.11434 7.44763 7.66663 7.99992 7.66663C8.06733 7.66663 8.13318 7.6733 8.19685 7.68602C9.1684 6.98323 10.8283 5.83819 10.8283 5.83819C10.8283 5.83819 9.68331 7.49811 8.98052 8.46966Z" fill="white"/>
<path fill-rule="evenodd" clip-rule="evenodd" d="M5.99992 0.999959C5.99992 0.815864 6.14916 0.666626 6.33325 0.666626H9.66659C9.85068 0.666626 9.99992 0.815864 9.99992 0.999959V1.66663C9.99992 1.85072 9.85068 1.99996 9.66659 1.99996H8.66659V2.70324C9.45941 2.79087 10.2057 3.03297 10.8746 3.39879L11.2776 2.82322C11.3832 2.67242 11.5911 2.63577 11.7419 2.74136L12.288 3.12375C12.4388 3.22934 12.4754 3.43719 12.3698 3.58799L11.9662 4.16441C13.2133 5.26388 14 6.87338 14 8.66663C14 11.9803 11.3137 14.6666 8 14.6666C4.68629 14.6666 2 11.9803 2 8.66663C2 5.57829 4.33332 3.03492 7.33325 2.70325V1.99996H6.33325C6.14916 1.99996 5.99992 1.85072 5.99992 1.66663V0.999959ZM8 3.99996C5.42267 3.99996 3.33333 6.0893 3.33333 8.66663C3.33333 11.244 5.42267 13.3333 8 13.3333C10.5773 13.3333 12.6667 11.244 12.6667 8.66663C12.6667 6.0893 10.5773 3.99996 8 3.99996Z" fill="white"/>
</svg>
