<svg viewBox="0 0 24 24" fill="none" xmlns="http://www.w3.org/2000/svg">
<path d="M12 3C10.3431 3 9 4.34315 9 6C9 7.65685 10.3431 9 12 9C13.6569 9 15 7.65685 15 6C15 4.34315 13.6569 3 12 3Z" fill="currentColor"/>
<path d="M10.8699 10C10.6312 10 10.4004 10.0854 10.2191 10.2407L7.61983 12.4687C7.25908 12.7779 7.16572 13.2983 7.39646 13.7136L11.1258 20.4265C11.5069 21.1123 12.4932 21.1123 12.8742 20.4265L16.6035 13.7136C16.8343 13.2983 16.7409 12.7779 16.3802 12.4687L13.7809 10.2407C13.5996 10.0854 13.3688 10 13.1301 10H10.8699Z" fill="currentColor"/>
</svg>
