<svg width="42" height="37.9" fill="none" viewBox="0 0 42 38" xmlns="http://www.w3.org/2000/svg">
  <path fill-rule="evenodd" clip-rule="evenodd" d="M 11 0 C 8.027 0 5.559 2.162 5.083 5 L 1.5 5 C 0.672 5 0 5.672 0 6.5 L 0 13.264 C 0 14.022 0.428 14.714 1.106 15.053 L 2 15.5 L 2 22.264 C 2 23.022 2.428 23.714 3.106 24.053 L 5.045 25.022 C 5.287 27.002 6.504 28.752 8.317 29.658 L 10 30.5 L 10 32.264 C 10 33.022 10.428 33.714 11.106 34.053 L 16.975 36.988 C 19.509 38.254 22.491 38.254 25.025 36.988 L 30.894 34.053 C 31.572 33.714 32 33.022 32 32.264 L 32 30.5 L 33.683 29.658 C 35.496 28.752 36.713 27.002 36.956 25.022 L 38.894 24.053 C 39.572 23.714 40 23.022 40 22.264 L 40 15.5 L 40.894 15.053 C 41.572 14.714 42 14.022 42 13.264 L 42 6.5 C 42 5.672 41.328 5 40.5 5 L 36.917 5 C 36.441 2.162 33.973 0 31 0 L 11 0 Z" fill="#18181B"/>
  <path fill-rule="evenodd" clip-rule="evenodd" d="M 6 6 C 6 3.239 8.239 1 11 1 L 31 1 C 33.761 1 36 3.239 36 6 L 36 24.41 C 36 26.304 34.93 28.035 33.236 28.882 L 23.236 33.882 C 21.828 34.586 20.172 34.586 18.764 33.882 L 8.764 28.882 C 7.07 28.035 6 26.304 6 24.41 L 6 6 Z M 8 6 C 8 4.343 9.343 3 11 3 L 31 3 C 32.657 3 34 4.343 34 6 L 34 24.646 C 34 25.782 33.358 26.821 32.342 27.329 L 22.342 32.329 C 21.497 32.752 20.503 32.752 19.658 32.329 L 9.658 27.329 C 8.642 26.821 8 25.782 8 24.646 L 8 6 Z M 18.317 34.658 L 11 31 L 11 32.382 C 11 32.761 11.214 33.107 11.553 33.276 L 17.422 36.211 C 19.675 37.337 22.326 37.337 24.578 36.211 L 30.447 33.276 C 30.786 33.107 31 32.761 31 32.382 L 31 31 L 23.683 34.658 C 21.994 35.503 20.006 35.503 18.317 34.658 Z M 9 6 C 9 4.895 9.895 4 11 4 L 31 4 C 32.105 4 33 4.895 33 6 L 33 24.764 C 33 25.522 32.572 26.214 31.894 26.553 L 21.894 31.553 C 21.331 31.834 20.669 31.834 20.106 31.553 L 10.106 26.553 C 9.428 26.214 9 25.522 9 24.764 L 9 6 Z M 5 6 L 1.5 6 C 1.224 6 1 6.224 1 6.5 L 1 13.382 C 1 13.761 1.214 14.107 1.553 14.276 L 5 16 L 5 6 Z M 37 6 L 40.5 6 C 40.776 6 41 6.224 41 6.5 L 41 13.382 C 41 13.761 40.786 14.107 40.447 14.276 L 37 16 L 37 6 Z M 39 16 L 37 17 L 37 24 L 38.447 23.276 C 38.786 23.107 39 22.761 39 22.382 L 39 16 Z M 5 17 L 3 16 L 3 22.382 C 3 22.761 3.214 23.107 3.553 23.276 L 5 24 L 5 17 Z" fill="url(#a)"/>
  <path opacity=".5" d="M 9 6 C 9 4.895 9.895 4 11 4 L 31 4 C 32.105 4 33 4.895 33 6 L 33 24.764 C 33 25.522 32.572 26.214 31.894 26.553 L 21.894 31.553 C 21.331 31.834 20.669 31.834 20.106 31.553 L 10.106 26.553 C 9.428 26.214 9 25.522 9 24.764 L 9 6 Z" fill="#000"/>
  <g filter="url(#b)" transform="matrix(1, 0, 0, 1, -3, -6)">
    <path fill-rule="evenodd" clip-rule="evenodd" d="M24.2451 17.9764L25.7863 21.1213L27.1735 20.1241L28.6377 28.7919L32.4137 28.1782L29.7936 15.2917H27.867L24.2451 17.9764ZM16.3997 19.4263V18.0456L18.3263 17.5853L18.5575 18.8893L19.4822 18.7359L19.2511 17.1251L21.5629 16.8183V18.199L22.7189 18.0456L23.0271 20.3467L22.1794 20.5768L22.4877 22.1877H23.6436L23.9519 24.3354L23.0271 24.5655L23.4125 26.1764L21.0235 26.5599L20.6382 24.9491L19.8676 25.1792L20.0217 26.5599L17.7869 26.9434L17.5557 25.6394L16.3997 25.7928L15.9374 23.415H17.0162L16.785 21.6507H15.9374L15.475 19.4263H16.3997ZM19.2481 23.4977L18.6663 20.6741L19.9462 20.3212L20.5279 23.4977H19.2481Z" fill="#F2F2F3"/>
  </g>
  <defs>
    <filter id="b" x="11.475" y="13.292" width="24.939" height="21.5" filterUnits="userSpaceOnUse" color-interpolation-filters="sRGB">
      <feFlood flood-opacity="0" result="BackgroundImageFix"/>
      <feColorMatrix in="SourceAlpha" values="0 0 0 0 0 0 0 0 0 0 0 0 0 0 0 0 0 0 127 0" result="hardAlpha"/>
      <feOffset dy="2"/>
      <feGaussianBlur stdDeviation="2"/>
      <feComposite in2="hardAlpha" operator="out"/>
      <feColorMatrix values="0 0 0 0 0 0 0 0 0 0 0 0 0 0 0 0 0 0 0.25 0"/>
      <feBlend in2="BackgroundImageFix" result="effect1_dropShadow_577_7045"/>
      <feBlend in="SourceGraphic" in2="effect1_dropShadow_577_7045" result="shape"/>
    </filter>
    <linearGradient id="a" x1="29.881" y1="7" x2="29.881" y2="45.579" gradientUnits="userSpaceOnUse" gradientTransform="matrix(1, 0, 0, 1, -3, -6)">
      <stop stop-color="#2FECBF"/>
      <stop offset="1" stop-color="#17735D"/>
    </linearGradient>
  </defs>
</svg>

