<svg width="20" height="20" viewBox="0 0 20 20" fill="none" xmlns="http://www.w3.org/2000/svg">
<path d="M1.99999 15.3333H4.66666V18C4.66666 18.7333 5.26666 19.3333 5.99999 19.3333C6.73332 19.3333 7.33332 18.7333 7.33332 18V14C7.33332 13.2667 6.73332 12.6667 5.99999 12.6667H1.99999C1.26666 12.6667 0.666656 13.2667 0.666656 14C0.666656 14.7333 1.26666 15.3333 1.99999 15.3333ZM4.66666 4.66667H1.99999C1.26666 4.66667 0.666656 5.26667 0.666656 6.00001C0.666656 6.73334 1.26666 7.33334 1.99999 7.33334H5.99999C6.73332 7.33334 7.33332 6.73334 7.33332 6.00001V2.00001C7.33332 1.26667 6.73332 0.666672 5.99999 0.666672C5.26666 0.666672 4.66666 1.26667 4.66666 2.00001V4.66667ZM14 19.3333C14.7333 19.3333 15.3333 18.7333 15.3333 18V15.3333H18C18.7333 15.3333 19.3333 14.7333 19.3333 14C19.3333 13.2667 18.7333 12.6667 18 12.6667H14C13.2667 12.6667 12.6667 13.2667 12.6667 14V18C12.6667 18.7333 13.2667 19.3333 14 19.3333ZM15.3333 4.66667V2.00001C15.3333 1.26667 14.7333 0.666672 14 0.666672C13.2667 0.666672 12.6667 1.26667 12.6667 2.00001V6.00001C12.6667 6.73334 13.2667 7.33334 14 7.33334H18C18.7333 7.33334 19.3333 6.73334 19.3333 6.00001C19.3333 5.26667 18.7333 4.66667 18 4.66667H15.3333Z" fill="white"/>
</svg>
