<svg width="24" height="24" viewBox="0 0 24 24" fill="none" xmlns="http://www.w3.org/2000/svg">
<path d="M0.84 0.839997C0.32 1.36 0.32 2.2 0.84 2.72L5.72 7.6L5.33333 8H1.33333C0.6 8 0 8.6 0 9.33333V14.6667C0 15.4 0.6 16 1.33333 16H5.33333L9.72 20.3867C10.56 21.2267 12 20.6267 12 19.44V13.88L17.5733 19.4533C16.92 19.9467 16.2133 20.36 15.44 20.6667C14.96 20.8667 14.6667 21.3733 14.6667 21.8933C14.6667 22.8533 15.64 23.4667 16.52 23.1067C17.5867 22.6667 18.5867 22.08 19.48 21.36L21.2667 23.1467C21.7867 23.6667 22.6267 23.6667 23.1467 23.1467C23.6667 22.6267 23.6667 21.7867 23.1467 21.2667L2.73333 0.839997C2.21333 0.319997 1.37333 0.319997 0.84 0.839997ZM21.3333 12C21.3333 13.0933 21.1333 14.1467 20.7867 15.12L22.8267 17.16C23.5733 15.6 24 13.8533 24 12C24 6.89333 20.8 2.52 16.2933 0.799997C15.5067 0.49333 14.6667 1.10666 14.6667 1.94666V2.2C14.6667 2.70666 15 3.14666 15.48 3.33333C18.9067 4.72 21.3333 8.08 21.3333 12ZM9.72 3.61333L9.49333 3.84L12 6.34666V4.54666C12 3.36 10.56 2.77333 9.72 3.61333ZM18 12C18 9.64 16.64 7.61333 14.6667 6.62666V9.01333L17.9733 12.32C17.9867 12.2133 18 12.1067 18 12Z" fill="white"/>
</svg>
