<svg width="24" height="24" viewBox="0 0 24 24" fill="none" xmlns="http://www.w3.org/2000/svg">
<path d="M0 9.33333V14.6667C0 15.4 0.6 16 1.33333 16H5.33333L9.72 20.3867C10.56 21.2267 12 20.6267 12 19.44V4.54667C12 3.36 10.56 2.76 9.72 3.6L5.33333 8H1.33333C0.6 8 0 8.6 0 9.33333ZM18 12C18 9.64 16.64 7.61333 14.6667 6.62667V17.36C16.64 16.3867 18 14.36 18 12ZM14.6667 1.93333V2.2C14.6667 2.70667 15 3.14667 15.4667 3.33333C18.9067 4.70667 21.3333 8.08 21.3333 12C21.3333 15.92 18.9067 19.2933 15.4667 20.6667C14.9867 20.8533 14.6667 21.2933 14.6667 21.8V22.0667C14.6667 22.9067 15.5067 23.4933 16.28 23.2C20.8 21.48 24 17.12 24 12C24 6.88 20.8 2.52 16.28 0.799999C15.5067 0.493332 14.6667 1.09333 14.6667 1.93333Z" fill="white"/>
</svg>
