<svg width="20" height="20" viewBox="0 0 20 20" fill="none" xmlns="http://www.w3.org/2000/svg">
<path d="M1.99999 12.6667C1.26666 12.6667 0.666656 13.2667 0.666656 14V18C0.666656 18.7333 1.26666 19.3333 1.99999 19.3333H5.99999C6.73332 19.3333 7.33332 18.7333 7.33332 18C7.33332 17.2667 6.73332 16.6667 5.99999 16.6667H3.33332V14C3.33332 13.2667 2.73332 12.6667 1.99999 12.6667ZM1.99999 7.33334C2.73332 7.33334 3.33332 6.73334 3.33332 6.00001V3.33334H5.99999C6.73332 3.33334 7.33332 2.73334 7.33332 2.00001C7.33332 1.26667 6.73332 0.666672 5.99999 0.666672H1.99999C1.26666 0.666672 0.666656 1.26667 0.666656 2.00001V6.00001C0.666656 6.73334 1.26666 7.33334 1.99999 7.33334ZM16.6667 16.6667H14C13.2667 16.6667 12.6667 17.2667 12.6667 18C12.6667 18.7333 13.2667 19.3333 14 19.3333H18C18.7333 19.3333 19.3333 18.7333 19.3333 18V14C19.3333 13.2667 18.7333 12.6667 18 12.6667C17.2667 12.6667 16.6667 13.2667 16.6667 14V16.6667ZM12.6667 2.00001C12.6667 2.73334 13.2667 3.33334 14 3.33334H16.6667V6.00001C16.6667 6.73334 17.2667 7.33334 18 7.33334C18.7333 7.33334 19.3333 6.73334 19.3333 6.00001V2.00001C19.3333 1.26667 18.7333 0.666672 18 0.666672H14C13.2667 0.666672 12.6667 1.26667 12.6667 2.00001Z" fill="white"/>
</svg>
