<svg width="48" height="48" viewBox="0 0 48 48" fill="none" xmlns="http://www.w3.org/2000/svg">
<path d="M2.58606 16.79L5.41406 19.618C6.42206 18.61 7.51806 17.718 8.65806 16.9L5.80006 14.042C4.68006 14.886 3.59206 15.782 2.58606 16.79ZM12.9481 10.12L7.41406 4.586L4.58606 7.414L40.5861 43.414L43.4141 40.586L33.3901 30.562L35.3421 28.612C33.1024 26.3898 30.2459 24.8929 27.1441 24.316L22.5881 19.76C28.1661 19.378 33.8861 21.256 38.0461 25.414L40.8741 22.586C35.0781 16.788 26.7521 14.714 19.0981 16.27L16.0481 13.22C18.622 12.4145 21.303 12.0032 24.0001 12C31.0741 12 37.6741 14.706 42.5861 19.618L45.4141 16.79C39.7481 11.122 32.1421 8 24.0001 8C20.2162 8.0126 16.468 8.73158 12.9481 10.12ZM7.12606 22.586L9.95406 25.414C11.1798 24.199 12.5644 23.1556 14.0701 22.312L11.1521 19.394C9.71806 20.296 8.36206 21.352 7.12606 22.586ZM12.6581 28.614L15.4861 31.442C16.8701 30.058 18.5561 29.14 20.3441 28.586L17.2301 25.472C15.5297 26.2362 13.981 27.3006 12.6581 28.614ZM27.9781 36.22L23.7781 32.02C23.0078 32.0613 22.266 32.3249 21.6424 32.7788C21.0188 33.2327 20.5401 33.8576 20.2641 34.5779C19.9881 35.2982 19.9267 36.083 20.0873 36.8374C20.2479 37.5919 20.6236 38.2836 21.169 38.829C21.7144 39.3745 22.4062 39.7502 23.1606 39.9108C23.9151 40.0714 24.6999 40.01 25.4201 39.734C26.1404 39.458 26.7653 38.9792 27.2193 38.3556C27.6732 37.732 27.9368 36.9902 27.9781 36.22Z" fill="white"/>
</svg>
