<svg width="21" height="15" viewBox="0 0 21 15" fill="none" xmlns="http://www.w3.org/2000/svg">
<path d="M20.593 2.20301C20.4791 1.78041 20.2565 1.39501 19.9474 1.08518C19.6382 0.775338 19.2533 0.551868 18.831 0.437007C17.265 0.00700739 11 7.59651e-06 11 7.59651e-06C11 7.59651e-06 4.73599 -0.00699261 3.16899 0.404007C2.74692 0.524154 2.36282 0.750785 2.05356 1.06214C1.7443 1.3735 1.52028 1.75913 1.40299 2.18201C0.989994 3.74801 0.985994 6.99601 0.985994 6.99601C0.985994 6.99601 0.981994 10.26 1.39199 11.81C1.62199 12.667 2.29699 13.344 3.15499 13.575C4.73699 14.005 10.985 14.012 10.985 14.012C10.985 14.012 17.25 14.019 18.816 13.609C19.2385 13.4943 19.6237 13.2714 19.9336 12.9622C20.2436 12.653 20.4674 12.2682 20.583 11.846C20.997 10.281 21 7.03401 21 7.03401C21 7.03401 21.02 3.76901 20.593 2.20301ZM8.99599 10.005L9.00099 4.00501L14.208 7.01001L8.99599 10.005Z" fill="currentColor" />
</svg>
