<svg width="32" height="32" viewBox="0 0 32 32" fill="none" xmlns="http://www.w3.org/2000/svg">
<path d="M12 5C12 2.79086 13.7909 1 16 1C18.2091 1 20 2.79086 20 5C20 7.20914 18.2091 9 16 9C13.7909 9 12 7.20914 12 5Z" fill="currentColor"/>
<path d="M13.7261 11.2191C13.9034 11.0773 14.1237 11 14.3508 11H17.6492C17.8763 11 18.0966 11.0773 18.2739 11.2191L22.326 14.4608C22.7132 14.7706 22.8149 15.3173 22.5651 15.7455L16.8638 25.5192C16.4779 26.1807 15.5221 26.1807 15.1362 25.5192L9.4349 15.7455C9.18506 15.3173 9.2868 14.7706 9.67399 14.4608L13.7261 11.2191Z" fill="currentColor"/>
<path d="M7.23472 22.0651C8.16995 21.7923 9.2413 21.5644 10.4124 21.3904L11.5037 23.2611C10.0942 23.4326 8.83634 23.6813 7.79472 23.9851C6.75934 24.2871 5.99425 24.6274 5.51071 24.9608C5.2711 25.1261 5.13394 25.267 5.06242 25.3689C5.02826 25.4176 5.01302 25.4518 5.00634 25.4709C5.00014 25.4888 5 25.4972 5 25.5C5 25.5028 5.00014 25.5112 5.00634 25.529C5.01302 25.5482 5.02826 25.5823 5.06242 25.631C5.13394 25.7329 5.2711 25.8738 5.51071 26.0391C5.99425 26.3725 6.75934 26.7128 7.79472 27.0148C9.78475 27.5953 12.5641 27.9745 15.6817 27.9987C15.8933 28.0209 16.1069 28.0209 16.3184 27.9987C19.436 27.9745 22.2153 27.5952 24.2053 27.0148C25.2407 26.7128 26.0058 26.3725 26.4893 26.0391C26.7289 25.8738 26.8661 25.7329 26.9376 25.631C26.9717 25.5823 26.987 25.5482 26.9937 25.529C26.9999 25.5112 27 25.5028 27 25.5C27 25.4972 26.9999 25.4888 26.9937 25.4709C26.987 25.4518 26.9717 25.4176 26.9376 25.3689C26.8661 25.267 26.7289 25.1261 26.4893 24.9608C26.0058 24.6274 25.2407 24.2871 24.2053 23.9851C23.1637 23.6813 21.9059 23.4326 20.4965 23.2611L21.5877 21.3904C22.7588 21.5645 23.8301 21.7923 24.7653 22.0651C25.9015 22.3965 26.8937 22.8103 27.6247 23.3144C28.3246 23.797 29 24.5189 29 25.5C29 26.4811 28.3246 27.2029 27.6247 27.6856C26.8937 28.1896 25.9015 28.6034 24.7653 28.9348C22.4796 29.6015 19.3809 30 16 30C12.6191 30 9.52036 29.6015 7.23472 28.9348C6.09852 28.6034 5.10626 28.1896 4.37533 27.6856C3.67536 27.2029 3 26.4811 3 25.5C3 24.5189 3.67536 23.797 4.37533 23.3144C5.10626 22.8103 6.09852 22.3965 7.23472 22.0651Z" fill="currentColor"/>
</svg>
