<svg width="32" height="32" viewBox="0 0 32 32" fill="none" xmlns="http://www.w3.org/2000/svg">
<path fill-rule="evenodd" clip-rule="evenodd" d="M16.0065 8.84966C16.7732 8.84966 17.5085 8.54151 18.0506 7.993C18.5927 7.44449 18.8973 6.70054 18.8973 5.92483C18.8973 5.14912 18.5927 4.40518 18.0506 3.85666C17.5085 3.30815 16.7732 3 16.0065 3C15.2399 3 14.5046 3.30815 13.9625 3.85666C13.4203 4.40518 13.1158 5.14912 13.1158 5.92483C13.1158 6.70054 13.4203 7.44449 13.9625 7.993C14.5046 8.54151 15.2399 8.84966 16.0065 8.84966ZM24.9486 10.4356C25.044 10.7665 25.0056 11.1223 24.8417 11.4246C24.6779 11.7269 24.4021 11.9509 24.075 12.0475C22.5486 12.4973 20.895 14.858 20.895 14.858L19.8609 27.6986C19.8613 28.0334 19.7339 28.3555 19.5054 28.5977C19.2769 28.8399 18.9649 28.9835 18.6343 28.9987C18.3037 29.0138 17.9801 28.8993 17.7309 28.6791C17.4816 28.4588 17.326 28.1497 17.2965 27.8162L16.6541 20.6666C16.6506 20.6275 16.6489 20.5883 16.6489 20.549H15.3641C15.3642 20.5883 15.3625 20.6275 15.359 20.6666L14.7166 27.8162C14.687 28.1497 14.5314 28.4588 14.2822 28.6791C14.033 28.8993 13.7094 29.0138 13.3788 28.9987C13.0482 28.9835 12.7361 28.8399 12.5076 28.5977C12.2791 28.3555 12.1518 28.0334 12.1522 27.6986L11.4001 14.858C11.4001 14.858 9.47278 12.4784 7.95417 12.052C7.79003 12.0078 7.63619 11.9311 7.50154 11.8263C7.36689 11.7215 7.25412 11.5908 7.16974 11.4416C7.08536 11.2925 7.03105 11.1279 7.00995 10.9573C6.98885 10.7868 7.00139 10.6137 7.04683 10.4481C7.09227 10.2825 7.16971 10.1277 7.27468 9.99257C7.37965 9.85745 7.51006 9.74473 7.65836 9.66093C7.80666 9.57714 7.96992 9.52393 8.13868 9.50438C8.30744 9.48484 8.47835 9.49935 8.64153 9.54707C11.6017 10.3777 13.8256 10.7898 16.0123 10.7995C18.1939 10.8093 20.4127 10.4193 23.3555 9.55162C23.6826 9.45509 24.0342 9.49399 24.333 9.65976C24.6318 9.82553 24.8532 10.1046 24.9486 10.4356Z" fill="currentColor"/>
</svg>
