<svg width="32" height="32" viewBox="0 0 32 32" fill="none" xmlns="http://www.w3.org/2000/svg">
<path fill-rule="evenodd" clip-rule="evenodd" d="M14 4C14.5523 4 15 4.44772 15 5V11C15 11.5523 14.5523 12 14 12C13.4477 12 13 11.5523 13 11V9H4C3.44772 9 3 8.55228 3 8C3 7.44772 3.44772 7 4 7H13V5C13 4.44772 13.4477 4 14 4ZM18 8C18 7.44772 18.4477 7 19 7H28C28.5523 7 29 7.44772 29 8C29 8.55228 28.5523 9 28 9H19C18.4477 9 18 8.55228 18 8ZM21 13C21.5523 13 22 13.4477 22 14V19C22 19.5523 21.5523 20 21 20C20.4477 20 20 19.5523 20 19V18H4C3.44772 18 3 17.5523 3 17C3 16.4477 3.44772 16 4 16H20V14C20 13.4477 20.4477 13 21 13ZM26 17C26 16.4477 26.4477 16 27 16H28C28.5523 16 29 16.4477 29 17C29 17.5523 28.5523 18 28 18H27C26.4477 18 26 17.5523 26 17ZM8 21C8.55228 21 9 21.4477 9 22V28C9 28.5523 8.55228 29 8 29C7.44772 29 7 28.5523 7 28V26H4C3.44772 26 3 25.5523 3 25C3 24.4477 3.44772 24 4 24H7V22C7 21.4477 7.44772 21 8 21ZM13 25C13 24.4477 13.4477 24 14 24H28C28.5523 24 29 24.4477 29 25C29 25.5523 28.5523 26 28 26H14C13.4477 26 13 25.5523 13 25Z" fill="currentColor"/>
</svg>
