<svg width="32" height="32" viewBox="0 0 32 32" fill="none" xmlns="http://www.w3.org/2000/svg">
<path fill-rule="evenodd" clip-rule="evenodd" d="M3.9263 14.6682C6.34825 10.6815 10.8459 8 16 8C21.154 8 25.6517 10.6815 28.0737 14.6682C28.7571 15.7932 28.7571 17.2068 28.0737 18.3318C25.6517 22.3185 21.154 25 16 25C10.8459 25 6.34825 22.3185 3.9263 18.3318C3.24283 17.2068 3.24283 15.7932 3.9263 14.6682ZM10.0909 16.5C10.0909 19.628 12.7382 22.1667 16 22.1667C19.2618 22.1667 21.9091 19.628 21.9091 16.5C21.9091 13.372 19.2618 10.8333 16 10.8333C12.7382 10.8333 10.0909 13.372 10.0909 16.5ZM15 17C16.1045 17 17 16.1046 17 15C17 13.8954 16.1045 13 15 13C13.8954 13 13 13.8954 13 15C13 16.1046 13.8954 17 15 17Z" fill="currentColor"/>
</svg>
