<svg width="32" height="32" viewBox="0 0 32 32" fill="none" xmlns="http://www.w3.org/2000/svg">
<path d="M24.1976 13.3912C26.2104 14.1564 27.9454 15.3052 28.8815 16.9323C28.979 17.1017 29.0175 17.2909 28.9927 17.478C28.9678 17.6651 28.8805 17.8425 28.741 17.9895C28.6015 18.1365 28.4154 18.2472 28.2043 18.3087C27.9932 18.3703 27.7658 18.3801 27.5483 18.3371C20.5077 16.9462 13.3854 21.3375 9.63048 22.6427C7.27374 23.4617 4.98555 22.7932 3.80246 21.4461C2.5 20 2.9096 17.8996 3.02594 17.0449C3.42779 14.2501 7.25086 12.0261 10 11.5C14.4688 10.6461 19.9746 11.7841 24.1976 13.3912Z" fill="currentColor"/>
</svg>
