<svg width="32" height="32" viewBox="0 0 32 32" fill="none" xmlns="http://www.w3.org/2000/svg">
<path fill-rule="evenodd" clip-rule="evenodd" d="M26.6578 10.8296C26.9772 10.2352 26.7701 9.4856 26.1952 9.15536C25.6211 8.82563 24.8979 9.03783 24.5777 9.63015L24.5767 9.63201L24.5758 9.6336L24.559 9.6633C24.5421 9.6926 24.5139 9.74035 24.4744 9.80393C24.3952 9.93123 24.271 10.1211 24.1008 10.3528C23.7595 10.8176 23.2394 11.4425 22.5345 12.0672C21.1301 13.3118 19.0132 14.5411 16.0899 14.5411C13.1567 14.5411 10.8774 13.3035 9.30642 12.0324C8.52164 11.3974 7.92452 10.7621 7.52629 10.289C7.32767 10.0531 7.18001 9.85929 7.08463 9.7285C7.03698 9.66316 7.00251 9.61372 6.98137 9.58283L6.95973 9.5508L6.95658 9.54602C6.59115 8.98242 5.85325 8.8306 5.30687 9.2072C4.75963 9.5844 4.61234 10.3498 4.97717 10.9156L4.97784 10.9166L4.97944 10.9191L4.98363 10.9255L4.99605 10.9443C5.00612 10.9595 5.01976 10.9798 5.03696 11.005C5.07136 11.0552 5.12003 11.1248 5.18287 11.211C5.30845 11.3832 5.49107 11.6222 5.72973 11.9057C5.91702 12.1282 6.13973 12.3792 6.39741 12.6474C6.37764 12.6717 6.35847 12.6968 6.33992 12.7227L3.29885 16.9603C2.79957 17.656 2.94032 18.6385 3.61323 19.1547C4.28615 19.6709 5.23639 19.5254 5.73567 18.8297L8.73824 14.6457C9.52092 15.1871 10.4271 15.7013 11.452 16.1105L10.0364 20.8402C9.79961 21.6315 10.2281 22.4715 10.9934 22.7164C11.7588 22.9613 12.5713 22.5183 12.8081 21.727L14.2617 16.8702C14.845 16.9563 15.4546 17.0036 16.0899 17.0036C16.7576 17.0036 17.3921 16.9513 17.9937 16.8566L19.3395 21.9436C19.5416 22.7078 20.3046 23.1578 21.0437 22.9488C21.7828 22.7398 22.2181 21.9509 22.016 21.1867L20.6699 16.0984C21.6891 15.6718 22.5716 15.1322 23.3205 14.564L26.5277 18.4637C27.0297 19.0741 27.9153 19.1482 28.5057 18.6292C29.0961 18.1101 29.1678 17.1945 28.6657 16.584L25.3928 12.6043C25.6285 12.3285 25.8299 12.0705 25.9978 11.8419C26.2091 11.5542 26.3686 11.3113 26.4778 11.1356C26.5325 11.0476 26.5747 10.9764 26.6046 10.9245C26.6196 10.8985 26.6315 10.8774 26.6403 10.8615L26.6514 10.8416L26.6552 10.8346L26.6566 10.8318L26.6578 10.8296ZM25.6168 10.2317C26.6578 10.8296 26.6578 10.8296 26.6578 10.8296L25.6168 10.2317ZM5.96745 10.2317L4.97717 10.9156C4.97717 10.9156 4.97658 10.9146 5.96745 10.2317Z" fill="currentColor"/>
</svg>
