<svg width="32" height="32" viewBox="0 0 32 32" fill="none" xmlns="http://www.w3.org/2000/svg">
<path d="M4 9.45455V6.18182C4 5.58182 4.21382 5.068 4.64145 4.64036C5.06836 4.21345 5.58182 4 6.18182 4H9.45455V6.18182H6.18182V9.45455H4Z" fill="currentColor"/>
<path d="M9.45455 28H6.18182C5.58182 28 5.06836 27.7865 4.64145 27.3596C4.21382 26.932 4 26.4182 4 25.8182V22.5455H6.18182V25.8182H9.45455V28Z" fill="currentColor"/>
<path d="M22.5455 25.8182V28H25.8182C26.4182 28 26.932 27.7865 27.3596 27.3596C27.7865 26.932 28 26.4182 28 25.8182V22.5455H25.8182V25.8182H22.5455Z" fill="currentColor"/>
<path d="M25.8182 9.45455V6.18182H22.5455V4H25.8182C26.4182 4 26.932 4.21345 27.3596 4.64036C27.7865 5.068 28 5.58182 28 6.18182V9.45455H25.8182Z" fill="currentColor"/>
<path d="M11.4286 12.5714C11.4286 10.0467 13.4753 8 16.0001 8C18.5248 8 20.5715 10.0467 20.5715 12.5714C20.5715 15.0962 18.5248 17.1429 16.0001 17.1429C13.4753 17.1429 11.4286 15.0962 11.4286 12.5714Z" fill="currentColor"/>
<path d="M13.4404 19.6477C13.6178 19.5059 13.8381 19.4286 14.0651 19.4286H17.935C18.1621 19.4286 18.3824 19.5059 18.5597 19.6477L21.774 22.2191C22.5121 22.8096 22.0946 24 21.1493 24H10.8509C9.90558 24 9.48802 22.8096 10.2262 22.2191L13.4404 19.6477Z" fill="currentColor"/>
</svg>
