<svg width="32" height="32" viewBox="0 0 32 32" fill="none" xmlns="http://www.w3.org/2000/svg">
<path fill-rule="evenodd" clip-rule="evenodd" d="M8.73153 6.10757C8.11852 6.26797 7.61854 6.56382 7.18124 7.02487C6.96547 7.25233 6.29813 8.15124 5.69824 9.02239C5.09834 9.8936 3.64736 11.9762 2.47382 13.6505C1.30029 15.3248 0.26385 16.8203 0.170608 16.9738C-0.0337822 17.3105 -0.0578325 17.9012 0.116362 18.3076C0.326138 18.7973 0.887944 19.2522 1.44239 19.3814C1.6266 19.4243 1.63798 19.46 1.72614 20.2678C1.83471 21.2634 2.02939 21.9249 2.43619 22.6809C3.22257 24.1422 4.58714 25.2329 6.29578 25.7661C7.15977 26.0357 8.55309 26.0779 9.50699 25.8632C10.7704 25.5791 11.8354 24.9767 12.7586 24.0241C13.9661 22.7781 14.5739 21.0819 14.4579 19.282L14.4077 18.5047L14.6194 18.3082C14.9323 18.0175 15.1784 17.9545 16.0006 17.9545C16.9009 17.9545 17.1657 18.0348 17.3805 18.3732C17.5289 18.607 17.5395 18.6941 17.4935 19.3082C17.3786 20.8435 17.8012 22.2615 18.7422 23.498C20.0624 25.2331 21.936 26.0908 24.1625 25.9794C25.1894 25.928 25.7387 25.8053 26.528 25.451C28.6961 24.4777 30.1023 22.4338 30.2503 20.0408C30.291 19.3816 30.2988 19.3577 30.4735 19.3577C31.1412 19.3577 31.8568 18.6677 31.9824 17.9028C32.0601 17.4296 31.8969 17.0585 31.1559 16.0234C30.483 15.0835 29.8344 14.1575 27.3359 10.5694C24.711 6.80007 24.6422 6.71647 23.8432 6.32742C23.2534 6.04022 22.6487 5.95019 22.005 6.05366C21.1 6.19914 20.4673 6.58797 19.9853 7.29494C19.6274 7.8198 19.4445 8.38904 19.3782 9.18456C19.311 9.99035 19.4116 10.3207 19.7683 10.4658C20.1962 10.6398 20.4676 10.5993 20.7563 10.3183C20.9961 10.085 21.0143 10.0338 21.0143 9.59325C21.0143 8.38653 21.5579 7.68923 22.4988 7.68923C23.2743 7.68923 23.3764 7.80126 24.6613 10.0621C25.0854 10.8082 25.7315 11.9338 26.0973 12.5634C26.7607 13.7052 26.9217 14.0414 26.8043 14.0393C26.7703 14.0387 26.4692 13.9553 26.1354 13.8541C25.2822 13.5953 23.9613 13.4823 23.0343 13.5887C21.5542 13.7586 20.5663 14.2021 19.3371 15.2487L18.6477 15.8356L17.3463 15.7444C16.3553 15.6749 15.7553 15.6727 14.831 15.7351C14.1633 15.7802 13.5562 15.8353 13.4819 15.8576C13.3886 15.8856 13.2002 15.7661 12.8749 15.4727C11.3161 14.067 9.96091 13.5223 8.02619 13.524C7.24641 13.5247 6.59781 13.6234 5.77752 13.866C5.42981 13.9688 5.12641 14.0346 5.10327 14.012C5.08006 13.9894 5.5333 13.1475 6.1105 12.141C6.68764 11.1344 7.41248 9.86229 7.72127 9.31395C8.50052 7.93013 8.75968 7.68812 9.45949 7.69041C9.97479 7.69219 10.3785 7.93287 10.6375 8.39273C10.8169 8.71133 10.8445 8.84448 10.8461 9.39629C10.8476 9.92071 10.8747 10.0658 11.0008 10.2218C11.3216 10.6187 12.0679 10.6621 12.3599 10.3007C12.5822 10.0257 12.6287 9.65736 12.5341 8.9235C12.3392 7.4114 11.3752 6.3159 10.0193 6.06562C9.49204 5.96829 9.23098 5.97678 8.73153 6.10757ZM23.48 15.5776C21.2889 15.8013 19.5826 17.6178 19.5616 19.7488C19.5445 21.4823 20.7553 23.1404 22.4643 23.7243C23.0972 23.9405 24.4712 23.9651 25.1112 23.7717C26.8938 23.2328 28.1579 21.5773 28.164 19.7734C28.17 18.0156 27.1534 16.5621 25.4218 15.8527C24.9534 15.6608 23.995 15.525 23.48 15.5776ZM6.89051 15.7329C5.40045 16.1968 4.24429 17.3717 3.86776 18.8046C3.67862 19.5245 3.67846 19.8278 3.867 20.5932C4.08937 21.4961 4.42941 22.1195 5.00601 22.6817C6.75387 24.3858 9.48263 24.3573 11.1688 22.6174C12.0228 21.7362 12.4086 20.7309 12.3477 19.5456C12.2291 17.239 10.3942 15.5855 7.96488 15.5964C7.55883 15.5981 7.1609 15.6487 6.89051 15.7329Z" fill="currentColor"/>
</svg>
