<svg width="32" height="32" viewBox="0 0 32 32" fill="none" xmlns="http://www.w3.org/2000/svg">
<path fill-rule="evenodd" clip-rule="evenodd" d="M23.5553 7.25053C23.8239 6.98095 24.1881 6.8295 24.5679 6.8295C24.9477 6.8295 25.312 6.98095 25.5806 7.25053C25.8491 7.52012 26 7.88575 26 8.267V20.1705C26 21.1861 25.5981 22.1602 24.8826 22.8784C24.1671 23.5965 23.1968 24 22.1849 24H15.2079C14.7015 24.0012 14.2001 23.9 13.7336 23.7024C13.2671 23.5048 12.8451 23.2149 12.4926 22.85L5 15.2255L6.23732 14.0755C6.44618 13.8906 6.71497 13.7884 6.99345 13.788C7.19519 13.7901 7.39279 13.8456 7.56628 13.949L11.6792 16.249V6.8295C11.6792 6.44825 11.8301 6.08262 12.0987 5.81303C12.3672 5.54345 12.7315 5.392 13.1113 5.392C13.4911 5.392 13.8554 5.54345 14.1239 5.81303C14.3925 6.08262 14.5434 6.44825 14.5434 6.8295V11.5455H15.4943V4.4375C15.4943 4.05625 15.6452 3.69062 15.9137 3.42103C16.1823 3.15145 16.5465 3 16.9263 3C17.3062 3 17.6704 3.15145 17.939 3.42103C18.2076 3.69062 18.3584 4.05625 18.3584 4.4375V11.5455H19.3208V5.392C19.3208 5.01075 19.4717 4.64512 19.7402 4.37553C20.0088 4.10595 20.3731 3.9545 20.7529 3.9545C21.1327 3.9545 21.4969 4.10595 21.7655 4.37553C22.0341 4.64512 22.1849 5.01075 22.1849 5.392V11.5455H23.1358V8.267C23.1358 7.88575 23.2867 7.52012 23.5553 7.25053ZM14.5 26C13.6716 26 13 26.6716 13 27.5C13 28.3284 13.6716 29 14.5 29H22.5C23.3284 29 24 28.3284 24 27.5C24 26.6716 23.3284 26 22.5 26H14.5Z" fill="currentColor"/>
</svg>
