<svg width="32" height="32" viewBox="0 0 32 32" fill="none" xmlns="http://www.w3.org/2000/svg">
<path fill-rule="evenodd" clip-rule="evenodd" d="M15.017 4.09555C11.5243 4.55257 8.83177 6.38453 7.17956 9.42818C6.12271 11.3751 5.40408 13.6814 5.10405 16.0895C4.96633 17.1948 4.96507 19.564 5.10179 20.4362C5.56865 23.4149 7.26615 25.8496 9.9719 27.4211C10.8117 27.9088 11.134 28.0233 11.5589 27.9849C11.8176 27.9615 11.9265 27.9112 12.118 27.7268C12.3272 27.5253 12.3592 27.4515 12.3846 27.1135L12.4135 26.7292L12.0001 26.2962C10.8035 25.0428 10.1664 23.6005 9.92495 21.5979L9.83405 20.8442L10.4683 20.3851C11.5325 19.615 13.268 17.8708 14.0069 16.8289C15.2081 15.135 16.0266 13.6215 16.7864 11.6892C17.1249 10.8284 17.7024 8.99153 17.7024 8.77579C17.7024 8.70792 17.741 8.6382 17.7881 8.62077C17.8888 8.58355 18.9343 8.86614 19.3496 9.0428C20.0926 9.35891 21.0452 10.1323 21.5869 10.8592C22.3893 11.936 22.9709 13.7742 23.2432 16.0946C23.3777 17.2408 23.3233 20.1198 23.1472 21.1705C22.7515 23.5324 22.1795 24.8654 20.9626 26.2612C20.3902 26.9177 20.3383 27.36 20.7889 27.7409C21.343 28.2095 21.9679 28.064 23.4201 27.1283C25.8252 25.5787 27.3435 23.2689 27.7769 20.5001C27.9368 19.4789 27.9545 17.4711 27.8143 16.2757C27.4461 13.1374 26.3367 10.0778 24.834 8.05605C22.6454 5.11168 18.8753 3.59072 15.017 4.09555Z" fill="currentColor"/>
</svg>
