<svg width="32" height="32" viewBox="0 0 32 32" fill="none" xmlns="http://www.w3.org/2000/svg">
<path fill-rule="evenodd" clip-rule="evenodd" d="M8 26.5C0.384815 24.8637 3.92614 19.7532 6.99998 18C6.99998 9.23414 10.8545 4 18 4C23.883 4 26.6728 7.74931 28.2928 11.2981C28.7991 12.407 29 13.6249 29 14.8439V17.7052C29 19.1264 28.2531 20.448 26.9988 21.1163C26.8321 21.2051 26.6624 21.2958 26.4896 21.3881C21.6045 23.9973 14.3601 27.8666 8 26.5ZM8.5 17.5C8.96863 8.17792 13.5145 6 16 6C21.9873 6 25.463 11.7456 25 18.5C24.9323 19.487 24.5 21 22 21C15.179 21.1218 13.1433 20.5827 10 19.5C9.18809 19.2203 8.45689 18.3576 8.5 17.5ZM16.9634 10.8629C16.9563 10.6725 16.7162 10.5936 16.5976 10.7428L15.0135 12.7361C14.9762 12.783 14.9203 12.8113 14.8605 12.8135L12.3162 12.9085C12.1257 12.9156 12.0469 13.1557 12.1961 13.2743L14.1894 14.8584C14.2363 14.8957 14.2646 14.9516 14.2668 15.0114L14.3617 17.5557C14.3688 17.7462 14.609 17.825 14.7276 17.6758L16.3117 15.6825C16.3489 15.6356 16.4048 15.6074 16.4647 15.6051L19.009 15.5102C19.1994 15.5031 19.2783 15.2629 19.1291 15.1443L17.1358 13.5602C17.0889 13.523 17.0606 13.4671 17.0584 13.4072L16.9634 10.8629Z" fill="currentColor"/>
</svg>
