<svg width="32" height="32" viewBox="0 0 32 32" fill="none" xmlns="http://www.w3.org/2000/svg">
<path d="M12.4635 4C12.8873 4 13.2519 4.27744 13.4828 4.63279C14.0178 5.45575 14.9453 6 16 6C17.0547 6 17.9822 5.45575 18.5172 4.63279C18.7481 4.27744 19.1127 4 19.5365 4H19.8377C19.9452 4 20.052 4.01733 20.1539 4.05132L25.3162 5.77208C25.7246 5.90819 26 6.29033 26 6.72076V11C26 11.5523 25.5523 12 25 12H23C22.4477 12 22 12.4477 22 13V18C22 18.5523 21.5523 19 21 19H11C10.4477 19 10 18.5523 10 18V13C10 12.4477 9.55228 12 9 12H7C6.44772 12 6 11.5523 6 11V6.72076C6 6.29033 6.27543 5.90819 6.68377 5.77208L11.846 4.05132C11.948 4.01733 12.0548 4 12.1623 4H12.4635Z" fill="currentColor"/>
<path d="M21.1172 21C21.6215 21 22.0469 21.3755 22.1095 21.876L22.8595 27.876C22.9341 28.4728 22.4687 29 21.8672 29H18.3874C17.957 29 17.5749 28.7246 17.4387 28.3162L16.9487 26.8461C16.6448 25.9344 15.3552 25.9344 15.0513 26.8461L14.5613 28.3162C14.4251 28.7246 14.043 29 13.6126 29H10.1328C9.53129 29 9.0659 28.4728 9.1405 27.876L9.8905 21.876C9.95306 21.3755 10.3785 21 10.8828 21H21.1172Z" fill="currentColor"/>
</svg>
