<svg width="32" height="32" viewBox="0 0 32 32" fill="none" xmlns="http://www.w3.org/2000/svg">
<path d="M6.96009 3.95837C6.98241 3.42274 7.42314 3 7.95923 3H24.0408C24.5769 3 25.0176 3.42274 25.04 3.95837L25.0816 4.95837C25.1053 5.52649 24.6511 6 24.0825 6H7.91756C7.34894 6 6.89475 5.52649 6.91843 4.95837L6.96009 3.95837Z" fill="currentColor"/>
<path d="M7.75089 8C7.2148 8 6.77408 8.42274 6.75176 8.95837L6.04343 25.9584C6.01975 26.5265 6.47394 27 7.04256 27H11.3511C11.8003 27 12.1943 26.7005 12.3146 26.2676L14.9287 16.8569C15.2073 15.8536 16.6425 15.8912 16.8684 16.9076L18.9371 26.2169C19.0388 26.6745 19.4446 27 19.9133 27H24.9575C25.5261 27 25.9803 26.5265 25.9566 25.9584L25.2483 8.95837C25.226 8.42274 24.7852 8 24.2492 8H7.75089Z" fill="currentColor"/>
</svg>
