<svg width="32" height="32" viewBox="0 0 32 32" fill="none" xmlns="http://www.w3.org/2000/svg">
<path d="M28.1022 2H14.7867C13.7444 2 12.8889 2.85556 12.8889 3.89778V9.77778H19.2222C20.8791 9.77778 22.2222 11.1209 22.2222 12.7778V19.1111H28.1022C29.1444 19.1111 30 18.2556 30 17.2133V3.89778C30 2.85556 29.1444 2 28.1022 2ZM16.6844 7.70889C16.177 7.70889 15.6903 7.50731 15.3315 7.14849C14.9727 6.78967 14.7711 6.303 14.7711 5.79556C14.7711 5.28811 14.9727 4.80144 15.3315 4.44262C15.6903 4.0838 16.177 3.88222 16.6844 3.88222C17.1919 3.88222 17.6786 4.0838 18.0374 4.44262C18.3962 4.80144 18.5978 5.28811 18.5978 5.79556C18.5978 6.85333 17.7422 7.70889 16.6844 7.70889ZM26.2044 17.2133C25.9532 17.2154 25.704 17.1679 25.4711 17.0736C25.2381 16.9794 25.0261 16.8402 24.847 16.6639C24.6678 16.4877 24.5252 16.2779 24.4272 16.0466C24.3291 15.8152 24.2776 15.5668 24.2756 15.3156C24.2735 15.0643 24.321 14.8151 24.4152 14.5822C24.5095 14.3493 24.6487 14.1372 24.825 13.9581C25.0012 13.779 25.211 13.6363 25.4423 13.5383C25.6737 13.4402 25.9221 13.3887 26.1733 13.3867C27.2311 13.3711 28.0867 14.2267 28.1022 15.3156C28.0867 16.3578 27.2467 17.1978 26.2044 17.2133ZM26.2044 7.70889C25.697 7.71301 25.2087 7.51539 24.847 7.15949C24.4852 6.80358 24.2797 6.31856 24.2756 5.81111C24.2714 5.30366 24.4691 4.81536 24.825 4.45362C25.1809 4.09189 25.6659 3.88635 26.1733 3.88222C26.6679 3.89773 27.1372 4.10406 27.483 4.45795C27.8287 4.81185 28.0241 5.28584 28.0281 5.7806C28.0322 6.27536 27.8445 6.75247 27.5045 7.11194C27.1646 7.47141 26.6987 7.68534 26.2044 7.70889ZM3.89778 12.8889H17.2133C17.7167 12.8889 18.1994 13.0888 18.5553 13.4447C18.9112 13.8006 19.1111 14.2833 19.1111 14.7867V28.1022C19.1111 29.1444 18.2556 30 17.2133 30H3.89778C2.85556 30 2 29.1444 2 28.1022V14.7867C2 13.7444 2.85556 12.8889 3.89778 12.8889ZM10.5556 19.5467C9.51333 19.5467 8.65778 20.4022 8.65778 21.4444C8.65778 22.4867 9.51333 23.3422 10.5556 23.3422C11.5978 23.3422 12.4533 22.4867 12.4533 21.4444C12.4533 20.9411 12.2534 20.4584 11.8975 20.1025C11.5416 19.7466 11.0589 19.5467 10.5556 19.5467ZM5.79556 14.7867C4.75333 14.7867 3.89778 15.6422 3.89778 16.6844C3.89778 17.1878 4.09772 17.6705 4.45362 18.0264C4.80953 18.3823 5.29223 18.5822 5.79556 18.5822C6.83778 18.5822 7.69333 17.7267 7.69333 16.6844C7.69333 15.6422 6.83778 14.7867 5.79556 14.7867ZM15.3 24.2911C14.2578 24.2911 13.4022 25.1467 13.4022 26.1889C13.4022 27.2311 14.2578 28.0867 15.3 28.0867C15.8033 28.0867 16.286 27.8867 16.6419 27.5308C16.9978 27.1749 17.1978 26.6922 17.1978 26.1889C17.1978 25.1467 16.3578 24.3067 15.3156 24.2911H15.3Z" fill="currentColor"/>
</svg>
