<svg width="32" height="32" viewBox="0 0 32 32" fill="none" xmlns="http://www.w3.org/2000/svg">
<path fill-rule="evenodd" clip-rule="evenodd" d="M11.7048 4C12.0908 4 12.4325 4.23012 12.6581 4.54336C13.2935 5.42561 14.3297 6 15.5 6C16.6703 6 17.7065 5.42561 18.3419 4.54336C18.5675 4.23012 18.9092 4 19.2952 4H20.7947C20.9302 4 21.0642 4.02751 21.1887 4.08086L27.3939 6.74025C27.7616 6.89783 28 7.25937 28 7.6594V13C28 13.5523 27.5523 14 27 14H24C23.4477 14 23 14.4477 23 15V27C23 27.5523 22.5523 28 22 28H10C9.44772 28 9 27.5523 9 27V15C9 14.4477 8.55228 14 8 14H5C4.44772 14 4 13.5523 4 13V7.6594C4 7.25937 4.2384 6.89783 4.60608 6.74025L10.8113 4.08085C10.9358 4.02751 11.0698 4 11.2053 4H11.7048ZM16.207 10.1442C16.1359 9.95195 15.8641 9.95195 15.793 10.1442L14.8427 12.7122C14.8203 12.7727 14.7727 12.8203 14.7122 12.8427L12.1442 13.793C11.9519 13.8641 11.9519 14.1359 12.1442 14.207L14.7122 15.1573C14.7727 15.1797 14.8203 15.2273 14.8427 15.2878L15.793 17.8558C15.8641 18.0481 16.1359 18.0481 16.207 17.8558L17.1573 15.2878C17.1797 15.2273 17.2273 15.1797 17.2878 15.1573L19.8558 14.207C20.0481 14.1359 20.0481 13.8641 19.8558 13.793L17.2878 12.8427C17.2273 12.8203 17.1797 12.7727 17.1573 12.7122L16.207 10.1442Z" fill="currentColor"/>
</svg>
