<svg width="32" height="32" viewBox="0 0 32 32" fill="none" xmlns="http://www.w3.org/2000/svg">
<path fill-rule="evenodd" clip-rule="evenodd" d="M29.25 11.3324C29.25 11.5252 29.2918 11.7148 29.3592 11.8955C29.5673 12.4533 30 13.836 30 15.6875C30 17.2837 29.6784 18.5315 29.4563 19.2027C29.3352 19.5688 29.25 19.9497 29.25 20.3353C29.25 21.807 28.057 23 26.5853 23H19.5H12H5.25C3.45507 23 2 21.5449 2 19.75C2 18.888 2.31607 18.0614 2.87868 17.4519C3.44129 16.8424 4.20435 16.5 5 16.5C7.2641 16.5 9.4592 15.7207 11.2164 14.2929L15.9787 10.4236C16.3159 10.1496 16.7372 10 17.1717 10C17.6997 10 18.2037 10.2207 18.5618 10.6086L18.75 10.8125C19.2281 11.3304 19.9009 11.625 20.6057 11.625H25.1443C25.8491 11.625 26.5219 11.3304 27 10.8125L27.4402 10.3356C27.6377 10.1217 27.9156 10 28.2068 10C28.7829 10 29.25 10.4671 29.25 11.0432V11.3324ZM15.6473 13.2977C15.2927 12.8607 14.6474 12.8023 14.22 13.1686L12.6435 14.5199C12.1005 14.9853 12.2074 15.8537 12.8471 16.1736L15.7308 17.6154C16.1731 17.8365 16.7106 17.7012 16.9954 17.297L17.4414 16.6642C17.6993 16.2983 17.6826 15.8056 17.4005 15.458L15.6473 13.2977Z" fill="currentColor"/>
</svg>
